<?xml version="1.0"?><svg version="1.2" baseProfile="tiny-ps" viewBox="0 0 300 300" xmlns="http://www.w3.org/2000/svg" xmlns:xlink="http://www.w3.org/1999/xlink"><title>expedicioncr</title><g><g fill="#fefafc" transform="matrix(.1 0 0 -.1 0 300)"><path d="M1320 2989c-226-28-458-115-660-247l-85-56-130-131-131-130-58-89c-109-166-184-347-228-550L6 1685v-370l23-105c32-151 63-238 136-385l65-130 64-85c82-110 207-235 316-316l85-63 115-60 115-60 90-30c50-16 137-40 195-52l105-23h370l105 23c58 12 145 36 195 52l90 30 115 60 116 60 87 65c111 84 227 199 311 311l66 88 65 127 64 126 30 99c17 54 38 139 48 188l17 90v360l-23 105c-12 58-36 145-52 195l-30 90-60 115-60 116-65 87c-84 111-200 227-311 311l-87 65-115 60c-136 69-256 112-401 141l-105 22-145 3-145 4-75-10z"/></g><g fill="#f6b2c6" transform="matrix(.1 0 0 -.1 0 300)"><path d="m1365 2993-30-5-50-47c-61-58-120-93-205-121l-65-22H845l-32 10-32 10-58-36c-32-20-90-59-129-88l-71-53-104-108-104-108-59-89c-109-165-184-347-228-550L6 1685v-370l23-105c32-151 63-238 136-385l65-130 64-85c82-110 207-235 316-316l85-63 115-60 115-60 90-30c50-16 137-40 195-52l105-23h370l105 23c58 12 145 36 195 52l90 30 115 60 116 60 87 65c111 84 227 199 311 311l66 88 65 127 64 126 30 99c17 54 38 139 48 188l17 90v360l-23 105c-12 58-36 145-52 195l-30 90-60 115-60 116-65 87c-84 111-200 227-311 311l-87 65-115 60c-136 69-256 112-401 141l-105 22-145 3c-80 2-158 1-175-2zm236-323 104-11 95-25 95-24 111-55 112-54 79-60c240-181 401-443 454-741l13-75v-250l-18-88c-22-114-56-209-118-327l-49-95-69-87-69-87-81-69c-179-152-382-241-618-273l-87-12-110 6c-223 11-414 75-605 203l-75 49-85 85-85 85-53 78c-29 42-73 119-97 170l-44 93-26 94-25 95-11 108-11 109 12 104c32 297 148 535 360 738l81 77 87 57 87 56 89 39 89 38 84 20c72 17 179 33 259 38 12 0 68-4 125-9zm-181-57c-336-26-652-210-838-486-63-93-92-151-131-261l-31-89-16-96-16-96 5-125 6-125 21-84c42-172 121-327 234-462l62-74 81-65c137-110 266-177 428-221l80-21 148-5 148-6 77 13c333 53 622 258 796 563l44 78 35 107 36 107 12 90 12 90-6 120-5 120-27 100-26 100-49 101-49 100-59 80c-32 43-92 110-132 148l-73 68-85 56c-98 64-211 114-322 142-77 20-241 41-290 38-14-1-45-3-70-5zm-352-537 92-36h61l29 22 29 21 40-11c21-7 65-24 96-38l57-26 10-30 10-29 25-10 24-9h158l6 10c3 6 16 10 28 10h22l32-68 32-67 61-79c33-44 80-100 105-125 24-25 64-71 88-101l43-55 30-9c16-4 36-12 44-16l15-7v-38h-50l-13 27-13 27-14-5-14-6-3-21-3-22-22-3-23-3v-62c0-34 3-78 6-97l6-35 42-20 41-20 3-18 3-17h-60l-11-19c-5-11-10-32-10-47v-28l21-22 21-23-6-35-7-36h-12c-7 0-30-9-52-20s-41-20-42-20c-2 0-3 15-4 33 0 17-5 47-12 66l-12 33-40 15c-22 8-52 17-66 20l-27 5-6-11-7-11 40-37 41-36v-38l-12-4-13-5-59 24-59 24-23 30-23 29 34 33 35 34v22c0 12-5 46-12 75l-12 52-58 38c-32 21-88 48-123 60l-64 23-10 22-9 21-66 5-66 6-35 23-35 24v14c0 8 7 23 16 32l17 18-35 33c-19 18-63 57-97 87l-63 54-31 6-32 7-10 22-10 22h-12c-18 0-16-11 7-64l20-47 65-29 65-29v-44l-22-22c-13-12-35-36-50-53l-27-31-11 33c-6 18-22 43-35 56l-25 23-82 22-83 22-27 49c-14 27-34 73-44 103l-17 54 17 12c9 7 16 20 16 29v16l25 12c14 6 26 14 27 17 5 20 6 69 2 89l-4 22h-53l-19 17c-10 9-18 20-18 25v8h78l6 16c3 9 6 27 6 40 0 14 7 35 15 48l16 24 47-18c26-11 89-35 140-54z"/></g><g fill="#f0739b" transform="matrix(.1 0 0 -.1 0 300)"><path d="M1778 2888c-21-40-62-105-91-144l-54-71 74-12c356-60 685-314 848-653l44-93 25-86c31-109 46-216 46-327v-87l-15-95-16-94-30-90c-60-179-161-337-300-472-99-94-186-154-310-214l-104-49-100-27-100-26-150-5-150-5-90 15c-180 32-362 110-507 219l-77 58-78 84-78 84-53 86c-154 245-210 515-167 799l15 98 30 91c58 172 151 328 272 454l58 61-67 18-68 18-93 48-92 47-45-52c-152-172-272-422-327-680L6 1685v-370l23-105c32-151 63-238 136-385l65-130 64-85c82-110 207-235 316-316l85-63 115-60 115-60 90-30c50-16 137-40 195-52l105-23h370l105 23c58 12 145 36 195 52l90 30 115 60 116 60 87 65c111 84 227 199 311 311l66 88 65 127 64 126 30 99c17 54 38 139 48 188l17 90v360l-23 105c-12 58-36 145-52 195l-30 90-60 115-60 116-65 87c-84 111-200 227-311 311l-87 65-115 60c-118 60-264 115-336 126l-40 6-37-73zm-278-330-65-51-100-47-100-48-95-22-95-23H925l-120-1-91-90-92-91-46-73c-63-98-110-199-140-305l-25-87-12-109-12-109 12-107 12-106 25-86c31-106 78-209 138-303l46-71 86-89 85-88 75-52c41-28 117-72 169-96l94-45 98-26 98-27h350l98 27 98 26 93 44c127 60 205 115 309 216l87 85 51 73c64 93 120 213 154 328l26 90 11 107 12 106-12 104c-6 56-21 139-32 183l-21 80-59 120-58 120-66 82c-82 101-166 176-280 247l-88 55-79 31c-89 34-216 65-299 73l-55 6-65-51zm114-31c-3-9-10-17-15-17-11 0-12 34-2 44l7 6 8-8 9-9-7-16zm187-50-11-11v15c0 9 3 19 7 23l8 7 3-11c3-7-1-17-7-23zm170-70-12-12 7 18c3 10 9 15 12 12s0-11-7-18zm-1121-92c7-9 10-18 7-22-8-7-37 15-37 28 0 14 16 11 30-6zm-160-160 12-15h-10c-5 0-15 7-22 15l-12 15h10c5 0 15-7 22-15zm232-19c91-39 227-86 263-92l40-6 19 21 19 21h56l77-34 77-34 13-31 13-31 20-8c26-9 144-8 199 2l43 9 6-21c15-61 132-232 201-297 24-22 66-70 94-107l50-68 38-10c22-6 46-17 55-26l15-15-10-20c-17-31-47-23-69 19l-12 23-12-4c-6-2-14-14-17-28l-6-24-22-3-22-3v-28c0-16 3-55 6-89l7-60 37-17 38-17 10-23 11-23-15-6c-9-3-24-6-34-6h-19l-11-19c-15-29-12-50 10-78l20-26v-67l-56-25-56-25-9 6c-5 3-9 20-9 38s-5 47-11 65l-11 31h-21c-12 0-31 7-41 15-11 8-30 15-43 15h-23v-29l35-28 35-28v-55h-18c-18 0-52 13-111 43-13 7-33 25-45 40l-21 28 33 27 32 27v38c0 21-5 57-11 80l-10 42-47 31c-26 17-80 43-121 59l-73 29-11 23-10 23h-122l-38 25-37 26v19c0 10 5 22 10 25 6 3 10 13 10 21v16l-37 31c-20 18-59 52-86 77l-49 45-42 10-41 11-3 22-3 22h-28l14-39c7-22 19-49 24-60l11-19 37-12c21-7 48-19 61-26l22-14v-22c0-12-6-28-14-37s-31-33-50-53l-35-38-19 43c-25 55-33 61-127 86-43 12-85 27-92 33-13 11-56 98-78 160l-13 36 19 18c10 9 19 24 19 33v16l30 17 30 17-4 39c-4 49-12 62-37 62-11 0-29 5-40 10l-19 11v37l40-5 40-6v71l18 31c20 35 20 36 64 17zm-337-156 6-10-15 6c-18 7-21 14-7 14 6 0 13-4 16-10zm-108-366c-3-3-12-4-19-1l-13 5 19 1c11 1 17-2 13-5z"/></g><g fill="#db287f" transform="matrix(.1 0 0 -.1 0 300)"><path d="M2171 2777c-12-28-45-92-72-140-28-49-50-89-48-90 58-33 195-134 248-183l71-66 63-84c116-154 189-322 222-508l15-89v-212l-15-90c-26-158-96-334-188-470-23-33-82-102-131-153l-91-94-87-58c-149-100-306-163-471-190l-62-10h-250l-62 10c-34 6-101 22-149 36l-87 25-87 43c-48 24-115 62-150 86-82 56-217 186-281 270l-50 65-59 120-59 120-28 100-27 100v185l-1 185 22 87c13 48 38 129 58 179 19 51 34 93 33 94-2 1-46 23-98 48s-114 57-138 72l-43 26-34-74c-45-97-80-207-107-331L6 1685v-370l23-105c32-151 63-238 136-385l65-130 64-85c82-110 207-235 316-316l85-63 115-60 115-60 90-30c50-16 137-40 195-52l105-23h370l105 23c58 12 145 36 195 52l90 30 115 60 116 60 87 65c111 84 227 199 311 311l66 88 65 127 64 126 30 99c17 54 38 139 48 188l17 90v360l-23 105c-12 58-36 145-52 195l-30 90-60 115-60 116-65 87c-119 159-302 323-452 404l-59 33-22-53zm-254-382-78-85-100-75-100-75-117-57-116-57 37-14 36-14 11-33 11-33 15-6c9-3 55-6 103-6h87l11 11 12 12 14-6 15-6 32-64c35-72 116-183 199-273 31-33 75-84 99-112l43-52h49l20-20c24-24 25-33 5-50l-16-13-23 11-24 11-7 20-6 20-14-5-14-6-3-21-3-22-24-3-23-4 6-45c3-25 6-64 6-87v-41l41-18 41-18 5-17c2-9 4-21 4-27v-10l-32-5-32-5-10-28-9-29 21-29 21-28v-72l-55-25c-31-13-60-24-65-24h-10v39c0 22-4 51-10 66l-10 26-17 5c-10 3-35 13-56 22l-38 15-12-12-11-11 41-39 42-38-6-21-5-22h-24c-12 0-25 4-29 9-3 5-20 13-38 16l-32 7-32 31c-41 38-41 50-3 79l30 22v33c0 19-5 55-11 79l-12 46-51 33c-28 19-83 46-121 60l-71 26-9 22-10 22-65 3-65 3-32 25-33 25v18c0 9 5 22 11 28l11 11-11 20c-6 12-37 41-69 65-31 25-68 57-81 71l-24 26h-22c-25 0-48 17-63 45l-11 20-1-18c0-10 9-36 21-58l20-41 37-14c20-8 47-20 60-26l22-11v-48l-42-54c-24-30-48-54-53-54l-11-1-12 34c-7 18-22 42-33 52l-21 19-86 25-87 25-27 55c-15 30-34 77-43 105l-15 50 17 13 18 13-3 15-3 14 31 18 31 17-3 44-3 45-60 12c-33 6-87 17-120 23s-71 14-85 17l-25 5 20-12c28-17 28-16 20-28l-6-11-20 10-19 11v39h-27l-31-67c-17-38-43-108-58-158l-26-90-5-148-6-147 13-78c64-401 345-736 730-870l85-30 94-16 95-16h171l91 15c156 25 294 79 436 171l67 43 81 77c202 194 311 418 340 701l11 105-11 99c-20 181-73 337-166 486l-47 75-90 95-91 95-90 59c-49 32-97 59-105 59l-16-1-78-84zm73 31c0-16-24-38-33-30-3 3-1 17 5 30l11 23 8-5c5-3 9-11 9-18zm170-104c0-11-22-32-32-32h-9l11 20c11 20 30 28 30 12zm160-161c0-13-29-35-37-28-7 8 15 37 28 37 5 0 9-4 9-9zm110-170c0-11-31-24-39-16-3 3 1 10 9 15 19 12 30 12 30 1zM520 1808v-9l-17 3c-9 2-18 8-20 15l-4 11 20-5c12-3 21-10 21-15zm1975 2c-3-5-13-10-21-10s-14 5-14 10v10h41l-6-10zM480 1620v-10h-40v20h40v-10zm2060 0v-10l-22 1h-23l20 9c11 5 21 9 23 9 1 1 2-3 2-9zM470 1390c-19-13-30-13-30 0v10h45l-15-10zm2070 1v-9l-20 5c-11 3-20 7-20 9s9 4 20 4 20-4 20-9zM520 1201c0-5-9-11-20-14l-20-5v7c0 4 3 11 7 14 9 10 33 8 33-2zm1970-1 15-10h-17c-9 0-20 5-23 10l-6 10h8c4 0 15-5 23-10zM590 1031c0-11-31-24-39-16-3 3 1 10 9 15 19 12 30 12 30 1zm1840-17c0-2-9 0-20 6s-20 13-20 16c0 2 9 0 20-6s20-13 20-16zM695 860c-3-5-14-10-23-10h-17l15 10c8 5 19 10 23 10h8l-6-10zm1610 0 6-10-15 6c-18 7-21 14-7 14 6 0 13-4 16-10zM848 700c-7-10-14-18-15-16-6 6 9 36 18 36h9l-12-20zm1296 4 6-15-10 6c-6 3-10 10-10 16 0 14 7 11 14-7zM1011 583l-10-18-1 16c0 17 10 32 18 25 2-3-1-13-7-23zm969 6v-10l-10 6c-5 3-10 11-10 16v10l10-6c6-3 10-11 10-16zm-794-75c-4-9-9-15-11-12-3 3-3 13 1 22s9 15 11 12c3-3 3-13-1-22zm624-9v-10l-10 15c-5 8-10 20-10 25v10l10-15c5-8 10-19 10-25zm-433-37-5-13v50l5-12c2-7 2-19 0-25zm230 0-5-13v50l5-12c2-7 2-19 0-25z"/></g><g fill="#ac2986" transform="matrix(.1 0 0 -.1 0 300)"><path d="M2687 2274c-25-44-68-110-96-147l-49-68 35-87c20-48 46-130 60-182l25-95 5-127 6-128-13-92-12-93-30-95c-60-187-141-323-282-468l-91-94-87-58c-149-100-306-163-471-190l-62-10h-250l-62 10c-34 6-101 22-149 36l-87 25-87 43c-48 24-115 62-150 86-82 56-217 186-281 270l-50 65-59 120-60 120-26 110c-15 61-28 115-30 121l-3 12-53 17c-29 10-104 40-167 66l-113 48 6-92c16-207 63-375 161-572l65-130 64-85c82-110 207-235 316-316l85-63 115-60 115-60 90-30c50-16 137-40 195-52l105-23h370l105 23c58 12 145 36 195 52l90 30 115 60 116 60 87 65c111 84 227 199 311 311l66 88 65 127 64 126 30 99c17 54 38 139 48 188l17 90v360l-23 105c-12 58-36 145-52 195l-30 90-60 115c-33 63-68 126-78 139l-18 23-46-78zm-312-397-110-112-102-76c-55-43-109-82-119-87l-18-10 14-27c8-15 32-47 53-71l39-44h48l20-20c24-24 25-33 5-50l-16-13-23 11-24 11-7 20-6 20-14-5-14-6-3-21-3-22-24-3-23-4 6-45c3-25 6-64 6-87v-41l41-18 41-18 6-22c8-30 7-31-29-37l-32-5-10-28-9-29 21-29 21-28v-72l-55-25c-31-13-60-24-65-24h-10v39c0 22-4 51-10 66l-10 26-17 5c-10 3-35 13-56 22l-38 15-12-12-11-11 41-39 42-38-6-21-5-22h-24c-12 0-25 4-29 9-3 5-20 13-38 16l-32 7-32 31c-41 38-41 50-3 79l30 22v33c0 19-5 54-11 79l-12 45-42 29c-23 16-78 43-121 60-43 18-82 36-85 42l-7 10-54-16c-30-8-112-25-184-38l-129-22H725l-125 22c-69 12-140 26-158 31l-32 10 6-42c11-70 54-198 95-280 131-263 352-458 629-555l85-30 94-16 95-16h171l91 15c156 25 294 79 436 171l67 43 81 77c202 194 311 418 340 701l11 105-11 99c-13 120-41 230-80 315-16 35-30 64-32 63-2 0-53-51-113-112zm120-67c-3-5-13-10-21-10s-14 5-14 10v10h41l-6-10zm45-190v-10l-22 1h-23l20 9c11 5 21 9 23 9 1 1 2-3 2-9zm0-229v-9l-20 5c-11 3-20 7-20 9s9 4 20 4 20-4 20-9zM520 1201c0-5-9-11-20-14l-20-5v7c0 4 3 11 7 14 9 10 33 8 33-2zm1970-1 15-10h-17c-9 0-20 5-23 10l-6 10h8c4 0 15-5 23-10zM590 1031c0-11-31-24-39-16-3 3 1 10 9 15 19 12 30 12 30 1zm1840-17c0-2-9 0-20 6s-20 13-20 16c0 2 9 0 20-6s20-13 20-16zM695 860c-3-5-14-10-23-10h-17l15 10c8 5 19 10 23 10h8l-6-10zm1610 0 6-10-15 6c-18 7-21 14-7 14 6 0 13-4 16-10zM848 700c-7-10-14-18-15-16-6 6 9 36 18 36h9l-12-20zm1296 4 6-15-10 6c-6 3-10 10-10 16 0 14 7 11 14-7zM1011 583l-10-18-1 16c0 17 10 32 18 25 2-3-1-13-7-23zm969 6v-10l-10 6c-5 3-10 11-10 16v10l10-6c6-3 10-11 10-16zm-794-75c-4-9-9-15-11-12-3 3-3 13 1 22s9 15 11 12c3-3 3-13-1-22zm624-9v-10l-10 15c-5 8-10 20-10 25v10l10-15c5-8 10-19 10-25zm-433-37-5-13v50l5-12c2-7 2-19 0-25zm230 0-5-13v50l5-12c2-7 2-19 0-25z"/></g><g fill="#812b8d" transform="matrix(.1 0 0 -.1 0 300)"><path d="M2925 1508c-33-39-109-115-168-169l-108-98-38-110-38-110-48-83c-202-348-529-561-921-598l-104-9-104 9c-230 22-446 108-630 249l-51 39-105 12c-90 10-284 46-358 66l-22 6v-8c0-5 29-47 64-94 82-110 207-234 316-316l85-63 115-60 115-60 90-30c50-16 137-40 195-52l105-23h370l105 23c58 12 145 36 195 52l90 30 115 60 116 60 87 65c111 84 227 200 311 311l65 87 60 116 60 115 31 94c18 52 40 137 51 190l19 96 7 138 6 137h-9c-5 0-36-32-69-72zm-499-429c-115-76-285-174-316-181-8-2-21-9-29-16l-14-13-13 5-14 5v-8c0-5-33-23-74-40-257-107-505-169-782-196-82-8-153-15-157-15-5 0-6-4-3-9 3-4-1-17-9-27l-13-19-7 7-7 6 12 21 11 21H847l24-18c198-151 511-228 775-191 396 55 734 320 879 688 13 34 23 61 22 60-1 0-56-36-121-80zm2-57 4-14-18 4c-9 1-19 9-22 16l-4 14 18-4c9-1 19-9 22-16zm-118-157c7-9 10-18 7-22-8-7-37 15-37 28 0 14 16 11 30-6zm-162-157c14-14 16-28 2-28-5 0-14 9-20 20l-11 20h9c4 0 13-5 20-12zm-164-137c-6-6-24 19-24 34 1 6 7 1 15-9 8-11 12-22 9-25zm-791-51c-6-22-23-27-23-7 0 15 9 27 21 27h7l-5-20zm617-6v-15l-10 6c-5 3-10 13-10 21v15l10-6c6-3 10-13 10-21zm-420-28c0-8-4-18-10-21l-10-6v41h10c6 0 10-6 10-14zm220-8v-23l-10 15c-13 19-13 30 0 30h10v-22z"/></g></g></svg>