<svg xmlns="http://www.w3.org/2000/svg" baseProfile="tiny" version="1.2" viewBox="0 0 200 200"><path fill="#fde6ea" d="M102.7 0c-.2.3-.5.3-.7.1-1.2.3-2.6.3-3.8 0-.2.3-.4.3-.6 0l5.2-.1Z"/><path fill="#eac7d8" d="M.5 102v-4.6c.3 1.4.3 3.1 0 4.6Z"/><path fill="#825ca4" d="M101.5 199.3v.1h-2.8v-.1c.9-.3 1.9-.3 2.8 0Z"/><path fill="#a287bd" d="m98.7 199.3-1.3.1v-.1a1 1 0 0 1 1.3 0Z"/><path fill="#a287bc" d="M102.8 199.3v.1h-1.2c.4-.4.9-.4 1.2-.1Z"/><path fill="#cabbdb" d="m103.6 199.3-.8.1c.3-.4.6-.4.8-.1Z"/><path fill="#cbbddc" d="m97.4 199.3-.8.1c.2-.4.6-.4.8-.1Z"/><path fill="#772e8d" d="M190.4 141.7a92.7 92.7 0 0 1-5.3 9.8 211.4 211.4 0 0 1-125 39.4 90.3 90.3 0 0 1-9.8-5c-.3-.3 0-.4.3-.4a207.6 207.6 0 0 0 139.3-43.9c.2-.2.5-.3.5 0Z"/><path fill="#702e8e" d="M185.1 151.6a119 119 0 0 1-7 10 216.4 216.4 0 0 1-106.3 33.7 116 116 0 0 1-11.7-4.2c0-.2.3-.2.5-.2 2.7-.2 5.8 0 8.6-.1a211 211 0 0 0 107.4-33.5c2.7-1.8 5.3-3.7 8-5.4.1-.1.2-.2.5-.2Z"/><path fill="#7c2d8d" d="m193.1 135.3-2.7 6.4c-.1-.2-.5.2-.6.3l-3.4 2.7a207.6 207.6 0 0 1-135.5 41.2c-.2 0-.7-.1-.6.2l-5.9-3.7c0-.4.3-.4.7-.4 14.3 1.3 29.5.9 44-1.1 9.3-1.3 18.4-3.4 27.5-5.5l.4-.2 13-4.1h.4c8.6-3.5 17.2-7 25.4-11.2 13.1-6.7 25.5-15 36.6-24.3.3-.3.5-.3.7-.1Z"/><path fill="#6e308f" d="M178.1 161.6a91 91 0 0 1-10.8 11.6 221 221 0 0 1-79.7 25.1c0 .2 0 .2-.2.2-5.3-.7-10.4-1.8-15.5-3.3.6-.5 1.5-.3 2.2-.3a217.3 217.3 0 0 0 97.2-29.3c2.1-1.2 4.2-2.7 6.4-3.9l.5-.2Z"/><path fill="#802e8c" d="M196.2 125.8a96 96 0 0 1-3.1 9.5c-.3 0-.6.3-.9.5l-6.5 5.2c-17 13-35.2 22.7-55.3 29.9l.2-.4a79.8 79.8 0 0 0 23.9-16.1h.2l1-.5a205 205 0 0 0 40-28.2c.2-.2.6-.3.6 0Z"/><path fill="#852e8c" d="M198.6 114.4c-.6 4-1.3 7.5-2.4 11.4a210.7 210.7 0 0 1-33 24.2c-2.7 1.6-5.6 3.4-8.5 4.6l.6-.9c3.7-4.1 7.3-8.1 10.3-12.8l.4-.4a202.7 202.7 0 0 0 32.4-26.3l.2.2Z"/><path fill="#673090" d="M167.3 173.2a106 106 0 0 1-13.5 10.5l-2.6 1.6a219.1 219.1 0 0 1-43.4 13.8l-4.1.2h-7.1c-3.1 0-6.2-.3-9.2-.7v-.4c26.9-3 52.7-11.2 76.6-23.5.8-.4 2-1.2 2.8-1.5.2 0 .5-.2.6 0Z"/><path fill="#8b2d8b" d="M199.4 106.8c-.1 2.6-.4 5-.8 7.6-.2 0-.3.1-.4.3l-2.9 3a211.9 211.9 0 0 1-24.4 19.9c-1.3.9-2.9 2.1-4.3 2.9l-.5.2v-.4c1.6-2.7 3.2-5.5 4.6-8.3l.3-.3c1.1-1 2.4-1.9 3.8-2.9 8.7-6.4 16.6-13.8 24-21.6.5-.5.7-.6.8-.2Z"/><path fill="#9d2a89" d="M199.3 90.7h-.2a181.5 181.5 0 0 1-21.2 21.8l-.6.4-.7.4v-1l.8-6 .3-1 .2-.5c7.2-6.5 14-14.1 19.9-21.8.2-.2.4-.4.6-.2l.5 3.2.5 4.8Z"/><path fill="#a32c88" d="m196.7 75.4 1.6 7.3c-.2 0-.4.2-.6.4-1.3 1.4-2.6 3.4-3.9 4.9-4.1 4.9-8.5 9.7-13.1 14.1l-2.9 2.6-.3.4-.1-1.1.1-5.9c0-.4 0-.7.2-1.1l.9-1.2c6.3-6.6 12.5-13.2 17.6-20.7.2-.2.3-.2.4.1Z"/><path fill="#ae2b86" d="M195.1 69.7c-5 7.4-10.9 15.1-17.4 21.3h-.3l-.2-.4-.1-.3-.9-6.2v-.7l.8-1.2c5.4-6.3 10.6-12.6 14.9-19.5.1-.2.3-.4.5-.2 1 2.4 1.8 4.8 2.6 7.3Z"/><path fill="#ba2b84" d="M186.1 49.5c1.3 2.2 2.4 4.4 3.5 6.6v.2c-4.4 7-9.2 14.2-14.8 20.3-.1.2-.3.1-.4 0l-.5-.8-1.8-5-.1-.9v-.6c4.3-5.4 8.5-10.9 11.9-17l1.8-2.8c.2-.2.2-.3.4 0Z"/><path fill="#c12983" d="M182.1 43.3c1.4 2 2.8 4.1 4 6.2-.3 0-.3.2-.4.3-2.3 3.4-4.3 7.1-6.7 10.6-2.1 3.1-4.6 5.9-6.8 8.9l-.3.6-.2-.2-.2-.2-2.6-5.7v-.6l.3-.6a177 177 0 0 0 12.6-19.3h.2Z"/><path fill="#f8bbca" d="m102.7.1 2.2.1c0 .2-.3.2-.5.2a47.6 47.6 0 0 1-64.5 20.5l-.3-.3 1.9-1.4c.3 0 .5 0 .8.2 3.4 1.4 6.5 2.7 10.1 3.5A45.3 45.3 0 0 0 102 0h.7Z"/><path fill="#e9257d" d="m159.2 19.6-.1.6-.2.6a102 102 0 0 1-10 18h-.3l-.9-.6-3.9-2.9-.7-.7c-.1-.1-.2-.2 0-.4 3.9-5.5 6.7-11.5 9.6-17.7l.6-1 5.9 4Z"/><path fill="#b42a85" d="m192.5 62.4-.4.3c-1.4 1.9-2.6 3.9-3.9 5.8-3.7 5.2-7.6 10.2-12 14.8l-.4-.7-1.4-5.2v-.8c.2 0 .4-.2.6-.4 5.5-6 9.9-13 14.3-19.7 0-.1.1-.3.3-.3l2.8 6.3Z"/><path fill="#a72b87" d="m195.1 69.7 1.7 5.7c-.2-.2-.2 0-.3.1l-4 5.4c-4.5 5.7-9.4 11.2-14.6 16.2l-.2-.9-.3-4.4.1-.9a154.8 154.8 0 0 0 15.4-18.2l1.9-2.8c.1-.2.2-.3.4-.3Z"/><path fill="#982c89" d="m199.3 90.7.2 2v1.6l.1 1.6v.3a182.8 182.8 0 0 1-24.1 23.3h-.3v-1.1l.9-4.2c0-.3.2-.6.4-.9 6.8-5.7 13.1-12 18.9-18.6l3.8-4.4.1.5Z"/><path fill="#8f2c8a" d="m173.3 125.5.6-.6c9.4-6.9 17.5-14.9 25.3-23.5.6-.6.5.8.4 1.2v2.6l-.2 1.7c0-.2-.4 0-.4.2-2.4 2.2-4.7 4.9-7.1 7.2a177 177 0 0 1-20 16.7c-.3.2-.7.5-1.1.6v-.8c.6-1.7 1.3-3.3 2.1-4.9l.3-.3Z"/><path fill="#d12580" d="M175.8 35v.5c-1.4 3.2-3.3 6.5-5.2 9.5s-4 6.5-6.3 9.3l-.2.2-.3.1c-.1 0-.2 0-.3-.2l-.2-.2-2.7-3.5-.1-.3v-.3l.2-.6c4.2-6 7.9-12.5 11.1-19h.2l3.8 4.3Z"/><path fill="#c82a82" d="m179.1 39 3 4.2-3.4 5.8c-3 4.9-6.2 9.6-9.8 14.1l-.2-.1a52 52 0 0 1-2.3-4v-.3l.7-1.2c4.2-6 8.3-12 11.5-18.4.1-.2.2-.3.4-.1Z"/><path fill="#da277e" d="M169.3 28.1c-3 6.8-7 13.1-11.1 19.3h-.4c-.2 0-2.9-2.9-3-3.2V44l.5-1.1a120.9 120.9 0 0 0 10.4-18.1l3.6 3.3Z"/><path fill="#932c89" d="m199.6 95.9.1 6.2-.1.6c0-.4.2-1.4-.3-1.1a174.2 174.2 0 0 1-26 24c-.4-.1-.1-.7.2-.6a157.8 157.8 0 0 0 25.5-23.7c.4-.2.5-.4.4-.9a179.2 179.2 0 0 1-25.6 23.5c.1-1.5.6-3.1 1.4-4.4a187 187 0 0 0 23.6-22.7c.2-.2.5-.6.8-.7Z"/><path fill="#f8b7c7" d="M104.8.2h.4l.1.3c-.1.8-1.7 3.3-2.2 4.1A48.2 48.2 0 0 1 79.7 24a160.9 160.9 0 0 0-8.3 3.1l-1 .2a49.7 49.7 0 0 1-32.5-5.5v-.2l1.3-1A47.6 47.6 0 0 0 103.9.3h.6Z"/><path fill="#df287e" d="m165.7 24.7-3.1 6.2a106 106 0 0 1-7.9 12.9h-.4l-2.5-2.4V41l.1-.6a125 125 0 0 0 10.4-18.5l3.3 2.8Z"/><path fill="#e3267e" d="M162.4 22a99.4 99.4 0 0 1-10.7 19.1c-.8-.5-2.3-1.4-2.8-2.2l-.2-.3c.2 0 .2-.1.3-.3 4.1-5.9 7.4-12.2 10.2-18.8l3.1 2.4Z"/><path fill="#d52880" d="m169.3 28.1 2.7 2.7c-.2 0-.2.2-.3.4l-3.1 6.1c-2.4 4.5-5.3 8.8-8.2 13-1-.7-1.9-1.7-2.4-2.8l.2-.5c1.9-3.2 4.1-6.1 6-9.4 1.7-3 3.1-6.2 4.8-9.2 0-.1 0-.3.3-.3Z"/><path fill="#f07399" d="m133.4 5.8 3.3 1.2v.7A88 88 0 0 1 126.6 26a9.5 9.5 0 0 1-3.7-1.2 91.4 91.4 0 0 0 10.3-19.1h.4Z"/><path fill="#cc2981" d="M178.3 38c-3.3 6.3-7.1 13.1-11.6 18.7l-1 .9s-.2 0-.3-.2c-.3-.2-1.6-2.2-1.7-2.5v-.3c.9-1 1.7-2.2 2.5-3.3a113.7 113.7 0 0 0 9.6-16.4l2.5 3Z"/><path fill="#f6a9bd" d="M113.2.9v.3a53.3 53.3 0 0 1-15.1 20.4c0 .3-1.6.4-1.7.3l-.2-.2c-.2.3-1.5.3-1.7 0 0 .3-1 .4-1.2.1A52.6 52.6 0 0 0 109.9 1l.3-.3c1 0 1.9.2 2.9.3Z"/><path fill="#f7b0c2" d="m108 .4 2.3.2-1.7 3.6c-3.9 7.2-8.6 12-14.9 17.1-.1.1-.3.1-.3.4l-.7.3-4.4.6h-.7c0-.2.2-.3.3-.5A50.3 50.3 0 0 0 107.4.5h.6Z"/><path fill="#f27b9e" d="m130.6 4.9 2.8.9c-.2 0-.2.1-.3.3-2.3 5.1-4 9.2-7.1 14-1 1.6-2.2 3.1-3.2 4.8-1 0-2.1-.3-3-.8-.2 0-.3-.2-.2-.3A75 75 0 0 0 130 5.3c.1-.3.2-.4.6-.4Z"/><path fill="#f388a6" d="M127.9 4v.6a72.5 72.5 0 0 1-10.7 18.2l-.4.3c-1 .1-2.2-.1-3.1-.6v-.2a80 80 0 0 0 11.2-19s.2-.1.4 0l2.7.7Z"/><path fill="#ee337f" d="m151 14.1 2.4 1.4a122 122 0 0 1-6.4 13.1l-3.5 5.5-.2.5c-.9-.2-1.8-.8-2.4-1.5l-.2-.2a110 110 0 0 0 10-18.9h.3v.1Z"/><path fill="#f280a1" d="M130.6 4.9c-.2 0-.3.1-.4.3-.8 1.4-1.4 3.4-2.1 4.9a67.3 67.3 0 0 1-4.6 8.3l-3.7 5.2c0 .1-.2.2 0 .4-1 0-2.1-.2-3-.7a68 68 0 0 0 9.1-14.5L128 4l2.7.8Z"/><path fill="#f493ad" d="m123.1 2.8-3 6.6a64 64 0 0 1-8.7 12.8h-.3c-.9.3-2 .2-2.8-.2-.3 0-.5-.2-.3-.5A61.3 61.3 0 0 0 119.8 3l.5-.8 2.7.6Z"/><path fill="#f05a8c" d="M145 10.8v.6l-.1.6a85.8 85.8 0 0 1-9 16.9l-.4.5-.4.4c-.9 0-1.9-.5-2.5-1.1l.4-1c3.5-5.7 6.9-11.2 9.3-17.5l.3-.4 2.5 1.1Z"/><path fill="#ef4f87" d="M147.4 12v.6a86.5 86.5 0 0 1-9.7 17.9l-.4.4c-.8 0-1.7-.6-2.3-1.2 4-6 7.4-12.3 10-19l2.4 1.2Z"/><path fill="#f16a94" d="M139 8v.6l-.1.6a87.4 87.4 0 0 1-9.7 17.8h-.2c-.8.1-1.8-.3-2.4-.8-.1-.2 0-.2 0-.4 2.8-4.4 5.5-8.2 7.7-13l2.5-5.7 2.3.9Z"/><path fill="#f7b3c4" d="M106.7.3h1.3-.4a50.5 50.5 0 0 1-16.1 19.4l-3.9 2.6c-.2.1-.4.3-.7.3l-4 .8h-.8v-.3A49.8 49.8 0 0 0 105.5.3a1 1 0 0 1 1.1-.1Z"/><path fill="#ef4884" d="M149.4 13.1a99.6 99.6 0 0 1-9.7 18.6l-.4.4a3 3 0 0 1-2.1-1.1 116 116 0 0 0 7.9-13.7c.8-1.7 1.4-3.5 2.3-5.2l2.1 1.1Z"/><path fill="#f48ea9" d="m123.1 2.8 2.1.5c-.2 0-.2.2-.3.4-2.1 4.6-4.1 9.2-7.1 13.3l-4.2 5.7c-.8.2-1.8 0-2.5-.4l3.7-4.7c3.5-4.4 5.7-9.4 8-14.5 0-.2 0-.3.3-.3Z"/><path fill="#f6a3b8" d="M115.2 1.2v.5l-.1.5a61.5 61.5 0 0 1-13.6 19.1l-.4.2-2.5.1c0 .2-.2.2-.3 0 .3-.6 1.1-1.1 1.6-1.5a57.2 57.2 0 0 0 13.4-19c.7 0 1.3.2 2 .3Z"/><path fill="#f6a0b7" d="M117.1 1.5a61.9 61.9 0 0 1-13.2 19.8c.4 0 .6 0 .5.3-.9.3-1.9.2-2.8-.1l-.6-.1c6-5.7 10.9-12.5 14.2-20.2l2 .3Z"/><path fill="#f59bb2" d="m117.1 1.5 1.7.3v.5l-.1.5a65 65 0 0 1-12.5 18.8c-.5.4-1.2.4-1.7 0 0-.2-1 0-.8-.3 5.2-5.1 9.3-11 12.4-17.6l.8-1.9c0-.2 0-.4.3-.3Z"/><path fill="#f597b0" d="M120.4 2.2a63.7 63.7 0 0 1-10.9 18c-.3.4-1.1 1.1-1.3 1.5-.1.2 0 .2.2.3-.2.3-.9.2-1-.1h-.6c-.1.2-.5.2-.6-.1-.2-.2-.3 0-.1-.3.2-.5 1-1.1 1.4-1.5a62.2 62.2 0 0 0 11.4-18.1l1.7.3Z"/><path fill="#ee3e82" d="m149.4 13.1 1.6.9c-.3 0-.2.1-.3.3-2 4.6-4 8.9-6.5 13.2l-3.1 4.9-.2.5c-.6 0-1.2-.4-1.6-.9.8-1.5 1.8-2.9 2.7-4.4 2.9-4.7 4.9-9.3 7.1-14.3 0-.2 0-.3.3-.3Z"/><path fill="#6e2d8c" d="M151.2 185.2c-1.3.9-2.7 1.7-4.1 2.4l-4.2 2.1c-8.2 3.3-17.4 6.2-26.1 8.2h-.1c-3 .6-6 1-9 1.2l.6-.3c1.6-.5 3.4-.7 5-1.1 12.7-3 25.9-7.2 37.9-12.5Z"/><path fill="#f06591" d="M140.1 8.5v1a76.3 76.3 0 0 1-9.2 17.4l-.3.4c-.1.2-.2.2-.4.3-.5 0-.9 0-1.2-.5 0-.2 0-.3.2-.5.9-1.6 2.2-3.2 3.2-4.8 2.7-4.4 4.9-9 6.8-13.8l1.1.5Z"/><path fill="#f05f8e" d="M142.5 9.6c-2.5 6.7-6 13-10 19-.4 0-.7 0-.9-.4v-.6c4-5.8 7.3-12.1 9.7-18.4h.2l.9.5Z"/><path fill="#f06591" d="M141 8.9v.6l-.1.5c-2.2 6-5.8 12.4-9.4 17.6l-.4.4c-.4.1-.8 0-.9-.4 4-6 7.7-12.2 10-19l.9.4Z"/><path fill="#c82a82" d="m178.3 38 .4.6-.1.6-.2.5c-3.1 5.9-7.1 12.6-11.3 17.8l-.9.8c-.3 0-.6-.4-.4-.6 4.7-6.1 8.6-12.6 12.2-19.4 0-.2 0-.3.3-.3Z"/><path fill="#f8b7c7" d="M106.7.3h-.8a51.5 51.5 0 0 1-21.6 22.1c-.7.4-1.5.6-2.1 1.1-.6.5-1.6.8-2.3.6-.3 0-.2 0 0-.2 1.6-1 3.8-1.7 5.5-2.6A48.1 48.1 0 0 0 104 3c.5-.9 1-1.8 1.3-2.8h1.4Z"/><path fill="#732c88" d="M142.9 189.7a95.3 95.3 0 0 1-26.2 8.3c0-.3.2-.2.3-.2 6.9-1.8 13.7-3.8 20.4-6.2l5-1.9c.2 0 .3-.2.4 0Z"/><path fill="#f05f8e" d="m141.6 9.1-2.4 5.8c-1.5 2.9-3 5.9-4.7 8.7-.9 1.5-2.1 3-2.9 4.6-.2.2-.5.1-.5-.2.8-1.5 1.9-2.9 2.8-4.3 2.9-4.6 5.4-9.6 7.3-14.7l.5.2Z"/><path fill="#cc2981" d="M179.1 39c-.2 0-.2.2-.3.3-1 1.6-1.8 3.5-2.8 5.1-2.9 5-6.1 9.8-9.5 14.3-.3 0-.4-.2-.3-.5 4.9-6.1 8.9-12.8 12.5-19.7l.4.4Z"/><path fill="#f8b7c7" d="M105.1.2c-.1.5-.4 1.2-.8 1.5l.6-1.5h.2Z"/><path fill="#f9c3d0" d="M101.9.1a45.4 45.4 0 0 1-60.6 19.2l3.1-2.2.8.1A41.8 41.8 0 0 0 97.8.2h.2l3.8-.1Z"/><path fill="#c52982" d="m22.6 104.9.2.3.7 6.6v.4c-.5 0-1 0-1.5-.2-7.2-1.9-14.4-5.1-21.2-8.3 0 .2 0 .4-.2.5-.2-.7-.1-1.5-.1-2.3v-5.5c0-.4 0-.6.3-.7 6.9 3.5 14.1 6.7 21.4 8.8l.4.3Z"/><path fill="#dd277e" d="M24.1 82.6v.9l-.8 4.9-.3.9h-.3a102.8 102.8 0 0 1-19-8.7L2.4 80l1.8-7.2.2-.3a114 114 0 0 0 19.3 9.3c.4.1.5.2.4.7Z"/><path fill="#e9257d" d="m8.2 61.4 1.2.5c5.9 3.4 11.8 6.8 18.2 9v1l-1.8 5.5-.1.2-.2.2h-.6l-.5-.1a98 98 0 0 1-18.6-9.3v-.3l2.5-6.5Z"/><path fill="#d12580" d="m22.6 93.4.1 1-.1 4.1-.2 1h-.6a139.4 139.4 0 0 1-20.3-8.9l-.5-.4.7-6c0-.2.4-.3.5-.2 6.5 3.4 13 6.8 19.9 9l.5.3Z"/><path fill="#cc2981" d="M22.4 99.5c.3 1.8.4 3.6.2 5.4-1.2-.2-2.3-.6-3.5-1C12.8 101.7 6.7 99.1.8 96l-.3.5c0-2.1.2-4.2.4-6.2a148.2 148.2 0 0 0 21.4 9.3Z"/><path fill="#fbd6de" d="M91.7.4v.4a37.3 37.3 0 0 1-41.5 13v-.2l3.3-1.9h.2A34.1 34.1 0 0 0 87.9.8a49 49 0 0 1 3.8-.4Z"/><path fill="#facad5" d="M97.5.1h.6c0 .2 0 .3-.2.5-.4.8-1.2 1.9-1.7 2.6A42.3 42.3 0 0 1 44.5 17l1.9-1.2h.7A40.4 40.4 0 0 0 95.8.1h.9l.8-.1Z"/><path fill="#e3267e" d="M5.7 67.9c0 .2.1.2.2.3 6 3.9 12.7 7 19.4 9.5v.3c0 .3-.9 4.1-1.1 4.4l-.2.2c0-.2-.1-.3-.3-.4-1.1-.6-2.8-1.1-4-1.6a121 121 0 0 1-15.2-7.8c-.1 0-.2-.2-.4 0l1.5-5Z"/><path fill="#facdd8" d="m96.7.1-.8.2a40.2 40.2 0 0 1-49.5 15.5l2-1.2h.2C64.4 20.9 84 14.8 93.5.4l.9-.2 2.3-.1Z"/><path fill="#d72780" d="M23 89.3a9 9 0 0 1-.4 4 109.5 109.5 0 0 1-20.4-9.2h-.5l.7-4.1h.5c1.2.5 2.9 1.7 4.2 2.4 3.8 2 7.9 3.9 12 5.5 1.3.5 2.6 1.1 4 1.4Z"/><path fill="#fcdce3" d="M87.8.8c0 .2 0 .3-.2.5a34.5 34.5 0 0 1-32.6 11c-.5-.1-1.3-.2-1.7-.6l3.3-1.7h.7a31.8 31.8 0 0 0 26.3-8.5l.4-.2 3.8-.5Z"/><path fill="#f597b0" d="m52 38.2-.1.3c-.2.4-2.6 2.3-3 2.5h-.3a63 63 0 0 1-21.3-8.8l-.2-.3 2.5-2.6h.3c6.6 4 14.3 7.1 22 8.3.3 0 .3.2.1.5Z"/><path fill="#f07399" d="M38.7 51.6v.2c0 .3-1.4 2-1.8 2.4l-.4.2h-1a79.7 79.7 0 0 1-17.8-8.8l-.4-.3-.4-.4 2.1-3 .5.2c6 3.7 12.4 7 19 9.1.2 0 .3.2.1.5Z"/><path fill="#fad0db" d="M94.4.2c-.2.2-.5 0-.7.2l-.4.7a38.5 38.5 0 0 1-45.1 13.5l1.8-1A37.1 37.1 0 0 0 90.1 2.5c.5-.6 1.1-1.3 1.4-2l2.7-.2Z"/><path fill="#f27b9e" d="M40.9 48.9a7 7 0 0 1-1.9 2.5l-.3.1c0-.3-.2-.3-.3-.3l-4.1-1.4a88.2 88.2 0 0 1-15.2-8l1.8-2.4.9.3c6.1 3.5 12 6.9 18.8 8.8l.4.3Z"/><path fill="#ee337f" d="M28.7 68.4c0 .6-.6 2.3-.9 2.7l-.2.2c0-.3-.1-.2-.3-.3-6.7-2.6-13-5.8-19-9.6l1.1-2.7h.6c5.5 3.7 11.5 6.4 17.7 9l1.1.6Z"/><path fill="#f388a6" d="M24.2 35.2c.3 0 .7.2 1 .4 3.9 2.2 7.4 4.3 11.6 6 2.6 1.1 5.3 1.9 8 2.6.3 0 .2.2 0 .4-.5.9-1.2 1.7-2.1 2.2h-.3A69.8 69.8 0 0 1 23.1 38l-.4-.3c-.2-.1-.2-.2-.3-.4l1.8-2.1Z"/><path fill="#f6a9bd" d="M60.4 32.4c-.9.9-2.3 1.7-3.5 2.2-8.4-.6-17-3.5-24.2-8l.1-.3 1.7-1.5A61.2 61.2 0 0 0 46.8 30c4.5 1.3 8.9 1.9 13.4 2.2l.2.3Z"/><path fill="#f280a1" d="M42.7 46.8c-.3.8-1.1 1.7-1.9 2.1-7.2-2-13.9-5.4-20.1-9.4l1.7-2.2c4.5 3.1 9.4 5.6 14.5 7.5l5.8 2Z"/><path fill="#f5a0b7" d="m54.6 36.1-.2.4c-.7.6-1.6 1.4-2.5 1.6 0-.3-.2-.3-.3-.3-.6-.2-1.3-.2-2-.3-6-1.3-11.9-3.5-17.3-6.5-1-.5-1.8-1.3-2.9-1.6l1.8-1.7h.5a57.5 57.5 0 0 0 22.3 8l.7.4Z"/><path fill="#f0598c" d="M32.8 60.2c-.1.8-.7 1.9-1.4 2.5A89.6 89.6 0 0 1 12.3 53v-.2l1.2-2.4 1 .4a90.9 90.9 0 0 0 17.6 8.9l.6.5Z"/><path fill="#f491ab" d="M48.5 41.1c-.5.8-1.3 1.6-2.2 2-7-1.7-13.9-4.7-20.1-8.6l-.4-.3-.4-.4 1.5-1.8 5.3 3.1A75 75 0 0 0 48 40.9c.2 0 .3 0 .4.3Z"/><path fill="#f16a94" d="M36.5 54.5c-.2.8-.8 1.8-1.5 2.3h-.2a82.2 82.2 0 0 1-18.3-9.1l-.4-.3-.4-.4 1.3-2.1c6.1 4 12.6 7.4 19.6 9.6Z"/><path fill="#ef4f88" d="M12.2 52.8c.2 0 .3 0 .5.2l4.3 2.7c4.5 2.7 9.3 4.9 14.2 6.7l.2.4c0 .7-.5 1.5-1 2h-.6l-.6-.1a90.1 90.1 0 0 1-17.8-9l-.4-.5 1.1-2.2Z"/><path fill="#fce1e7" d="M84 1.4A31.8 31.8 0 0 1 56.7 10l3.5-1.7h.9c6.5.1 13.3-2 18.4-6l.7-.3 3.8-.7Z"/><path fill="#f06591" d="M35 56.7c0 .7-.6 1.6-1.2 2h-.6l-.5-.1a95.9 95.9 0 0 1-17.8-9l-.2-.2-.2-.3 1.2-2.1a89.7 89.7 0 0 0 16.2 8.6l2.5.9c.2 0 .5.1.6.4Z"/><path fill="#ef4884" d="M30.4 64.7c0 .8-.5 1.6-1 2.2h-.5l-.4-.1c-6.2-2.4-12-5.3-17.6-8.9l-.4-.3-.4-.4 1-2.1 4.8 2.9c4.6 2.7 9.5 5 14.6 6.8Z"/><path fill="#f7b2c4" d="M70.6 27.3c-1.4.9-3 1.6-4.7 2.1a49.4 49.4 0 0 1-29-6.6l1.3-1.1c0 .2.2.2.4.3a49.4 49.4 0 0 0 28.2 5.7c1 0 1.9-.3 2.9-.4l.9.1Z"/><path fill="#f6a4b9" d="M32.8 26.3c0 .3.1.2.3.3 6 3.7 12.9 6.2 19.9 7.3l3.5.4c.2 0 .4 0 .5.2-.5.7-1.5 1.4-2.3 1.5l-6.6-1.3c-4.7-1.1-9.4-3-13.6-5.3-1.1-.6-2.1-1.3-3.2-1.8l1.5-1.5Z"/><path fill="#f7adc0" d="m63 30.9-.2.4-2 1.2h-.4c-1-.3-2.3-.2-3.4-.3a53 53 0 0 1-22.6-7.4l1.2-1h.3c4 2.1 8.1 3.9 12.5 5.1 4.8 1.3 9.6 1.6 14.3 1.9v.2h.1Z"/><path fill="#f48ea9" d="M25.5 33.8a69.3 69.3 0 0 0 17.2 8.1l3.4.9c.2 0 .3 0 .3.3-.2.7-.9 1.3-1.5 1.5 0-.3-.1-.2-.3-.3l-2.6-.7c-6.3-2-12.2-4.8-17.7-8.4l1.2-1.4Z"/><path fill="#f7b0c2" d="m36.8 22.8 4.2 2.1a50.8 50.8 0 0 0 24.6 4.4c.2 0 .4-.2.3.2-.8.7-1.9 1.3-2.9 1.5l-2.3-.2c-7.2 0-14.5-1.8-21-4.9-1.4-.6-2.6-1.4-4-2.1l1.1-.9Z"/><path fill="#ee3e82" d="M29.4 66.9c.1.4-.3 1.4-.7 1.6-5.1-1.9-10.1-4.3-14.9-7-1.5-.9-2.9-1.9-4.5-2.7l.7-1.7c4.1 2.6 8.3 5 12.8 7.1l6.6 2.8Z"/><path fill="#f05f8e" d="M33.7 58.7c0 .5-.4 1.3-.9 1.5-1.9-.8-3.9-1.5-5.8-2.4a89.1 89.1 0 0 1-13.5-7.5l.8-1.5 5.1 3.1c4.5 2.6 9.3 4.8 14.2 6.6Z"/><path fill="#fde6eb" d="m80.2 2.1-1 .9a30 30 0 0 1-19 5.4 99 99 0 0 1 20-6.3Z"/><path fill="#802e8c" d="M116.6 175.3a203.9 203.9 0 0 1-66.9 7.2c-1.6 0-3.3-.4-4.9-.4-.2 0-.3 0-.5.2-3-2-5.5-3.9-8.2-6.2 0-.2.2-.3.5-.2a196 196 0 0 0 49 .1h2.6a82.3 82.3 0 0 0 27.9-.8h.4Z"/><path fill="#852e8c" d="M72.4 172a104.7 104.7 0 0 0 14.3 3.8l.5.2a196.2 196.2 0 0 1-50.2.1h-.8a103 103 0 0 1-6.9-6.3c-.1-.4.2-.5 1-.3 13.4 2.3 27.7 3.1 41.4 2.4h.8v.1Z"/><path fill="#9b2c89" d="m41.3 150.1.4.2c2.5 2.7 5.2 5.4 8 7.9l.2.4h-1.6c-10.9-.7-21.8-2.7-32.1-5.4-2-3.1-3.7-6.2-5.4-9.5-.1-.3 0-.4.3-.3 4.1 1.2 8.2 2.4 12.4 3.3 5.5 1.2 10.8 2 16.3 2.9.5 0 1 .2 1.5.4Z"/><path fill="#a12c88" d="m35.8 143 .3.2.2.2a249.5 249.5 0 0 0 4.9 6.4l.1.4a156 156 0 0 1-23.6-4.5l-6.4-1.9c-.1 0-.4-.2-.5 0a71.7 71.7 0 0 1-3.5-8l1.5.3a182 182 0 0 0 26.4 6.6l.7.2Z"/><path fill="#922c89" d="M49.9 158.6h.3l.3.1 6 4.6.2.2.2.3-.2.2a192.9 192.9 0 0 1-36.1-4.6l-4.4-6.2c.1-.2.4 0 .5 0l9 2.1c8 1.6 16.1 2.7 24.2 3.2Z"/><path fill="#8d2d8a" d="M56.8 163.9h.4l5.9 3.6.3.3c.2.2 0 .3-.3.3-12.8.1-25.8-1.2-38.4-3.7l-.4-.2c-1.4-1.6-2.5-3-3.7-4.7 0-.2.3 0 .5 0 11.3 2.3 22.2 4.1 33.8 4.5l2-.1Z"/><path fill="#b62b85" d="m25.7 121.6.2.3.2.3 1.5 4.4v.8h-1.3a149 149 0 0 1-23.7-7.7v-.2c-.6-2.1-.9-4.1-1.2-6.2l.2-.2a154 154 0 0 0 23.7 8.2l.3.2Z"/><path fill="#a72b87" d="m32.6 137.8.6.6 2.4 3.9.2.7c-9.7-1.4-19.3-3.9-28.6-7.1l-2-5.6 1.5.3c8.3 2.8 16.5 5.4 25.1 6.9l.7.3Z"/><path fill="#ac2c86" d="m29.9 132.6.6.7 1.9 3.6.3.9a160 160 0 0 1-27.3-7.6l-1.5-5.4c0-.3.2-.2.4-.2a155 155 0 0 0 25.7 7.9Z"/><path fill="#b12986" d="M27.6 127.5c.2.2.4.3.5.6l1.7 3.8v.7a157 157 0 0 1-19-5.2l-6.6-2.5c-.2 0-.3-.2-.6-.1-.5-1.8-.9-3.5-1.2-5.3l.5.1 6.5 2.6c5.9 2.1 11.9 4 18.1 5.3Z"/><path fill="#bf2882" d="m23.4 112.2.2.2.1.2.8 4v.6l-1.2-.1C15.7 115.3 8 112 1 108.8l-.2-2.7v-.8l-.1-1v-.7h.2c7.2 3.6 14.8 6.5 22.5 8.7Z"/><path fill="#ba2b84" d="m24.4 117.2.2.3c.3.6 1 3 1 3.7v.4c-1.1-.1-2.2-.5-3.2-.8-4.4-1.2-8.7-2.7-12.9-4.2l-8.1-3.3-.5-4.6c.1-.2.3 0 .5 0l5.7 2.5c5.6 2.3 11.5 4.4 17.4 5.8Z"/><path fill="#892c8b" d="m63.3 167.8.7.1 3.5 1.6.3.2.3.3c0 .4-.8.4-1.1.4a210 210 0 0 1-40.2-3.3l-2.6-3c0-.2.3 0 .5 0 12.3 2.5 25.5 3.9 38.1 3.7l.6-.1Z"/><path fill="#892d8b" d="M68.1 170.1h.4c.6 0 3.2 1.2 3.7 1.6l.3.3-1.7.2c-11.4.4-22.8 0-34-1.5-2.2-.3-4.9-1-7-1.1-.2 0-.3 0-.4.2l-2.5-2.6c2.5.2 4.9.8 7.4 1.1a178 178 0 0 0 33.9 1.8Z"/><path fill="#c52982" d="M.7 106.1c-.2-.2-.1-.6-.1-.8.2.2.1.6.1.8Z"/><path fill="#fff" d="M98.2 21.5h3.4a26.2 26.2 0 0 1 4.5.2h1.2l1 .2 2.8.3 2.5.4 3.1.6 3 .7 3 .8 3.7 1.2 2.4.9 1.2.5.9.4.5.2.9.4 2.5 1.1 2.3 1.2 2.1 1.1 1.6.9 2.4 1.5 5.5 4 3 2.5a82.3 82.3 0 0 1 6.3 6.3l2.4 2.8c1.1 1.4 2.4 3 3.4 4.5l2 3 .4.6.3.5a95.4 95.4 0 0 1 5.6 11 89.7 89.7 0 0 1 4.2 13.4 63.2 63.2 0 0 1 1.5 13.8c0 2.7 0 5.4-.2 8.1s-.6 5.4-1 8.1c-.4 2-.8 4.1-1.4 6.1a56.6 56.6 0 0 1-1.7 5.4c0 .2-.3.4-.2.6l-2.5 6a78.4 78.4 0 0 1-16.2 23.1c-.3.1-2.2 2.1-2.7 2.5-5.6 5-11.9 9.2-18.7 12.5-1 .5-2 .8-2.9 1.4-4.8 1.7-8.9 3-13.8 4.4l-5.1.9a78.5 78.5 0 0 1-43.3-6.1c-1.6-.7-3.2-1.4-4.8-2.3a69.8 69.8 0 0 1-13.4-9.2 86.3 86.3 0 0 1-14.1-15.6l-3.2-5.2c-1-1.8-1.9-3.4-2.7-5.2l-2.3-5.1c-.8-1.9-1.4-3.9-2-5.9l-1.2-4.4a62.6 62.6 0 0 1-1.8-12.3l-.2-5.4c0-2 0-4.1.2-6.1l.4-4 1.1-6.7 1.2-4.9a71 71 0 0 1 3.3-9.3l.7-1.6 1-2.2 1-2 1.4-2.5.9-1.5 1.2-2 1.5-2.3 2.2-2.9 2.2-2.7a36 36 0 0 1 1.9-2.1l2.1-2.2 1.5-1.5 2.2-2 3.4-2.9 2.7-2.1 2.3-1.5 3.5-2.2 2.6-1.5 2.9-1.5 4.7-2.1c3-1.2 6.2-2.4 9.3-3.2.8-.2 1.5-.5 2.3-.6 1.8-.4 3.7-.8 5.5-1s3.9-.6 5.8-.7l1.2-.1h1.7l1.9-.1Z"/><path fill="#8f2c8a" d="M173.8 123.8c7.4-5.7 14.4-12 20.9-18.8l4.5-4.9c.1-.1.1-.5.4-.3v1.1l-.4.3a164.7 164.7 0 0 1-20.9 20c-1.2 1-3 2.6-4.3 3.4l-.5.2.3-1Z"/><path fill="#f8b7c7" d="m87.1 19.9 4.7-3.3 2.1-1.9.4-.2c.1.1-.3.5-.4.6-.7.6-1.6 1.4-2.4 1.9l-3.1 2.2c-.4.2-.8.6-1.2.6Zm7.5-5.6c.1-.3 2.8-3.1 2.9-2.9l-.2.4a25 25 0 0 1-2.3 2.3l-.4.2Zm7.4-8.7 2.2-3.6c0 .4-.3.8-.5 1.2-.5.8-1 1.7-1.6 2.4Zm-4.3 5.5.2-.4L99 9.6c.7-.8 1.2-1.8 2-2.6 0 .2 0 .3-.2.4l-1.9 2.4c-.1.1-1.1 1.3-1.2 1.2Zm-11.1 9.1c-.1.3-.4.4-.7.4l.7-.4Zm14.7-13.6c0-.2.2-.5.4-.6 0 .2-.2.5-.4.6Z"/><path fill="#f6a9bd" d="m101 21.4.6.1h-3.1c.8-.2 1.7-.1 2.5-.1Z"/><path fill="#f05f8e" d="M140 14.3v-.5l1.9-4.2c-.4 1.6-1.3 3.1-1.9 4.7Z"/><path fill="#932c89" d="M170 122.2a69.5 69.5 0 0 1-4 9.8 184.3 184.3 0 0 1-87.6 31.3c-4 .4-7.9.5-11.8.6l-1.4.1a65 65 0 0 1-9-5.7c-.2-.2 0-.3.3-.3a180.3 180.3 0 0 0 113.7-35.9Z"/><path fill="#9e2b89" d="M131.5 135.5h.2c.2.5.5 1.6.3 2v2.1l-.7.4a174 174 0 0 1-74.6 14.2h-.4l-.4-.1v-.2l1.3-1.7-.5-.4c-.2.1-1.7 1.9-1.6 2.2h-.2c-1.4.2-2.8.2-4.2 0a70 70 0 0 1-7.5-7.9v-.2a173.2 173.2 0 0 0 72.5-7.9c.5-.2 1.1-.2 1.6-.3h.3c1.6.3 3.4.7 4.9 1.4 1 1.2 1.9 1.2 3.4 1l.6-2.3h.3c-.2-.4-.2-.5 0-.5l4.4-1.8h.2v.1Z"/><path fill="#ae2b86" d="M117.9 123.5c.4.1.5.9.5 1.3v4.5l-2.6 2.1-.5.2a159.6 159.6 0 0 1-76.7 7.4c-.2 0-.3 0-.5-.2a66.5 66.5 0 0 1-4.1-7.4c-.1-.3 0-.3.3-.3l2.5.4.3.2c.2 0 .3 0 .4.2.3-.2.5-.2.7 0h1.5a156.7 156.7 0 0 0 77.4-8.5c.2-.1.5 0 .8 0Z"/><path fill="#a62b87" d="M115.3 131.6v.3l-1.1 1.2 3.4 4.2v.2c-23.5 8.3-48.5 11-73.3 8.5h-.9a74 74 0 0 1-5.3-7.2c0-.2.3 0 .5 0a163 163 0 0 0 71.8-5.7l4.4-1.5c.1 0 .4-.2.5 0Z"/><path fill="#c42982" d="M29.5 107.2h1v.2c15.1 3.5 30.9 4.7 46.4 2.9 4.9-.6 9.5-1.5 14.3-2.6l1.2-.1c0-.2.1-.3.3-.2 2.1.3 4.2.3 6.4.3.4 0 1.4 2.4 1.5 2.9l2.1.9v.2l-.6.3a138.1 138.1 0 0 1-74.1 1.9v-.2c-.5-1.9-1.3-5-1.2-6.8v-.5l2.4.5.1.3Z"/><path fill="#b42a85" d="M116 118.3c.2-.1.9.4.9.6.5 1.4.9 3.2.9 4.6-1.6.4-3.1 1.1-4.7 1.7-23.9 8.4-50 10.9-75.1 6.8 0-.2 0-.3.2-.4l1.3-.6-.3-.6-2.2 1.2v.3l-2.6-.4h-.5l-2.7-6.2v-.2c27.8 5.7 57.6 3.5 84-6.7h.7Z"/><path fill="#bf2882" d="m111.1 115-.6.4-.7.3a143.8 143.8 0 0 1-64.4 7.2c-3.1-.3-6.1-.8-9.1-1.3-1-.2-2.1-.3-3.1-.6l-.2-.1-.2-.2.2-.3 1.8-.6v-.6l-2.4.7v.7s0 .2-.2.2l-2.4-.4a71.9 71.9 0 0 1-1.7-6.6h.5a145 145 0 0 0 45.5 3.6 129 129 0 0 0 28.8-5.7h.3a55.7 55.7 0 0 1 7.9 3.2l.2.3Z"/><path fill="#992c8a" d="m171.5 117.2-1.4 5-6.3 4.4A180.1 180.1 0 0 1 72.1 158c-5.1.3-10.3.1-15.4.2l-.6.1c-1.8-1.4-3.6-2.8-5.3-4.4.1-.2.2-.1.4-.1 1.3 0 2.7.2 4.1.1l.7.1 7.5.1a170 170 0 0 0 68.5-14.6l.1 2.2h.2l.8.5a12 12 0 0 1 2.4-1.5l2.6-.9c1.9-.7 2-1 2.3-3.1l.2-.2 1.2-.8c4.7-2.5 9.1-4.9 13.6-7.7 5.6-3.6 10.8-7.3 15.8-11.1h.2v.1Z"/><path fill="#8d2d8a" d="M166 132a62.5 62.5 0 0 1-4.6 7.9 190.8 190.8 0 0 1-86.7 27.9l-1.6.1a85 85 0 0 1-8.1-3.8c0-.3.5-.3.7-.3l5.3-.1c31-1.6 61.7-11.1 88-27.4 2.1-1.3 4.3-3.1 6.4-4.2.2-.1.4-.4.6 0Z"/><path fill="#b82a83" d="M116 118.3c-1.5.4-2.9 1-4.4 1.6a149.7 149.7 0 0 1-79.9 5.4c-.1 0-.4-.2-.5 0l-1.8-5.3 2.8.5h.5a147.5 147.5 0 0 0 78.3-5.6h.3c1.6.8 3.1 1.9 4.5 3v.3Z"/><path fill="#892d8b" d="M161.4 139.9a81.1 81.1 0 0 1-7.2 9.2l-.7.5c-6.8 3.7-13.7 6.9-20.9 9.6l-.9.2h-.2c-.2-.8-1.2-.5-.6.2v.2l-.4.2a130 130 0 0 1-9.9 3.5h-1.3l-.2.4a95.2 95.2 0 0 1-10.8 2.9h-.7c-.2 0-.3-.3-.3-.7h-.5c0 .4 0 .8-.2 1l-.7.3-.7.2c-6.7 1.5-13.6 2.8-20.3 3.4a76 76 0 0 1-11.5-3.4c0-.5 1.2-.3 1.6-.3 28.1-2.1 55-9.9 79.6-23.7l6.6-3.9c.1 0 .3-.3.4 0Z"/><path fill="#e9257d" d="m140.8 38 5.5 4v.3c0 .4-1.8 2.6-2.1 2.7h-.2a.9.9 0 0 1-.7-.4l-1.6 1.9c.4.2.5.4.4.6 0 .2-.2.4-.3.5l-.4.5a102.9 102.9 0 0 1-25.5 21.2l-.1.2h-1.2c-.2.4-.5.7-.8.9l-4.7.5-4.7-.5-1 .4c-.5.2-3.1-.7-3.3-1.1-.1-.2-.2-.3 0-.5.3-.2.6-.5 1-.6a99.7 99.7 0 0 0 39.4-30.9c0-.1.2-.1.4 0Z"/><path fill="#cc2981" d="M26.5 100.9h.7a126 126 0 0 0 44.9 4.3h.4c.4 0 1.1 0 1.2.4l.2-.2c3.8-.2 7.7-.7 11.6-1.5h.7c1.4 1 2.8 2.1 4.3 3 .7 0 1.3.2 1.9.3v.2a128.8 128.8 0 0 1-60.8.2c-.3 0-.8 0-.9-.4l.2-.2 1.3-.2v-.6l-2.4.2c.1.3 0 .4-.1.5 0 0-2.2-.4-2.5-.6v.3c-.2-.7-.1-1.5-.2-2.2l-.1-.3v-1.7l-.1-1.7Z"/><path fill="#852e8c" d="M154.2 149.1a72.6 72.6 0 0 1-69.5 22.1c0-.3.3-.2.5-.2l6.3-.8c5-.8 10-1.8 15-2.9h.2l.2 1.5s.7 0 .6-.2c-.2-.6-.1-1.2 0-1.7 1.9-.4 3.9-.9 5.8-1.5 1.8-.5 4.2-1 5.9-1.7h.2c.2.9.4 1.6.8 2.4l.5-.2-.6-2.3.2-.2c1.6-.3 3.7-1.2 5.3-1.8l5.2-1.9h.3c.2.6.5 1.1.8 1.5l.5-.3-.6-1.3v-.4c7.8-3 15.2-6.5 22.5-10.4Z"/><path fill="#ae2b86" d="m173.6 95.8-.2.4a159.5 159.5 0 0 1-34.2 24.7l-.7-.1-1.4-.1c-.2-2-.4-4-.4-6v-.4l.2-.2a153.1 153.1 0 0 0 29.6-21.3l.4-.2.2-.2 2.1-.2c0-.3 0-.5.2-.6 0-.2-.1-.3-.3-.2-.1.3-.4.3-.5 0v-.2l3.8-3.9h.2c.5 2.9.8 5.7.9 8.5Z"/><path fill="#c12983" d="m169 73.4-.2.4a56.7 56.7 0 0 1-4.8 5c0 .2 0 .3-.2.2v.2c-7.3 7.2-15.3 14-24.1 19.5l-.6.3-.7.2-.4-.3-.3-.3L135 95l-.2-.4-.2-.4V94a138.6 138.6 0 0 0 30.9-26.8l.6-.3c1.1 2.3 2 4.2 2.9 6.6Z"/><path fill="#ba2b84" d="M171.2 80.5v.2a151 151 0 0 1-26.8 22.5c-.2.3-1.2.2-1.6.1-1.7-.3-3.5-2.5-4.4-3.8v-.3c9.1-5.7 17.5-12.5 25.1-20.1l.3-.2c.2 0 .3.2.4.6l2.4-.7-.1-.5-2.2.6-.2-.2.1-.3c1.6-1.7 3.2-3.5 4.9-5.1.9 2.4 1.6 4.7 2.3 7.1Z"/><path fill="#d12580" d="M157.9 53.7a46 46 0 0 1 3.2 4.5l-.6 1.2c-1.7 2.2-3.7 4.4-5.5 6.4a127.6 127.6 0 0 1-25.6 21l-1.2.5c-.1 0-.3 0-.4-.2-.4-.4-3-3.7-3-3.9V83l.5-.5c3.1-2 6.1-3.9 9.1-6.1 8.7-6.5 16.6-14.1 23.1-22.6.1-.2.3-.2.4 0Zm-87.7 46.6h.3c1.2 1.4 1.8 3 2.1 4.8l-.2.2c0 .3-.2.2-.4.2a123.2 123.2 0 0 1-45.5-4.4v-4.9l.1-.5h.5c8.6 2.3 17.4 4.1 26.3 4.7 5.2.4 10.1.2 15.4 0l1.3.1Z"/><path fill="#a12c88" d="M173.5 103.8v1.4c-.1 2-.5 4.1-.8 6.1-.4.4-.8.8-1.4 1.1-9.6 8-20.6 15.1-31.6 20.6h-.1a8 8 0 0 1-1.6-1.6c-.2-.4-.2-2.3-.1-2.8 0-.3 1-2.8 1.1-2.9 1.5 0 3-.1 4.5-.4-.2-.4-.2-.7 0-.9v-.4c7.9-4.7 16.1-9.8 23.2-15.9.6-.7 1.2-1 1.8-.9.1-.2.4-.3.8-.2 0-.4 0-.6.2-.7-.2 0-.3-.2-.1-.3l3.9-3.4h.3v1.1Z"/><path fill="#b42a85" d="M171.2 80.5c.6 2.3 1.1 4.4 1.4 6.7l-4 4-.3.2-1.6.2c0 .3 0 .6.2.8a160.7 160.7 0 0 1-28.8 21.1l-1.3.6c-.2 0-.2-.2 0-.3v-.7c-.4-.3-.4-.5-.1-.8v-.7c-.4-.2-.4-.6-.1-.7v-.5l6.1-3.4h.4l.2-.1c.6.6 2.3 1.3 3 .9.1 0 1.3-1.8 1.3-2-.6-.2-.9-.5-.9-1.2-.1-.4-1.7-1.1-2.2-1.2v-.2c-.1-.2 0-.3.2-.4l4.7-3.3c7.6-5.5 14.8-11.8 21.2-18.7l.6-.5Z"/><path fill="#a62b87" d="M173.5 103.8v-.9l-4 3.4v.4l-2.6-.3c-.1 0-.2.6 0 .6h1.6c.2.2.2.3.1.4l-.4.1-4.1 3.3c-4.6 3.6-9.4 6.9-14.4 9.9-1.9 1.2-4 2.2-5.8 3.4-.1 0-.3.1-.3.4h-.2c-.4-1.7-1.4-2.5-3-2.9-.5-.2-.8-.4-.9-.8 0-.3.1-.2.3-.3A171.5 171.5 0 0 0 171 98.3c1-.9 1.9-1.9 2.9-2.6l.1 1.2v4.6l-.1.3c0 .7.1 1.4-.1 2Z"/><path fill="#da277e" d="m152.3 47.4 3.1 3.4-.1.3-.2.3a121 121 0 0 1-31.8 28.3l-.3.1c-.1.1-.2 0-.4 0a9.5 9.5 0 0 1-2.4-3.8c-.1-.2 0-.3 0-.4A115.4 115.4 0 0 0 152 47.1h.3v.1Z"/><path fill="#c82a82" d="M163.8 62.4a90 90 0 0 1 2.3 4.3l-3.5 3.9a132.7 132.7 0 0 1-21.8 19.2c-1.9 1.4-4 2.6-5.9 3.9l-.3.3-.4-.2-2.9-2.8v-.4c-.1 0 0-.4 0-.4a133 133 0 0 0 27.1-22.4c.2-.2.4-.3.7-.3.2 0 .4.2.5.6l2.2-1.1-.3-.6-1.8.9h-.2c-.2 0-.3 0-.3-.3l4.4-5 .2.2Z"/><path fill="#df287e" d="M152.3 47.4c-.2 0-.2.1-.3.2-8 10.5-17.9 19.5-29 26.7l-2.4 1.5c-.2 0-.3.1-.3.4h-.3a29 29 0 0 1-1.8-3.5v-.3l.3-.3c8.6-5.1 16.7-11.8 23.6-19.2 2.4-2.6 4.4-5.2 6.6-7.9l.6-.5 3.1 2.9Z"/><path fill="#d52880" d="M157.9 53.7c-.2 0-.3.1-.4.3l-4.2 5.1c-7 8-15.4 15.2-24.2 21.1-1.4.9-2.9 1.9-4.4 2.7h-.3l-1.8-2.6V80c1.5-1.1 3.2-2 4.7-3a114.7 114.7 0 0 0 28.1-26.2l2.5 2.9ZM29.4 92.1c.2-.2.4-.2.4 0l2.7.5c9 2.3 18.5 3.8 27.8 3.8l1.7.3.2-.2c1.3 0 5.6 1.2 6.7 1.9l.5.5c.3.3.9.9.8 1.3-12 .9-24.2-.2-35.9-2.9l-7.7-2c0-1.4.2-2.7.3-4h.3l1.9.4.2.3Z"/><path fill="#f280a1" d="m114.3 27 2.4.5a73.5 73.5 0 0 1-57.9 24.6c-2.9-.1-5.6-.5-8.4-.8a17 17 0 0 1-4.8-1.1l-.2-.2 1.7-1.8h.3A71 71 0 0 0 113.9 27h.5Z"/><path fill="#e3267e" d="m146.3 42 2.9 2.5c-.7 1.1-1.6 2.1-2.4 3.2a107.8 107.8 0 0 1-28.5 24.6h-.2c-.1-.8-.3-1.4-.8-2v-.5h-1.2v-.2c.7-.7 1.8-1.2 2.7-1.9A103.3 103.3 0 0 0 144 45.1c.8-1 1.7-2 2.4-3.1Z"/><path fill="#f06591" d="m126.2 30.4 2.1.8v.3c-.1.7-2.7 3.4-3.2 4l-4.5 4.7A85.2 85.2 0 0 1 75 62.6a10 10 0 0 1-4.4-1.8c-.3-.2-.2-.3.1-.5a82.3 82.3 0 0 0 55.2-30.1h.4Z"/><path fill="#ee337f" d="M140.8 38c-.2 0-.3.1-.4.3l-3.6 4.5A97.8 97.8 0 0 1 100 69.6h-.2c-.6-.7-1.7-1.9-.8-2.7l.9-.6c4.6-2.2 8.8-4.2 13.2-7a97.5 97.5 0 0 0 24.3-22.2l.8-.8 2.6 1.7Z"/><path fill="#f16a94" d="M126.2 30.4c-.3 0-.3 0-.4.2-1.1 1.1-2 2.5-3.1 3.6a83.2 83.2 0 0 1-44 25.1l-7.8 1.2c-.2 0-.6 0-.5.3h-.3l-4.3-1.5-.5-.4c-.2-.2 0-.4.5-.5 14.6-1 28.5-5.3 40.7-13.6 4.4-3 8-6.3 11.9-9.8.2-.2.4-.3.6-.2.2-.2.5-.1.9.1l.7-2.3h.2l2.7-3.2h.3l2.4.8Z"/><path fill="#f493ad" d="M104.3 25.8c1-.1 2.1.1 3.1.2.2.2 0 .5-.3.8A66 66 0 0 1 52.3 44c-.2 0-.3-.2-.4-.3l2.8-2.3h.4c17.5 2.1 35.6-4 48.8-15.6h.4Z"/><path fill="#cc2981" d="M163.1 61.2c0 .2 0 .3-.2.5a128.7 128.7 0 0 1-32 28l-.4.2c-.2.1-.3 0-.4 0-.6.1-1.2-.6-1.5-1.2-.2-.4-.7-1.2-.6-1.5a122.4 122.4 0 0 0 33-29.1l2 3Z"/><path fill="#9b2c89" d="M172.7 111.4c-.3 2-.8 3.9-1.2 5.8l-8.2 6.1c-7.2 5-14.7 9.6-22.6 13.4h-.1c0-1.3 0-2.2-.9-3.3v-.2c0-.2.2-.3.4-.4 1.3-.8 2.9-1.5 4.2-2.2 7.9-4.3 15.6-9.3 22.8-14.8 1.7-1.3 3.3-2.8 5-4l.7-.4Z"/><path fill="#ea277d" d="M54.8 76.8v.3l-1.4.7c.2.7.2 1.4.2 2.1L51.2 82c.2.2.3.4.2.6h-.5a68 68 0 0 1-15.5-2.7l-.4-.2c-.2 0-.2-.3 0-.6-.1-.1-2.3-.8-2.4-.7 0 .4-.2.6-.4.6H32l-2.2-.7V78c.5-2 1.2-4 2-5.9l1.1.1a83.9 83.9 0 0 0 21.6 4.2c.3 0 .7.2.5.5Z"/><path fill="#ef5088" d="M134.6 34.3s.1.2 0 .2c-.3.4-1.9 2.7-2.2 2.9h-.3c-.1.1-.2.1-.4 0l-1.1 2.2h-.2a92.3 92.3 0 0 1-35.5 24.7 9 9 0 0 1-3.5-1.5c-.3-.1-.2-.3 0-.4a88.5 88.5 0 0 0 40.3-29.2h.3c.8.3 1.7.7 2.5 1.2Z"/><path fill="#da277e" d="M55.3 92h.3c.3 1.5 1 2.5 2 3.2l4.4 1.3v.2h-5.1c-9.2-.5-18.2-1.9-27-4.5V92l2.3.3v-.6l-2.5-.3c0 .4 0 .6-.3.7l-2.5-.7.6-4.4h.5c8.6 2.4 17.5 4.2 26.6 4.9l.7.2Z"/><path fill="#f27b9e" d="m116.7 27.5 1.7.4-.2.5-.3.4a75.4 75.4 0 0 1-73 23.1c-.1 0-.3 0-.4-.2s-.3-.1-.4-.2l1.3-1.5a73.5 73.5 0 0 0 70.9-22.3c.1-.1 0-.3.4-.2Z"/><path fill="#f05a8d" d="M132.1 33a90 90 0 0 1-36.6 28l-3.8 1.4c-.2 0-.3 0-.3.3h-.3l-3.2-1.1-.2-.3c-.4-.2-.3-.3 0-.5a85.5 85.5 0 0 0 41.9-28.9h.2l2.4 1Z"/><path fill="#f07399" d="M122 29c-1 1.5-2.3 2.8-3.6 4.1a77.8 77.8 0 0 1-51 23.8c-2.2 0-4.4.2-6.5.3l-.2.2-1.7-.8c-.2.3-.4.5-.7.5l-.2.2-12.3-1.5-.7-.3c-.2.2-.4 0-.4-.2h-.3l-2.5-.5-.2-.3.9-1.2h1a77 77 0 0 0 76-24.1l.7-.5 1.7.5Z"/><path fill="#e3267e" d="M32.1 78.9h.3l2.6.7c5.4 1.3 10.9 2.5 16.5 2.9.3-.1.5.2.6.4 0 1.8.5 3.1 1.3 4.6v.2l-.6.1h-.5a98.2 98.2 0 0 1-22.7-4.5l-.6-.2c-.2 0-.4-.2-.5-.3l1.2-4.9c.7.3 1.6.4 2.2.7.2 0 .2.2.2.2Z"/><path fill="#f2789c" d="M120.3 28.5a76.8 76.8 0 0 1-72.2 25.8l-5.5-1.2 1-1.2h.5a75.4 75.4 0 0 0 74.1-23.4l.6-.4 1.5.4Z"/><path fill="#ef4884" d="M136.9 35.5a96 96 0 0 1-38.6 30.1h-.5l-2.7-1.1v-.3c-.1-.2 0-.2.2-.3l5.9-2.5a92.4 92.4 0 0 0 29-21.7c.1-.2.2 0 .4 0 .2-.2.4-.1.7 0a7 7 0 0 0 1-2.5l2.4-3.1 2.3 1.2Z"/><path fill="#f385a4" d="M114.3 27c-.2 0-.3.1-.4.3l-2.9 3a71.6 71.6 0 0 1-62 18.5c-.6-.1-1.4-.2-2-.5l1.2-1.2h.4a70 70 0 0 0 57.1-14.6c.2-.2.4 0 .7.2 0-.3.3-.3.4 0 .2 0 .4 0 .4-.2-.3-.1-.3-.3 0-.4v-.5c-.1 0 0-.1 0-.2l.3-.3.2-.4.3-.4 3.2-3 .4-.3.4-.2 2.1.3Z"/><path fill="#df287e" d="M53.2 87.7c.7.8 1.3 2.1 1.8 3.1.3.4.4.8.3 1.2-6.7-.4-13.4-1.4-20-3l-7.8-2.1.8-4.1c4.5 1.4 9.1 2.6 13.8 3.5 3.7.7 7.4 1.2 11.1 1.4Z"/><path fill="#f48ea9" d="M109.9 26.3c-.8 1.3-2.1 2.5-3.4 3.4v.2a68.5 68.5 0 0 1-49.1 16.4h-.3l-1.3-1.6c-.5.2-.5.5 0 1v.2l-.3.1a17 17 0 0 1-5.1-.6v-.2l1.5-1.5 2.8.4c18.7 2 38.1-4.2 51.8-17 .3-.3.8-.7.9-1.1l2.5.3Z"/><path fill="#f17197" d="m123.9 29.6-2.8 3.1h-.4c-.5-.2-.7-.2-.8.3l-.5 1.8c0 .2-.2.2-.3.1l-.5.4a79.2 79.2 0 0 1-52.1 23.3c-.3 0-.9 0-1.1.3h-.3a11 11 0 0 1-3.6-1.3v-.3c-.4-.1-.4-.3-.1-.3a78.4 78.4 0 0 0 60.4-27.8l.4-.3 1.7.5Z"/><path fill="#f597b0" d="m102.4 25.7 1.9.1-.4.1a63 63 0 0 1-48.4 15.7c-.3 0-.6 0-.9-.2l2.1-1.5h.9c3 .2 6.1 0 9.2-.1l.7.1c.2 0 .3.2.1 0s.6-.5.7-.2v-.2c2.8 0 6-.8 8.8-1.5a66 66 0 0 0 13.8-5.4c.3-.2.6-.2.8 0 0-.2.2-.3.5-.2L92 31l.2-.3v-.5a69 69 0 0 0 6.3-4.2l.6-.2h3.2Z"/><path fill="#f6a1b7" d="M97.7 25.7h1.6l-3.4 2.6-3.2 2-.3.4c-.2 0-.3-.3-.3-.7-.2 0-.4 0-.5-.2-.3 0-.4.1-.3.4.3 0 .3.3 0 .4l-.3.4-.4.3c-7 3.8-14.7 6.2-22.6 7h-.2c-.3-.1-.6-.4-.7-.9-.3 0-.6.1-.4.5v.2l-.3.3c-2.4.3-4.9.3-7.3 0l-.2-.2 5.1-3.1c4.5-.3 9.2-1 13.6-2.2h.6l.7 2.2.5-.2c-.2-.4-.2-.7 0-.9v-.2c5.3-2 10.8-4.3 15.5-7.8l.7-.2.6-.1h1.2Z"/><path fill="#ee3e82" d="m136.9 35.5 1.4.8a94.7 94.7 0 0 1-39.2 30.5c-.2 0-.4-.2-.6-.5-.3-.3-.5-.6-.5-.8l7.4-3.6c10.5-5.6 20-13 27.7-22.1 1.1-1.3 2.2-2.9 3.3-4.1.1-.1.2-.3.4-.3Z"/><path fill="#f48ba7" d="m109.9 26.3 1.3.2v.3a16 16 0 0 1-3.3 3.1s-.2 0-.2-.2l-.5-.1c-.1.3-.3.3-.4 0l-.2.3c.3 0 .3.3 0 .4v.5c.2.1.2 1-.2.9h-.2a69.6 69.6 0 0 1-56.7 14.8c-.2 0-.5-.1-.4-.4l1.2-1.1.9.3c1.4.2 3 .5 4.5.4h.2l.9 1.1.5-.3c0-.1-.2-.2 0-.4 0-.3.2-.2.4-.2a67.7 67.7 0 0 0 51.8-19.6c0-.1 0-.3.3-.2Z"/><path fill="#f6a9bd" d="M92.6 26c0 .4-.4.7-.9 1a65.3 65.3 0 0 1-12.6 5.8c-.4-.2-.7 0-1 .2A58 58 0 0 1 65 35.3l-1-.1c8.8-5 18.5-8.1 28.6-9.1Z"/><path fill="#ee3580" d="M57.4 74.2c.5.7-.4 1.6-1 2-.4.2-1.2.8-1.6.6-.4-.4-1-.3-1.5-.3-7.4-.8-14.6-2-21.7-4.4l.9-2.2c.1-.2.3-.3.4-.3A99.1 99.1 0 0 0 56.7 74l.6.2Z"/><path fill="#ef4884" d="m37 66.9.1.2c0 .2 2.1 1.3 2.2 1.2 0-.3.2-.5.5-.5 0-.2 0-.4.2-.4a90.6 90.6 0 0 0 17 2.5l.2.2c.6.2.5 2.4-.2 2.4l-.5.1H56a93.4 93.4 0 0 1-21.6-3.9l-.5-.2-.5-.3 1-2.1c.2-.2.6-.2 1 0 .5.1 1.5.4 1.7.8Z"/><path fill="#f05f8e" d="m129.2 31.7-.1.3-.2.3A84.9 84.9 0 0 1 86 61l-1.9.5c-.1.2-.3.2-.4.1l-7.2 1.5c-.5.2-1.3-.2-1.6-.6 0-.2.3-.2.5-.2l3.5-.7a84.8 84.8 0 0 0 47.5-28l2-2.5.9.4Z"/><path fill="#f06591" d="M39.4 57.6h.6a95.7 95.7 0 0 0 16.6 3v2.1c.3.1.2.8 0 .8h-1A77 77 0 0 1 38 60l1.7-2.5Z"/><path fill="#ef5188" d="M51.4 67.1h.2c.7.3 1.2.8 1.8 1.3h3.2c.2.1.8 1.4.6 1.6h-1.7A91 91 0 0 1 40 67.5l-.2.2-2.4-1.2c0 .2-.2.3-.4.2-.8-.3-1.8-.7-2.7-.7l1.2-2.3h.5c5 1.3 10.3 2.5 15.3 3.2Z"/><path fill="#f388a6" d="m49 46.3.5.2a70 70 0 0 0 56.7-15c.2 0 .1.3.2.4.2.1.3.3.2.7h-.6a69.7 69.7 0 0 1-49.7 15.5c-2.7-.2-5.4-.7-8-1.1l.7-.7Z"/><path fill="#f2789c" d="M118.9 28.1a75.5 75.5 0 0 1-71 24.8c-1.4-.3-2.8-.5-4.1-1l.3-.3a75 75 0 0 0 74.3-23.7h.5Z"/><path fill="#ee3e82" d="m57 72.5.2.4c.5.2.8 1 .3 1.3a105 105 0 0 1-20.1-3.1c-1.4-.4-2.9-1-4.2-1.2h-.5l.7-1.7a95 95 0 0 0 23.7 4.2Z"/><path fill="#f05e8e" d="M56.4 63.5c.2.4 0 1.6-.2 2-.1.2-3.1.1-3.6 0-.2-.5-1.4-.7-1.6-.3h-.2l-.7-.2c-4.1-.4-8.4-1.4-12.5-2.6l-.5-.2-.5-.3 1.1-1.9c6 1.9 12.3 2.9 18.6 3.4Z"/><path fill="#f05f8e" d="m129.8 31.9-.2.5-3.2 3.8a87 87 0 0 1-33.8 23.3c-1.5.6-3.4 1-4.8 1.7-.2 0-.3 0-.2.3-.3.3-1.3 0-1.6-.3 0-.3.2-.3.3-.3 1.7-.7 4-1.3 5.8-2a87 87 0 0 0 32.7-22.1l4.3-5 .5.2Z"/><path fill="#f16c95" d="M45.2 56.7c0-.1.2-.2.3 0l.9.8c.2-.2.4-.3.5-.2v-.2l10.5 1.4v.2l.2.2c-.7 1-1.1 1.7-.8 3 0 .5 0 .8-.3.9v-2.1a82.8 82.8 0 0 1-17.1-3l1.3-1.9c1 0 2 .3 3 .6.5 0 1 .2 1.4.4Z"/><path fill="#c82a82" d="M163.4 61.8v.2a126.5 126.5 0 0 1-32.1 28.2l-.6.2c-.3.2-.7-.2-.5-.5l4.7-3.1c9.2-6.2 17.8-13.9 25.1-22.2 1-1.2 1.9-2.4 3.1-3.5l.3.6Z"/><path fill="#f0588c" d="m50.8 65.3.2.2c-.1.5 0 1 .5 1.3v.3h-.6c-.8 0-1.9-.3-2.8-.4-4.2-.7-8.4-1.7-12.5-2.9l1-2c3.5 1.1 7.2 1.9 10.8 2.6.8.2 2.4.2 3.1.4.3 0 .3.1.3.4Z"/><path fill="#f6a1b7" d="M95.7 25.8a53 53 0 0 1-10.6 6.1l-5.6 2.2c-.4 0-.7-1.1-.4-1.3 0-.3.1-.2.3-.3 3.8-1.5 7.1-2.6 10.6-4.7.9-.5 1.9-1 2.6-1.7l3.1-.2Z"/><path fill="#cc2981" d="M163.8 62.4c-.2 0-.3.1-.4.3l-3.8 4.5s-.4.3-.1.4c0 .3-.1.5-.4.3-1.3 1-2.7 2.9-3.9 4.1-6.4 6.3-13.4 12-20.9 16.9-1 .7-2.2 1.3-3.1 2.1-.3.1-.6 0-.5-.4a131.8 131.8 0 0 0 32.7-28.7l.4.6Z"/><path fill="#f17298" d="M122.2 29.1a78.4 78.4 0 0 1-50.6 27.6c-3.4.4-6.5.4-9.9.5-.2 0-.4-.1-.4.2-.2.1-.4 0-.4-.2 0-.3.2-.2.4-.2 3.2-.1 6.4-.2 9.6-.5a78.7 78.7 0 0 0 45-21.1c2.1-2 4.1-4.3 6.1-6.4l.2.1Z"/><path fill="#f59ab2" d="M66.6 38.1c.5.3 1.1 1.2.9 1.8-2.6.3-5.4.4-8 .3l-.6-.1c-.8 0-1.5 0-2.2-.2l2.3-1.7c1.5.2 2.9.3 4.4.2l.7-.1c.9 0 1.7 0 2.5-.2Z"/><path fill="#f17298" d="M44.8 55.2c.2.1 0 .4-.2.8.5.2.7.5.6.8l-1.5-.3-2.9-.8 1-1.3c1 .3 2 .4 3 .8Z"/><path fill="#f388a6" d="M112.3 26.7c-1.4 1.5-3 2.8-4.4 4.2-.1.1-.2.2-.3.1-.3-.3-.2-.8 0-1v-.2c.3 0 1.6-1.2 1.9-1.5l1.7-1.8 1 .2Z"/><path fill="#f6a1b7" d="M102.4 25.7h-4.8 4.8Zm-6 0-.6.1c.1-.2.4 0 .6-.1Z"/><path fill="#be8ebb" d="m68.5 159-1.2 2.6c-.4-.1-1-.2-.8-.7l1.2-2.3c.2-.1.7.4.9.4Zm91-28.9 2.5 1.3-.4.8h-.3L159 131c-.1-.1.3-.9.4-.9Z"/><path fill="#fefefe" d="m61 57.2.4.2c1.7.8 2.2 1 4 1.5s3.4 1.2 5.1 1.9a199 199 0 0 1 6 2.4h1.9c1.1.5 2.3.4 3.4.2l1.7-1.8h.1l.3-.3 2-.3 1.6.3c1.5.3 2.4.8 3.8 1.3l3.5 1.5c.8.4 2.3.8 3 1.2.2.1 1 1.1 1 1.3s-.2.6 0 1.1c0 .3.8 1.2 1.1 1.6.1.2 0 .3.4.5l2.6.9c.3 0 1.1-.5 1.5-.5 1.3 0 3.2.5 4.6.5l4.6-.5c.2-.2.5-.8.8-.9h1.4l1.3.1.1.6.6.8c.2.4.2 1 .4 1.3.6 1.8 1.1 2.3 2 3.8a126 126 0 0 0 4.5 6.7c1.1 1.4 2.5 3 3.4 4.3.4.5.7 1.5 1 1.9.2.3.8.6 1 .8l.5.5.5.4c1.3 1.1 2.4 2 3.4 3.3l3.8 5.1c1.1 1.4 1.6 2.4 3.2 3.4 1.3.8 1.5.5 2.8.6h.5l1.9 1c.2.2.1.8.3 1 .1.2.8.3.8.6l-1.4 2.1h-1.7c-.2 0-1.5-.8-1.6-1h-.2l-1.1-2.7-1.8.8c0 .8.2 2.4-.5 2.9h-.2l-.1.2h-2.6v-.2c-.1 0 0 .2 0 .2.1.9.2 1.8 0 2.7v1.4l.1.8v.7l.1.3c0 2.1.3 4.2.4 6.3.8 0 1.3-.2 2 .3.9.7 1.6.7 2.5 1.2s1.3 1.6 1.6 2.5l.3 1c-1.6.4-3.1.5-4.6.4-.1.9-.9 1.9-1 2.8l.1 2.7 1.5 1.6.9 1.5v2c0 .6-.3 2.3-.8 2.7-.4.3-1.6.7-2.1.9-1 .4-2 .6-3 1.1-.4.2-1.4 1.1-1.6 1.1-.2 0-.9-.5-1.1-.7l-.1-4.2-.5-2h-.2c-.3-1.5-.8-2.7-2.5-2.3-.5 0-1.6-.3-1.7-.8h-.4l-1.6-1c-.5-.4-1.1-.4-1.7-.3-1.1.1-1.4.2-1.5 1.4l.6.3c.4.3 1.1.8.9 1.3h.2a4 4 0 0 0 1.9 1.4c.6.3 1.2 1.3 1.4 1.9 0 0-.1.1 0 .2l-.7 2.6h-2.1c-.6 0-1.1-.9-1.7-1.2-1.4-.7-3.5-.9-5-1.5l-3.6-4.5 1.4-1.5c.9-.9 1.9-1.6 2.9-2.4V124l-.3-1.2-1.1-4.5-.8-.7a32.3 32.3 0 0 0-4.9-3.3c-2.6-1.4-5.6-2.3-8.4-3.4l-2.2-1c-.2-.2-.5-1.3-.6-1.6 0-.2-.7-1.3-.8-1.3h-4.4c-.6 0-1.7-.3-2.2-.2-.5-.2-1.3 0-1.9-.3-.3 0-1.7-1.1-2.1-1.4l-2.4-1.8-.2-.2c-.2-1.1-.2-2.3 1-2.8.7-.7.8-.8.3-1.7v-.2h-.2A22 22 0 0 0 82 94v-.3h-.5a23 23 0 0 1-4.8-4.4v-.2h-.3c-1-1-2.3-1.5-3.8-1.5-2.4-.5-2.8-1.3-3.1-3.6-.3-.1-.8 0-1.1.2a20 20 0 0 0 2 5.4v.5h.3c.4.9.8 1.5 1.8 1.8l4.7 1.8c.6.2 1 .5 1.2 1 .4 0 .8.2.9.7v3.1c-.2.6-1.2 1.1-1.8 1.4-.2.3-.4.5-.7.6l.2.2a4.2 4.2 0 0 1-2.5 2.9c-.7.4-.9 1-.9 1.7h-.8c-.3 0-.5.1-.7-.2l-.5-1.9c-.5-1.3-1-2-1.8-3.1-1.1-1.4-1.1-1.7-3-2.3-1.3-.4-3.9-1.1-5.2-1.2l-4.5-1.4c-1.5-.8-1.6-2-2.2-3.4-.6-1.5-1.4-2.9-2.1-4.3-.3-.7-1.1-2.2-1.2-2.8l-.1-1.8c0-.2-.3-.4-.4-.6s-.5-.5-.4-.7c.3-.6 2.3-1.8 2.4-2 .2-.5-.3-1.9-.2-2.1.5-.5 1-.6 1.5-.8 1.2-.6 2.5-.9 2.6-2.6v-.8c-.1-.4-.7-.3-.4-1l.3-.5c.1-.7.2-1.3 0-1.9-.2-.5-.5-.9-.6-1.4-.2-.2-2.7.1-3.2 0-.2 0-.6-.6-.8-.8l-1.1-.7c-.6-.6-.8-.9-.6-1.8l.2-.6c.6.2 1.6 0 1.8.6h3.3l.3-1.9v-.8c.3-.7 0-1.8.1-2.5 0-.2.8-1.3.9-1.5-.1-.4.5-1.4.9-1.5.1-.2.5-.7.7-.7l1.8.9Z"/><path fill="#a12c88" d="m131.5 135.5-4.5 1.9v.2c-.4-.4-.6-1.3-1-1.7-.4-.4-1.4-.7-1.8-1.1l-.6-.8v-.2c.4-.2 3-1.5 3.3-1.5h.3l1.3.7h1.9l.8 1 .5 1.4Z"/><path fill="#c38fba" d="M56 154.1s0 .2-.2.2l-.6-.3-.2-.3c0-.3 1.4-1.7 1.6-2.1.2-.3.9.4.9.6l-1.5 1.9Z"/><path fill="#a12c88" d="M132.1 141.7c-.2-.3-.1-1.7-.1-2.2v-2.1l.1.2v4Z"/><path fill="#cf92b8" d="m37 131.8-.2-.4c.5 0 2.2-1.3 2.5-1.2.1 0 .6.8.5.9l-1.3.6c-.2 0-.3.3-.5.3l-.8.3-.2-.5Z"/><path fill="#c990b9" d="M46.6 141c0 .2.6.6.5.8-.2.3-1.9 1.3-2.2 1.8l-.7-.8 2.4-1.8Z"/><path fill="#e097b7" d="M29.5 107.2c0-.2-.2-.6 0-.7.4 0 2.6-.4 2.7-.2l.1.9-1.8.2-1.1.1v-.3Z"/><path fill="#d795b8" d="m32.3 120.5-.2-.8 2.8-.8.2 1c-.8.1-1.5.5-2.3.7h-.4l-.1-.2Z"/><path fill="#ba8dbb" d="M151.8 141.9c0-.3.4-.9.7-.8.2 0 2 1.5 2 1.6.1.2-.4.8-.6.8-.5-.1-1.6-1.5-2.1-1.6Z"/><path fill="#ba8cbb" d="m79.8 163.6-.8 2.8c-.3-.1-1-.1-.9-.5 0-.7.7-1.7.7-2.5l1 .2Z"/><path fill="#b68abb" d="M106.4 167.3v-1.1h1v.8c0 .6 0 1.3.2 2h-1l-.2-1.7Z"/><path fill="#b88cbc" d="m92.6 166.2-.3 2.9-1-.1.3-2.9 1 .1z"/><path fill="#b78cbc" d="M141.2 152.2v-.2l.8-.5c.2 0 1.5 2 1.8 2.2-.2.1-.6.6-.9.6l-1.6-2-.2-.1Z"/><path fill="#b58abb" d="m120.1 163.5.7 2.7-.9.2c-.2 0-.8-2.2-.9-2.6v-.2c.3-.2.8 0 1-.1Z"/><path fill="#b68bbb" d="m131.7 159.4.8 1.7-.8.5-.2-.1-.9-1.6-.3-.8c.9-.4.9-.5 1.4.4Z"/><path fill="#f19db6" d="m143.9 45.1-1.9 2.2c-.2-.3-.6-.3-.7-.7.3-.3 1.6-2.2 1.9-2.1l.7.6Z"/><path fill="#d02580" d="M86 104c-2.3.5-4.7.9-7.1 1.2-1.5.2-3.8.6-5.2.4 0-.9 0-1.2.7-1.8.5-.4 1.5-.8 1.9-1.2.3-.3.6-1.3.8-1.8l.4-.2 9.3-1.5h.4l.5 1.2-.8.9-.9.7c-.2.4 0 1.5 0 2.1Z"/><path fill="#cf91b8" d="M169.2 91.3c.2-.1.3 0 .3.2s0 .7-.2.8l-2.3.2h-.4v-1l2.1-.3h.5Z"/><path fill="#b42a85" d="M169.2 91.3s.2-.2.3 0v.3c-.1-.1-.1-.2-.3-.2Z"/><path fill="#d796b8" d="m164 78.8 2.6-.7c0 .3.3.7.2.9 0 .1-2.6.9-2.7.8l-.3-.8.2-.2Z"/><path fill="#c890b9" d="m169.5 106.5-.1 1c-.3-.2-.6 0-.9 0h-.2c-.6 0-1.1 0-1.7-.2-.2-.1.1-.7 0-1l2.9.3Z"/><path fill="#b42a85" d="m136.7 111-.1-.2-.1-2.7h2.9l.4-.6c.3-.7.2-1.7.1-2.5.3-.2 2-1 2.1-.9l1.1 2.9c-2.1 1.1-4.1 2.5-6.2 3.6-.2 0-.3 0-.2.3Zm.2 3c-.2-.1-.1-.5-.1-.7.2.1.1.5.1.7Zm-.1-1.6c-.2-.1-.1-.5-.1-.7.2.1.1.5.1.7Z"/><path fill="#e097b8" d="m159.4 67.5 2-1c.3 0 .5.7.6.9-.5 0-2.3 1.2-2.5 1.2l-.5-.8.4-.3Z"/><path fill="#e89bb7" d="M154.2 55.2c0 .2.5.6.5.8l-2.1 1.7c-.3.2-.8-.5-.7-.8l2.2-1.7Z"/><path fill="#ea9bb6" d="M29.4 92.1v-.9l3 .3v1l-2.6-.3h-.4Z"/><path fill="#f7b4c5" d="m120.9 32.7-.7 2.7-1-.4c.3-.4.5-2.1.8-2.5.2-.3.8.2 1 .2Z"/><path fill="#c28fba" d="m166.6 120.7-2.7-.8c-.1-.1-.1-1 .3-1 .7 0 1.7.7 2.5.8.2.2-.2.7-.1 1Z"/><path fill="#f39db6" d="m35 79.6-.1.2-2.8-.9c.3-.4 0-.9.7-.8l2.4.8c.1.1 0 .7-.1.8Z"/><path fill="#f6a7bb" d="m132.2 37.4.3.1-1.2 2.5c-.2.2-.6-.1-.9-.2l.1-.5 1-2c.2-.2.4 0 .6.1Z"/><path fill="#f17298" d="M58.5 57a12 12 0 0 0-.9 1.5L47.1 57a6.5 6.5 0 0 0-1.8-1.5v-.2L58.6 57Z"/><path fill="#f8b5c5" d="m45.2 55.4 1.8 1.5v.2c-.7 1.2-1-.2-1.8-.4a2 2 0 0 0-.9-.7l.5-.8.4.2Z"/><path fill="#f9c2cf" d="M107.2 29.7c.4 0 .5.2.4.3v1c.2 0 .1.1 0 .2v1.1c0 .3-.2.3-.4.2h-.4c-.3-.1-.2-.4-.2-.7.2-.2 0-.6 0-.9v-.5c.1-.1 0-.3 0-.4 0-.2 0-.3.2-.3h.4Z"/><path fill="#f388a6" d="M107.4 32.4v.3h-.4c.2 0 .3 0 .4-.2Zm.4-1.4s-.1.3-.3.3v-.2h.3Zm-.4 1v-.5.5Z"/><path fill="#f9c5d1" d="M55.7 45.9c-.6-.7-1-.9.2-1.5.4.7 1.1 1.2 1.5 1.9 0 .1.3.3.2.5 0 0-.6.5-.8.4l-1.1-1.3Z"/><path fill="#f59ab2" d="M91.4 30.6c0 .1.1.2 0 .4h.2c0 .6 0 1.1.2 1.6-1.3.3-2.9 1.4-4.2 2a64.3 64.3 0 0 1-18.2 5.2h-1.1l-.6-1.3v-.2l.6-.2c2.1-.3 4.1-.5 6.2-1a63.4 63.4 0 0 0 16.8-6.4Z"/><path fill="#facdd7" d="m67.9 38.2.5 1.1c0 .2.2.3 0 .5-.2 0-.5.4-.8.3v-.2l-.9-1.8c-.4-.9 0-.5.6-1 0 .5.4.8.6 1.1Z"/><path fill="#faccd7" d="M91.7 29.7c.9-.1.6.3.7.9l.2 1.8c0 .2-.6.1-.7.2-.5 0-.4-1.2-.4-1.5v-.5c-.1-.1 0-.3 0-.4-.2-.3 0-.4.3-.4Z"/><path fill="#fad0da" d="M78.1 32.9v-.3c.5 0 .9-.5 1.1 0l.4 1.3c0 .3.1.7.3 1l-.9.3-.8-2.4Z"/><path fill="#f6a1b7" d="M91.7 29.7c-.2 0-.4.2-.3.4 0 0-.2-.2 0-.4h.4Zm-.2 1.4v-.4c.2 0 0 .2 0 .4Z"/><path fill="#f48ea9" d="M107.7 29.8v.2c0-.3-.2-.1-.4-.3l.5.1Zm-.9-.1-.2.3v-.4l.2.1Zm-.3 1.3v-.5.5Z"/><path fill="#f6a7bb" d="m37 66.9.4-.5c.7.5 1.4.8 2.2 1.2.1 0 .3 0 .3.3 0 .2-.4.8-.5.8-.4-.5-2-.9-2.3-1.3-.2-.2 0-.3 0-.5Z"/><path fill="#f05f8e" d="M83.7 61.7c-.3.3-1.5 1.9-1.8 2-.6.1-1.9.2-2.5.1-.4 0-.7-.3-1-.3-.9 0-.8.2-1.9-.2.2-.2.6-.3.8-.3 1.8-.4 4-1 5.9-1.3h.5Z"/><path fill="#d52880" d="M82.2 94.4c1.6 1.2 4.2 3 5.1 4.8-3.3.8-6.7 1.4-10.1 1.7.5-1.1.7-.7 1.6-1.3l.7-.7v-3c0-.2-.5-.5-.7-.7V95l3-.6.4.1Z"/><path fill="#dd277e" d="m82.2 94.4-3.5.7c-1.4-1.1-2.8-1.3-4.4-1.9-.6-.2-2.3-.9-2.7-1.2-.3-.2-.7-1.2-.9-1.5v-.2l5.9-.9.3.2c1.7 2.1 3.3 3.2 5.3 4.8Z"/><path fill="#e1277e" d="M70.7 90.6c-.8-1.4-1.4-2.8-1.9-4.3l-.4-1.4c0-.5 1.3-.6 1.5-.4.2.1.2 2.2.8 2.7 2 1.6 4.3.1 6.2 2.5l-6.2.9Z"/><path fill="#a62b87" d="m127.1 132.4-3.6 1.7c-.6-.6-1-1.2-1.9-1.4l.5-1.4c.4-.3 2-.5 2.6-.4.4.1 1.9 1.2 2.4 1.5Z"/></svg>