<?xml version="1.0" encoding="UTF-8"?>
<svg id="Layer_1" xmlns="http://www.w3.org/2000/svg" baseProfile="tiny" version="1.2" viewBox="0 0 200 200">
  <!-- Generator: Adobe Illustrator 29.6.1, SVG Export Plug-In . SVG Version: 2.1.1 Build 9)  -->
  <path d="M102.65,0h97.16v199.39h-96.23c-.09-.03-.09-.06,0-.1,1.31-.35,2.8-.43,4.14-.21,1.47-.33,2.97-.55,4.49-.67,1.5-.29,3.01-.45,4.51-.47,7.12-1.63,14.27-3.3,21-6.21,1.7-.77,3.42-1.46,5.18-2.08l.27-.28c2.69-1.36,5.36-2.75,8.01-4.17l.19-.32c5.49-3.1,10.59-7.29,15.46-11.44l.49-.25c.19-.31.39-.62.65-.87,3.37-3.35,6.7-6.68,9.68-10.39l.44-.33.2-.48c2.23-3.02,4.38-6.1,6.46-9.22l.38-.35.11-.44c1.69-2.98,3.3-6.01,4.85-9.05l.31-.34c0-.12,0-.24.01-.35s.03-.22.07-.32c.72-1.74,1.45-3.48,2.18-5.21.04-.1.11-.19.18-.28s.16-.17.25-.25c.02-.33.04-.66.14-.97.85-2.56,1.69-5.1,2.5-7.67.1-.32.28-.6.46-.88l-.03-.44c.83-3.5,1.56-7.03,2.21-10.56l.2-.39c-.04-1.25.06-2.51.29-3.78.06-1.3.24-2.55.53-3.77-.3-.41-.21-1.26.1-1.66l.1-1.14c-.28-.47-.28-.97,0-1.45.15-.85.1-1.91-.1-2.81-.1-1.33-.07-2.64.1-3.92-.32-.19-.45-1.42-.1-1.6-.34-.1-.32-1.39,0-1.55-.05,0-.1-.01-.14-.04-.08-.05-.25-1.58-.25-1.8l.18-.18c-.03-.29-.12-.54-.29-.78-.23-2.27-.5-4.53-.81-6.78l.07-.42c-.16-.33-.31-.66-.39-1.02-.38-1.74-.75-3.5-1.11-5.25-.07-.36-.07-.72-.05-1.09-.17-.26-.34-.53-.43-.83-.4-1.3-.79-2.62-1.15-3.93-.08-.3-.08-.62-.08-.93-.2-.29-.39-.59-.51-.92-.64-1.76-1.27-3.53-1.89-5.3-.12-.33-.16-.68-.19-1.03-.22-.28-.44-.58-.59-.91-.65-1.44-1.3-2.9-1.93-4.36-.14-.33-.21-.69-.27-1.05-.26-.29-.51-.6-.7-.94-.82-1.52-1.63-3.05-2.43-4.58-.18-.35-.29-.73-.39-1.1-.23-.19-.46-.4-.63-.65-1.03-1.57-2.07-3.15-3.09-4.73-.08-.12-.14-.26-.19-.4s-.1-.29-.13-.44c-.11-.06-.21-.13-.31-.21-.45-.36-2.39-3.13-2.6-3.68-.04-.11-.07-.23-.09-.35-.31.07-.55-.11-.41-.41-.29.13-.63-.4-.41-.62-1.03-.79-1.91-1.84-2.48-3-.13-.07-.25-.14-.37-.22s-.23-.17-.32-.27c-.92-.99-1.83-2-2.72-3.02-.19-.21-.3-.48-.42-.74-1.06-.65-2.04-1.62-2.69-2.69-1.35-.85-2.66-2.04-3.62-3.31-1.25-.66-2.44-1.68-3.31-2.8-1.17-.53-2.3-1.38-3.1-2.38-.31-.1-.62-.21-.89-.4-1.44-.97-2.88-1.96-4.31-2.95-.27-.19-.49-.44-.69-.69-.89-.18-1.81-.74-2.38-1.45-.6,0-1.25-.4-1.55-.93-.8-.1-1.56-.52-2.07-1.14-.9-.13-1.76-.58-2.38-1.24-.84-.06-1.92-.51-2.48-1.14-.26.23-.94-.19-.93-.52-.18.23-.58.1-.52-.21-.39.15-.78-.02-.93-.41-.44.14-.94-.1-1.14-.52-.83-.02-1.67-.36-2.28-.93-1.15-.11-2.37-.57-3.31-1.24-.96,0-2.03-.35-2.79-.93-.95.02-1.91-.28-2.69-.83-.92.06-1.93-.2-2.69-.72-.72.13-1.5-.07-2.07-.52-.91.11-1.91-.14-2.69-.62-.58.19-1.19.08-1.66-.31-.57.19-1.19.07-1.66-.31-.69.17-1.36.07-1.97-.31-.62.22-1.43.08-1.97-.31-.93.2-2.04.09-2.9-.31l-.26.18-1.76-.18-.25-.2-.32-.05c-.26.16-.92.28-1.03-.05l-.8-.06c-.18.2-.47.26-.55-.05-.09.17-.16.19-.21,0-.06.2-.15.2-.21,0-.02.06-.06.06-.1,0l-.57-.05c-.38.19-1.31.28-1.6-.06-.09-.03-.09-.06,0-.1Z" fill="#fff"/>
  <path d="M97.47,0c.09.03.09.06,0,.1-.1.31-.71.29-.83,0l-.68.09c-.48.23-1.12.29-1.6.02-.89.26-1.76.49-2.69.21-1.19.42-2.58.58-3.83.41-1.18.47-2.57.64-3.83.52-1.17.52-2.55.79-3.83.72-.37.18-.74.35-1.14.45-6.24,1.55-12.29,3.17-18.22,5.75l-.61.11c-.1.15-.21.3-.37.39-.94.52-2.12,1.07-3.15,1.27-.85.78-2.17,1.43-3.31,1.66-.9.84-2.12,1.55-3.31,1.86-.41.58-1.05.95-1.76,1.04-.48.64-1.18,1.09-1.97,1.24-.4.63-1.13,1.13-1.86,1.24-.79.93-1.96,1.75-3.1,2.17-.36.65-1.13,1.19-1.86,1.35-.27.56-.73.91-1.35,1.04-.18.55-.78,1.08-1.35,1.14-.16.52-.6.87-1.14.93-.17.54-.68.95-1.24,1.04-.27.67-.97,1.36-1.66,1.55-.28.67-.87,1.22-1.55,1.45-.28.71-1.04,1.39-1.76,1.66-.58,1.04-1.47,1.96-2.48,2.59-.25.74-.85,1.44-1.55,1.76-.16.64-.63,1.2-1.24,1.45-.29.83-1,1.63-1.76,2.07-.27.85-.9,1.71-1.66,2.17-.3.92-.97,1.83-1.76,2.38-.41,1.12-1.17,2.22-2.07,3-.19.83-.67,1.56-1.35,2.07-.12.79-.6,1.6-1.24,2.07,0,.6-.31,1.14-.83,1.45-.13.88-.67,1.8-1.35,2.38-.11.84-.52,1.6-1.14,2.17-.05.78-.45,1.55-1.03,2.07.07.58-.24,1.34-.72,1.66-.08.95-.5,1.99-1.14,2.69,0,.15-.01.29-.03.44s-.04.28-.09.41c-.62,1.65-1.25,3.31-1.89,4.96-.1.27-.29.5-.47.72-.22,1.69-.79,3.45-1.55,4.97,0,.36,0,.73-.08,1.08-.41,1.72-.83,3.45-1.26,5.17-.09.35-.25.68-.42,1,.05,1.4-.2,2.84-.72,4.14.03,1.99-.22,4.08-.72,6,.15,2.05-.04,4.19-.41,6.21.29.11.31.84,0,.93-.03.09-.06.09-.1,0V0h97.06Z" fill="#fff"/>
  <path d="M.62,104.25c.29.31.29.73,0,1.04l.1.83c.33.74.47,1.93.21,2.69l.25.51c.11.7.48,3.3.37,3.77-.02.1-.06.19-.1.28.13.26.27.52.32.81.27,1.5.52,3.02.75,4.53.04.29,0,.58-.04.87.16.27.31.54.39.85.29,1.16.57,2.34.83,3.5.07.3.05.62.03.93.17.25.33.5.42.79.37,1.23.73,2.47,1.07,3.71.08.29.07.59.06.89.18.25.37.51.48.81.47,1.27.92,2.57,1.35,3.85.1.3.12.62.13.93.22.28.43.56.57.88.89,2.03,1.78,4.05,2.68,6.07.14.32.21.67.27,1.02.21.2.43.42.57.67,1.48,2.7,2.98,5.35,4.53,8.01.15.26.22.55.28.84.1.06.21.13.3.21s.18.15.24.25c1.19,1.69,2.38,3.39,3.57,5.09.06.09.11.2.15.31s.07.23.09.35c.1.04.19.09.28.14s.16.11.22.18c1.02,1.24,2.03,2.51,3.02,3.78.06.07.09.16.13.26s.06.2.08.3c1.05.73,1.99,1.87,2.59,3,1.01.63,1.9,1.55,2.48,2.59.29.15.58.3.82.52,1.84,1.69,3.67,3.36,5.53,5.02.24.22.42.49.59.77.13.04.25.08.37.13s.23.1.32.18c2.32,1.8,4.64,3.57,7,5.32.1.07.18.17.26.26s.16.21.23.32c.14.03.28.07.42.12s.26.1.38.17c1.5.93,3,1.89,4.48,2.84.24.15.43.38.61.6.4.11.8.23,1.17.43,2.54,1.32,5.06,2.59,7.63,3.86.37.18.71.43,1.04.69l.49.06c3.56,1.41,7.16,2.72,10.8,3.92l.41.27.59.03c4.55,1.31,9.17,2.12,13.82,2.93.38.07.75.21,1.11.36.36-.06.73-.11,1.1-.07,2.35.2,4.68.38,7.03.56.37.03.73.13,1.08.24.09.03.09.06,0,.1H.42v-97.42c.03-.09.06-.09.1,0,.29.23.23,1.06.19,1.46-.16.18-.19.45-.09.82Z" fill="#fff"/>
  <path d="M102.65,0v.1c-.24.2-.49.2-.72,0-1.21.32-2.61.3-3.83,0-.16.29-.45.29-.62,0v-.1h5.17Z" fill="#fde6ea"/>
  <path d="M.52,101.97h-.1v-4.56h.1c.29,1.44.33,3.12,0,4.56Z" fill="#eac7d8"/>
  <path d="M101.51,199.29c.09.03.09.06,0,.1h-2.79c-.09-.03-.09-.06,0-.1.93-.27,1.87-.28,2.79,0Z" fill="#825ca4"/>
  <path d="M98.72,199.29v.1h-1.35c-.09-.03-.09-.06,0-.1.42-.29.94-.3,1.35,0Z" fill="#a287bd"/>
  <path d="M102.75,199.29c.09.03.09.06,0,.1h-1.24v-.1c.37-.3.86-.29,1.24,0Z" fill="#a287bc"/>
  <path d="M103.58,199.29v.1h-.83v-.1c.26-.28.56-.28.83,0Z" fill="#cabbdb"/>
  <path d="M97.37,199.29v.1h-.83v-.1c.24-.29.6-.3.83,0Z" fill="#cbbddc"/>
  <path d="M190.39,141.73c-1.61,3.45-3.28,6.6-5.28,9.84-30.26,21.94-67.26,35.54-104.77,38.7-6.85.58-13.71.67-20.22.74-3.38-1.48-6.64-3.13-9.83-4.97-.35-.26-.04-.45.31-.44,49.8,2.93,100.28-13.07,139.29-43.94.22-.16.5-.3.51.07Z" fill="#772e8d"/>
  <path d="M185.12,151.56c-2.19,3.53-4.46,6.79-7.04,10.04-31.25,20.39-69.35,31.88-106.27,33.65-4.07-1.2-7.81-2.55-11.69-4.24.07-.24.27-.2.46-.21,2.73-.18,5.8-.02,8.59-.1,38.12-1.12,75.52-12.97,107.45-33.5,2.72-1.75,5.32-3.67,8.02-5.43.15-.1.24-.25.47-.2Z" fill="#702e8e"/>
  <path d="M193.08,135.31c-.86,2.24-1.67,4.24-2.69,6.42-.12-.16-.52.2-.61.27-1.15.87-2.27,1.81-3.43,2.67-38.89,29.11-86.7,43.8-135.48,41.16-.17,0-.66-.11-.57.21-2.05-1.18-3.94-2.4-5.9-3.73-.09-.4.31-.41.65-.39,14.28,1.29,29.51.87,44.03-1.13,9.29-1.28,18.42-3.35,27.54-5.52l.37-.25c4.33-1.32,8.66-2.68,12.95-4.09h.44c8.61-3.46,17.17-6.97,25.42-11.21,13.07-6.72,25.52-15,36.6-24.31.31-.28.54-.32.68-.11Z" fill="#7c2d8d"/>
  <path d="M178.08,161.61c-3.32,4.18-6.8,8.01-10.76,11.59-1.07.39-2.17.95-3.32,1.69-23.84,12.24-49.76,20.49-76.42,23.45,0,.16-.08.21-.25.22-5.34-.68-10.38-1.8-15.52-3.31.57-.49,1.53-.26,2.23-.31,34.67-2.24,67.27-11.78,97.17-29.28,2.14-1.25,4.2-2.68,6.35-3.89.17-.1.3-.18.51-.16Z" fill="#6e308f"/>
  <path d="M196.19,125.78c-.89,3.29-1.9,6.37-3.1,9.52-.33.05-.62.32-.88.52-2.18,1.71-4.27,3.53-6.48,5.21-17,12.98-35.23,22.69-55.35,29.88.04-.14.11-.26.22-.36,8.82-3.76,17.24-9.53,23.88-16.1l.22.1.97-.63c14.34-7.36,27.81-17.46,39.97-28.21.23-.18.59-.34.55.06Z" fill="#802e8c"/>
  <path d="M198.57,114.4c-.59,3.99-1.32,7.51-2.38,11.39-.12-.21-.59.24-.67.31-10.25,9.05-20.51,16.91-32.31,23.89-2.72,1.61-5.61,3.44-8.52,4.58.17-.32.35-.63.59-.9,3.7-4.1,7.3-8.11,10.28-12.8l.4-.38c11.34-7.44,22.73-16.52,32.4-26.26l.19.17Z" fill="#852e8c"/>
  <path d="M167.32,173.2c-4.21,3.8-8.7,7.43-13.5,10.46-.84.53-1.74,1.15-2.64,1.55-4.37,2.3-9.06,3.98-13.72,5.63-9.68,3.41-20.04,6.29-29.74,8.25-1.38.1-2.75.18-4.14.21-.28,0-.55,0-.83,0-.41,0-.83,0-1.24,0-.93,0-1.87.01-2.79,0-.45,0-.9,0-1.35,0-.28,0-.55,0-.83,0-3.08-.08-6.16-.34-9.21-.72l.07-.4c26.8-2.99,52.62-11.2,76.5-23.46.83-.43,2-1.23,2.82-1.53.18-.06.46-.19.59.02Z" fill="#673090"/>
  <path d="M199.39,106.84c-.15,2.56-.45,5.04-.83,7.56-.2,0-.29.14-.42.26-1.02.94-1.94,2-2.94,2.96-7.55,7.24-15.81,13.94-24.44,19.86-1.3.89-2.93,2.12-4.28,2.86-.17.09-.3.19-.51.16l.09-.4c1.55-2.73,3.07-5.51,4.49-8.31l.29-.29c1.12-1,2.38-1.95,3.78-2.86,8.7-6.4,16.62-13.82,23.98-21.56.47-.51.73-.58.8-.22Z" fill="#8b2d8b"/>
  <path d="M199.29,90.69l-.24-.04c-6.42,7.67-13.45,15.28-21.24,21.79-.19.16-.41.3-.62.44s-.44.26-.67.38c-.04-.34-.07-.69-.03-1.04.27-2.01.53-4.02.78-6.04.04-.35.16-.68.29-1l.16-.51c7.24-6.51,13.96-14.12,19.9-21.78.17-.18.45-.45.63-.18.18,1.04.35,2.12.5,3.17.22,1.59.35,3.2.53,4.8Z" fill="#9d2a89"/>
  <path d="M196.7,75.37c.61,2.42,1.14,4.89,1.55,7.35-.23.08-.41.23-.57.41-1.32,1.45-2.59,3.37-3.88,4.92-4.06,4.89-8.5,9.73-13.08,14.14-.91.87-2.01,1.73-2.89,2.6-.13.13-.17.26-.27.4-.08-.36-.14-.72-.13-1.09.05-1.97.11-3.94.15-5.91,0-.37.09-.73.19-1.08.28-.42.58-.83.93-1.2,6.34-6.55,12.47-13.23,17.58-20.66.19-.24.31-.15.42.11Z" fill="#a32c88"/>
  <path d="M195.05,69.67c-4.96,7.36-10.95,15.09-17.41,21.29l-.28-.07c-.06-.1-.13-.21-.17-.32s-.09-.22-.11-.33c-.31-2.07-.62-4.14-.93-6.21-.02-.11,0-.23,0-.35s.04-.24.07-.36c.24-.41.49-.81.8-1.17,5.41-6.27,10.59-12.55,14.92-19.54.13-.19.32-.43.52-.2.96,2.4,1.81,4.78,2.59,7.25Z" fill="#ae2b86"/>
  <path d="M186.15,49.49c1.26,2.16,2.42,4.38,3.52,6.63l.02.22c-4.44,7.01-9.22,14.16-14.82,20.32-.15.15-.28.14-.42-.04-.18-.24-.36-.5-.46-.79-.6-1.68-1.19-3.36-1.78-5.04-.1-.29-.12-.6-.14-.9-.08-.22-.07-.42,0-.6,4.27-5.43,8.46-10.93,11.85-16.97l1.79-2.81c.19-.22.25-.27.43-.01Z" fill="#ba2b84"/>
  <path d="M182.11,43.27c1.41,2.04,2.78,4.06,4.04,6.21-.26-.02-.26.16-.36.31-2.31,3.44-4.28,7.13-6.69,10.59-2.13,3.07-4.56,5.88-6.75,8.88-.14.18-.29.36-.27.61-.08-.06-.16-.13-.23-.2s-.13-.15-.17-.23c-.88-1.91-1.75-3.81-2.64-5.72-.04-.08-.05-.18-.06-.28s0-.2,0-.31l.3-.6c4.72-6.15,8.95-12.83,12.6-19.27h.24Z" fill="#c12983"/>
  <path d="M102.65.1c.7,0,1.51-.09,2.17.1-.02.25-.3.23-.48.2-11.39,23.31-41,32.94-64.24,20.74-.11-.06-.21-.15-.3-.24s-.18-.2-.27-.3c.61-.47,1.24-.89,1.86-1.35.27.02.55.05.81.16,3.42,1.43,6.45,2.68,10.11,3.5,15.59,3.49,32.29-1.91,43.02-13.7,2.51-2.75,4.17-5.4,6.07-8.56.13-.22.33-.39.53-.55.24,0,.48,0,.72,0Z" fill="#f8bbca"/>
  <path d="M159.25,19.57c-.03.2-.06.4-.11.6s-.1.39-.18.57c-2.7,6.31-6.12,12.42-9.98,18.01l-.29-.14c-.31-.12-.62-.24-.89-.44-1.31-.95-2.62-1.92-3.91-2.88-.27-.2-.48-.46-.69-.72-.15-.14-.22-.21-.09-.38,3.9-5.5,6.72-11.52,9.59-17.68.17-.36.41-.68.65-.99,2.03,1.29,3.97,2.61,5.9,4.04Z" fill="#e9257d"/>
  <path d="M192.46,62.43c-.15.07-.26.18-.36.32-1.35,1.9-2.55,3.92-3.91,5.82-3.67,5.17-7.65,10.15-11.98,14.77-.15-.22-.29-.45-.36-.7-.46-1.74-.92-3.49-1.38-5.23-.03-.12-.04-.25-.04-.39s0-.27.02-.4c.25-.02.41-.24.57-.41,5.46-5.96,9.91-13,14.31-19.74.09-.14.15-.28.33-.34,1.01,2.08,1.93,4.17,2.79,6.32Z" fill="#b42a85"/>
  <path d="M195.05,69.67c.59,1.89,1.17,3.77,1.66,5.69-.22-.18-.22-.02-.33.13-1.37,1.77-2.63,3.64-4.02,5.4-4.48,5.72-9.35,11.17-14.59,16.21-.11-.28-.21-.57-.24-.87-.12-1.47-.22-2.97-.3-4.44-.02-.3.05-.6.12-.9.62-.36,1.2-1.02,1.71-1.55,4.88-5.12,9.55-10.9,13.69-16.64.63-.88,1.24-1.93,1.9-2.76.12-.15.18-.28.4-.28Z" fill="#a72b87"/>
  <path d="M199.29,90.69c.09.48.21,1.58.21,2.02v1.55c0,.42.08,1.11.1,1.6l-.14.33c-7.28,8.22-15.29,16.66-24,23.27l-.28-.09c-.02-.33-.03-.66.04-.98.29-1.41.6-2.82.93-4.22.07-.32.22-.62.38-.91,6.77-5.67,13.09-11.96,18.89-18.63,1.27-1.47,2.46-3.03,3.77-4.45-.09.21.08.4.1.52Z" fill="#982c89"/>
  <path d="M173.32,125.47l.57-.56c9.37-6.87,17.51-14.95,25.33-23.5.55-.6.51.83.38,1.17,0,.48,0,.97,0,1.45l-.1,1.14c0,.57-.07,1.13-.1,1.66-.06-.2-.36.1-.42.15-2.41,2.17-4.7,4.91-7.08,7.2-6.12,5.87-13.06,11.76-19.99,16.65-.34.24-.67.51-1.07.64,0-.14,0-.27.03-.4s.04-.26.09-.38c.65-1.66,1.32-3.33,2.09-4.93l.28-.3Z" fill="#8f2c8a"/>
  <path d="M175.8,34.99c.02.09.04.19.04.28s0,.18-.03.25c-1.37,3.21-3.33,6.5-5.18,9.54s-4.02,6.49-6.32,9.32c-.06.07-.14.12-.23.17s-.19.09-.28.12c-.1-.05-.19-.09-.28-.15s-.16-.12-.22-.19c-.91-1.16-1.83-2.34-2.71-3.52-.06-.08-.1-.17-.13-.27s-.06-.21-.07-.31l.24-.58c4.18-6.05,7.92-12.48,11.11-18.97l.24.09c1.33,1.39,2.58,2.77,3.83,4.24Z" fill="#d12580"/>
  <path d="M179.11,39.03c1.03,1.34,2.02,2.82,3,4.24l-3.37,5.79c-2.98,4.88-6.2,9.62-9.77,14.09-.08-.04-.15-.08-.22-.13-.21-.15-2.24-3.71-2.27-3.96,0-.08,0-.17,0-.26.19-.42.39-.84.66-1.22,4.22-5.98,8.31-11.96,11.52-18.42.13-.19.21-.3.44-.13Z" fill="#c82a82"/>
  <path d="M169.28,28.06c-2.96,6.78-6.98,13.12-11.06,19.27l-.22.09c-.09-.02-.17-.04-.25-.07-.24-.1-2.91-2.94-3-3.2-.03-.08-.05-.17-.06-.25.15-.38.3-.76.53-1.11,3.69-5.68,7.21-11.28,9.9-17.46.15-.23.33-.42.54-.59,1.24,1.08,2.44,2.17,3.62,3.31Z" fill="#da277e"/>
  <path d="M199.6,95.87c.08,2.06.13,4.1.11,6.16,0,.17.07.46-.11.57,0-.38.17-1.41-.31-1.09-7.83,8.82-16.52,16.9-25.97,23.97-.37-.12-.14-.7.21-.62,3.37-2.46,6.88-5.41,10.24-8.4,5.39-4.79,10.57-9.82,15.26-15.3.37-.16.49-.45.36-.86-7.38,8.08-15.35,16.07-24.16,22.7-.43.33-.92.58-1.4.82.15-1.5.65-3.11,1.35-4.45.57-.26,1.11-.74,1.6-1.14,8.04-6.53,15.22-13.87,22.04-21.64.21-.23.49-.63.78-.72Z" fill="#932c89"/>
  <path d="M104.82.21s.07,0,.1,0c.07.05.14.05.21,0,.07,0,.14,0,.21,0,.06.1.13.22.11.34-.14.84-1.68,3.31-2.17,4.06-5.8,8.86-13.57,15.67-23.42,19.43l.02.09c-.28.18-.57.36-.89.46-2.5.83-4.96,1.68-7.44,2.57-.32.11-.65.15-.99.18-8.47,1.46-17.36.74-25.58-2.28-1.06-.39-6.73-2.72-6.89-3.16-.03-.08.03-.17.09-.24.44-.35.9-.69,1.35-1.04,2.76,1.54,5.77,2.77,8.8,3.67,20.05,5.98,41.72-1.9,53.19-19.25.99-1.5,2-3.16,2.7-4.8.2-.04.41,0,.61-.01Z" fill="#f8b7c7"/>
  <path d="M165.66,24.74c-1.09,2.04-1.99,4.16-3.05,6.21-2.33,4.49-4.99,8.83-7.92,12.94l-.4-.1-2.48-2.31-.13-.39.24-.58c3.87-5.56,6.79-11.48,9.74-17.54.18-.37.43-.71.68-1.03,1.14.91,2.22,1.84,3.31,2.8Z" fill="#df287e"/>
  <path d="M162.35,21.95c-2.94,6.7-6.44,13.17-10.66,19.15-.81-.45-2.34-1.43-2.84-2.18-.06-.1-.12-.2-.16-.31.23.05.22-.13.31-.26,4.08-5.87,7.43-12.23,10.25-18.79,1.05.78,2.08,1.56,3.1,2.38Z" fill="#e3267e"/>
  <path d="M169.28,28.06c.92.89,1.81,1.77,2.69,2.69-.18.07-.22.23-.3.38-1.08,2.01-2.01,4.1-3.1,6.11-2.45,4.5-5.26,8.79-8.19,12.97-.97-.67-1.87-1.73-2.38-2.8,0-.19.11-.32.2-.47,1.92-3.17,4.14-6.13,6.02-9.4,1.73-3.01,3.14-6.16,4.76-9.22.08-.15.04-.33.29-.27Z" fill="#d52880"/>
  <path d="M133.38,5.8c1.12.4,2.21.81,3.31,1.24,0,.12,0,.25-.02.37s-.04.23-.08.34c-2.69,6.54-6,12.66-10.14,18.34-1.27-.11-2.64-.57-3.73-1.24.03-.25.1-.49.22-.72,4.27-5.64,7.24-11.98,10.06-18.38l.38.05Z" fill="#f07399"/>
  <path d="M178.29,37.99c-3.31,6.29-7.06,13.11-11.56,18.74-.28.35-.61.64-.96.93-.09-.05-.18-.09-.26-.15-.31-.23-1.57-2.17-1.66-2.55-.02-.1-.03-.2-.04-.3.9-1.02,1.69-2.16,2.46-3.28,2.67-3.84,5.16-7.86,7.38-11.97.77-1.43,1.59-2.9,2.16-4.42.84.99,1.68,1.98,2.48,3Z" fill="#cc2981"/>
  <path d="M113.2.93c.03.09.05.17.06.26.08.82-2.11,4.72-2.68,5.66-3.31,5.44-7.44,10.9-12.38,14.68-.08.27-1.59.37-1.73.31-.09-.04-.14-.12-.18-.2-.17.34-1.46.32-1.66,0-.06.31-1.01.38-1.19.1-.23-.05-.24-.17-.09-.34,6.97-5.48,13.12-12.23,16.6-20.45l.35-.33c.98.09,1.92.18,2.9.31Z" fill="#f6a9bd"/>
  <path d="M108.03.41c.81-.04,1.52.14,2.28.21-.46,1.21-1.08,2.48-1.71,3.63-3.92,7.23-8.59,11.99-14.87,17.12-.14.11-.31.14-.3.38-.2.11-.42.23-.65.27-1.47.2-2.97.39-4.44.56-.11.01-.23,0-.35-.02s-.24-.05-.36-.08c.06-.18.16-.34.3-.47,8.43-5.14,15.26-12.64,19.53-21.61.19-.04.38-.03.56.03Z" fill="#f7b0c2"/>
  <path d="M130.58,4.87c.94.3,1.86.6,2.79.93-.24-.05-.22.12-.29.27-2.34,5.05-4.04,9.25-7.11,14.01-1.04,1.62-2.22,3.15-3.25,4.77-1.03.02-2.13-.28-3-.83-.23-.07-.3-.18-.22-.32,4.33-5.67,7.93-11.86,10.45-18.48.14-.35.24-.45.63-.35Z" fill="#f27b9e"/>
  <path d="M127.89,4.04c0,.12,0,.24-.01.35s-.03.22-.07.33c-2.71,6.57-5.92,12.28-10.32,17.94-.1.13-.23.23-.36.34s-.27.2-.41.3c-1.04.1-2.18-.14-3.1-.62l-.11-.2c4.52-5.71,8.56-12,11.31-19.05.07-.1.2-.14.39-.1.91.24,1.79.46,2.69.72Z" fill="#f388a6"/>
  <path d="M150.97,14.08c.81.48,1.59.95,2.38,1.45-1.89,4.48-3.98,8.88-6.44,13.08-1.1,1.88-2.37,3.65-3.5,5.51-.09.15-.2.28-.2.47-.9-.22-1.81-.83-2.38-1.55l-.19-.22c3.93-5.89,7.27-12.28,10.03-18.85l.31.12Z" fill="#ee337f"/>
  <path d="M130.58,4.87c-.23,0-.28.14-.37.3-.77,1.42-1.37,3.41-2.1,4.94-1.33,2.83-2.94,5.68-4.63,8.31-1.16,1.79-2.56,3.46-3.69,5.22-.09.13-.22.21-.08.38-1.04.05-2.1-.21-3-.72,3.55-4.44,6.68-9.3,9.09-14.46.74-1.58,1.34-3.22,2.08-4.8.91.26,1.79.54,2.69.83Z" fill="#f280a1"/>
  <path d="M123.13,2.8c-.91,2.19-1.94,4.42-3.02,6.56-2.44,4.8-5.4,8.86-8.65,12.82l-.33.08c-.89.2-1.97.09-2.79-.31-.34-.08-.54-.16-.28-.5,2.74-2.86,5.36-6.39,7.52-9.9,1.75-2.85,2.99-5.59,4.35-8.62.12-.28.32-.52.51-.75.91.19,1.79.41,2.69.62Z" fill="#f493ad"/>
  <path d="M144.97,10.77c-.02.2-.05.4-.09.59s-.08.39-.15.57c-2.24,5.72-5.54,11.84-8.99,16.93-.11.16-.24.31-.38.45s-.28.28-.44.41c-.86-.06-1.9-.52-2.48-1.14.11-.35.23-.7.42-1.01,3.51-5.67,6.9-11.22,9.29-17.48l.32-.45c.82.38,1.66.72,2.48,1.14Z" fill="#f05a8c"/>
  <path d="M147.35,12.01c0,.21,0,.43-.08.63-2.31,5.93-5.64,12.18-9.27,17.49-.11.16-.24.3-.37.43s-.28.27-.43.39c-.82-.08-1.74-.61-2.28-1.24,3.97-5.96,7.43-12.26,10.04-18.95.8.41,1.59.81,2.38,1.24Z" fill="#ef4f87"/>
  <path d="M138.97,7.97c-.02.2-.04.39-.08.58s-.08.38-.15.55c-2.49,6.36-5.95,12.31-9.7,17.81l-.2.1c-.84,0-1.75-.37-2.38-.93-.14-.17,0-.25.08-.38,2.85-4.39,5.46-8.21,7.7-13.01.87-1.86,1.58-3.81,2.47-5.66.77.3,1.52.61,2.28.93Z" fill="#f16a94"/>
  <path d="M106.68.31c.42,0,1.01-.08,1.35.1-.14,0-.33-.06-.42.06-3.54,7.65-9.26,14.46-16.1,19.38-1.26.91-2.62,1.67-3.86,2.61-.22.13-.44.27-.69.32-1.33.27-2.69.52-4.03.75-.25.04-.51,0-.76-.04l.02-.29c9.91-4.69,18.6-12.75,23.41-22.77.3-.22.66-.27,1.09-.13Z" fill="#f7b3c4"/>
  <path d="M149.42,13.15c-2.61,6.4-5.75,12.88-9.7,18.58-.11.16-.28.27-.44.37-.78-.09-1.59-.52-2.07-1.14,2.94-4.38,5.62-8.94,7.85-13.73.8-1.72,1.44-3.52,2.29-5.21.7.38,1.38.75,2.07,1.14Z" fill="#ef4884"/>
  <path d="M123.13,2.8c.7.17,1.38.34,2.07.52-.19.07-.22.23-.29.39-2.06,4.64-4.09,9.16-7.08,13.31l-4.22,5.66c-.81.18-1.77,0-2.48-.41l3.71-4.73c3.51-4.45,5.65-9.39,8-14.46.07-.15.05-.32.29-.27Z" fill="#f48ea9"/>
  <path d="M115.17,1.24c-.01.16-.03.32-.06.48s-.06.31-.12.45c-2.87,6.74-7.93,13.69-13.19,18.76-.11.11-.24.19-.38.27s-.28.15-.43.22c-.82.02-1.65.05-2.48.1-.09.2-.22.2-.31,0,.32-.61,1.1-1.07,1.61-1.55,4.36-4.08,8.13-8.79,11.03-14.01.89-1.59,1.8-3.31,2.36-5.04.66.09,1.32.21,1.97.31Z" fill="#f6a3b8"/>
  <path d="M117.13,1.55c-2.9,7.23-7.61,14.14-13.19,19.77.43-.05.58.05.47.31-.9.27-1.91.22-2.79-.1-.21-.04-.42-.08-.62-.1,5.97-5.74,10.92-12.54,14.18-20.19.66.1,1.31.2,1.97.31Z" fill="#f6a0b7"/>
  <path d="M117.13,1.55c.56.1,1.1.21,1.66.31-.01.17-.03.33-.06.5s-.06.32-.13.47c-3.05,6.95-7.35,13.53-12.52,18.77l-.02.14c-.51.28-1.18.23-1.66-.1-.08-.25-.96.06-.83-.26,5.16-5.11,9.3-11.04,12.4-17.62.29-.6.51-1.29.81-1.88.09-.17.06-.35.34-.33Z" fill="#f59bb2"/>
  <path d="M120.44,2.17c-2.49,6.62-6.37,12.64-10.91,18.02-.33.39-1.13,1.08-1.35,1.45-.14.24.03.2.16.31-.17.29-.9.2-1.03-.1l-.62-.1c-.14.3-.49.3-.62,0-.18-.16-.26-.02-.12-.28.23-.45,1.04-1.06,1.42-1.48,4.81-5.34,8.67-11.48,11.43-18.12.55.1,1.1.2,1.66.31Z" fill="#f597b0"/>
  <path d="M149.42,13.15c.53.3,1.05.63,1.55.93-.26-.06-.21.13-.28.28-2,4.61-3.96,8.91-6.53,13.24-.99,1.68-2.17,3.28-3.15,4.93-.09.16-.22.27-.18.49-.62-.02-1.24-.39-1.55-.93.81-1.5,1.84-2.89,2.73-4.36,2.87-4.71,4.94-9.26,7.13-14.31.07-.16.02-.34.28-.28Z" fill="#ee3e82"/>
  <path d="M151.18,185.21c-1.29.88-2.69,1.66-4.07,2.4s-2.8,1.38-4.21,2.05c-8.21,3.26-17.41,6.18-26.06,8.23l-.12.05c-3,.5-5.96.91-9,1.14.17-.13.37-.24.58-.3,1.55-.46,3.4-.71,5.01-1.1,12.7-3.02,25.93-7.22,37.87-12.48Z" fill="#6e2d8c"/>
  <path d="M140.1,8.49c0,.16,0,.33-.02.49s-.04.32-.09.47c-2.15,6.06-5.63,12.11-9.23,17.43-.09.13-.2.24-.32.35s-.24.21-.38.31c-.51.09-.94-.09-1.24-.52-.03-.22.09-.33.18-.49.95-1.6,2.18-3.17,3.17-4.8,2.67-4.38,4.89-9,6.79-13.76.39.17.76.35,1.14.52Z" fill="#f06591"/>
  <path d="M142.48,9.63c-2.52,6.72-6.03,13.01-10.04,18.95-.42.09-.72-.04-.93-.41-.01-.2.02-.39.09-.57,3.96-5.77,7.33-12.09,9.71-18.44l.24-.03c.32.15.64.38.93.52Z" fill="#f05f8e"/>
  <path d="M141.04,8.9c-.01.18-.03.37-.06.55s-.06.36-.12.52c-2.21,6.01-5.76,12.44-9.41,17.62-.11.16-.28.26-.45.36-.39.15-.77-.03-.93-.41,4-5.96,7.69-12.23,10.04-19.05.3.13.63.28.93.41Z" fill="#f06591"/>
  <path d="M178.29,37.99c.13.16.26.43.41.62-.04.2-.09.39-.15.58s-.13.37-.22.55c-3.09,5.93-7.05,12.57-11.27,17.75-.25.31-.57.55-.89.79-.31.09-.61-.37-.41-.62,4.67-6.1,8.65-12.61,12.23-19.4.08-.15.04-.33.29-.27Z" fill="#c82a82"/>
  <path d="M106.68.31c-.27,0-.55-.02-.82.01-.5,1.17-1.13,2.33-1.79,3.44-4.65,7.82-11.77,14.48-19.84,18.66-.69.36-1.5.58-2.07,1.08-.56.47-1.56.76-2.28.62-.33.03-.22-.08-.04-.19,1.59-.97,3.8-1.72,5.52-2.65,7.58-4.13,14.38-10.8,18.64-18.31.49-.87,1.04-1.82,1.33-2.76.43,0,1-.09,1.35.1Z" fill="#f8b7c7"/>
  <path d="M142.9,189.66c-8.51,4.05-16.85,6.72-26.18,8.28-.06-.3.15-.19.33-.24,6.91-1.79,13.7-3.8,20.42-6.18,1.64-.58,3.34-1.34,4.98-1.85.17-.05.27-.17.45-.01Z" fill="#732c88"/>
  <path d="M141.55,9.11l-2.36,5.77c-1.53,2.94-3,5.9-4.74,8.72-.95,1.54-2.07,3-2.94,4.56-.24.21-.49.12-.52-.21.83-1.48,1.87-2.87,2.77-4.32,2.89-4.65,5.37-9.58,7.26-14.73.15.07.32.12.52.21Z" fill="#f05f8e"/>
  <path d="M179.11,39.03c-.17.07-.24.2-.33.34-.96,1.62-1.8,3.45-2.76,5.11-2.86,4.98-6.06,9.76-9.54,14.32-.34-.02-.45-.21-.31-.52,4.85-6.09,8.87-12.81,12.52-19.67.09.11.27.22.41.41Z" fill="#cc2981"/>
  <path d="M105.13.21c-.11.53-.4,1.22-.83,1.55l.62-1.55c.07,0,.14,0,.21,0Z" fill="#f8b7c7"/>
  <path d="M199.5,105.18c0-.36-.09-.87.1-1.14,0,.36.09.87-.1,1.14Z" fill="#932c89"/>
  <path d="M101.92.1c-8.42,16.31-26.69,25.79-44.95,23.8-5.43-.59-10.7-2.27-15.59-4.65,1.03-.75,2.04-1.46,3.1-2.17.25,0,.51.02.75.11,3.13,1.21,5.76,2.19,9.1,2.8,17.16,3.12,34.85-4.8,43.54-19.77l.2-.12c1.27-.03,2.56,0,3.83,0Z" fill="#f9c3d0"/>
  <path d="M22.56,104.87l.16.35c.27,2.2.52,4.41.74,6.62l-.08.38c-.47-.02-.93-.07-1.39-.18-7.25-1.9-14.39-5.12-21.17-8.27.03.21,0,.37-.21.48-.19-.7-.1-1.54-.1-2.28,0-1.51-.04-3.04,0-4.56,0-.3-.03-.65,0-.93,0-.36.09-.6.3-.7,6.87,3.48,14.11,6.69,21.39,8.81l.35.28Z" fill="#c52982"/>
  <path d="M24.11,82.61c.04.31.07.62.02.93-.27,1.64-.55,3.29-.83,4.94-.05.31-.19.59-.32.87-.09.03-.17.06-.26.08-.68.11-4.47-1.51-5.3-1.87-4.71-2.03-9.49-4.15-13.73-6.82-.44-.23-.88-.43-1.31-.6.48-2.44,1.09-4.85,1.76-7.25l.19-.26c6.18,3.55,12.7,6.99,19.34,9.33.36.14.52.24.44.66Z" fill="#dd277e"/>
  <path d="M8.18,61.39c.4.13.81.28,1.18.49,5.87,3.38,11.79,6.77,18.18,8.95.04.13.04.26-.01.39.02.1.03.2.04.29s0,.19-.03.27c-.6,1.83-1.22,3.68-1.83,5.5-.03.08-.08.16-.14.24s-.13.15-.21.21c-.19-.02-.39-.04-.58-.07s-.38-.07-.55-.14c-6.47-2.42-12.81-5.59-18.57-9.29l.05-.33c.76-2.25,1.58-4.35,2.48-6.52Z" fill="#e9257d"/>
  <path d="M22.56,93.38c.08.34.15.68.14,1.03-.03,1.35-.07,2.72-.14,4.07-.02.35-.11.68-.21,1.01-.09.03-.19.06-.29.07s-.19.02-.27,0c-2.02-.55-4.16-1.35-6.14-2.16-4.63-1.91-9.23-3.87-13.62-6.3-.2-.11-.38-.25-.57-.38s-.36-.29-.53-.45c.19-2.01.42-4.01.72-6-.02-.23.4-.3.55-.22,6.46,3.43,12.97,6.85,19.9,8.99l.46.34Z" fill="#d12580"/>
  <path d="M22.35,99.49c.33,1.75.41,3.62.21,5.38-1.19-.22-2.33-.64-3.47-1.03-6.29-2.16-12.42-4.8-18.31-7.87-.15-.09-.25.48-.26.52.07-2.07.22-4.15.41-6.21,5.36,2.95,10.96,5.53,16.71,7.66,1.54.57,3.11,1.18,4.71,1.55Z" fill="#cc2981"/>
  <path d="M91.68.41c.04.12.07.25.03.37-.44,1.11-2.82,3.49-3.71,4.36-8.06,7.93-19.16,11.71-30.37,10.43-1.06-.12-6.88-1.04-7.44-1.82-.04-.06-.08-.13-.1-.2,1.09-.64,2.18-1.26,3.31-1.86l.24-.04c12.08,3.32,26.15-1.15,34.22-10.83,1.28-.16,2.54-.3,3.83-.41Z" fill="#fbd6de"/>
  <path d="M97.47.1c.21,0,.41,0,.62,0,.03.21-.07.34-.16.51-.43.82-1.17,1.86-1.72,2.63-10.06,14.14-27.91,20.63-44.83,16.32-2.37-.6-4.67-1.46-6.89-2.48.63-.42,1.23-.83,1.86-1.24.24,0,.49,0,.72.08,2.81,1,5.22,1.84,8.19,2.34,15.69,2.63,32.03-4.52,40.5-18.04l.87-.12c.26-.03.56.01.83,0Z" fill="#facad5"/>
  <path d="M5.69,67.91c-.05.22.12.22.25.31,6.05,3.87,12.69,6.99,19.41,9.52.03.09.05.19.06.28.04.33-.92,4.09-1.11,4.36-.05.08-.12.15-.19.22,0-.25-.14-.27-.31-.36-1.1-.58-2.81-1.05-4.03-1.56-5.46-2.26-10.13-4.83-15.22-7.76-.14-.08-.24-.19-.4-.06.47-1.68,1-3.32,1.55-4.97Z" fill="#e3267e"/>
  <path d="M96.65.1c-.12.01-.72.15-.78.21-9.95,16.4-31.87,23.23-49.51,15.53.65-.42,1.3-.84,1.97-1.24l.22-.02c15.77,6.33,35.39.22,44.9-14.17.3-.1.61-.17.93-.21.76-.05,1.52-.1,2.28-.1Z" fill="#facdd8"/>
  <path d="M22.97,89.34c.16,1.31,0,2.79-.41,4.04-1.55-.4-3.08-1-4.58-1.58-5.46-2.11-10.76-4.66-15.84-7.56l-.49.03c.21-1.38.45-2.77.72-4.14.18-.13.29-.1.49-.03,1.18.47,2.93,1.71,4.17,2.36,3.85,2.02,7.93,3.92,11.98,5.51,1.29.51,2.62,1.05,3.96,1.37Z" fill="#d72780"/>
  <path d="M87.85.83c.04.23-.08.32-.2.47-7.59,9.16-21.01,13.43-32.6,10.97-.52-.11-1.31-.17-1.65-.57,1.12-.6,2.17-1.1,3.31-1.66l.67-.1c9.43,1.4,19.51-1.71,26.25-8.37l.39-.22c1.27-.21,2.55-.36,3.83-.52Z" fill="#fcdce3"/>
  <path d="M51.95,38.2c-.04.1-.09.2-.14.29-.23.37-2.56,2.35-2.96,2.52-.1.04-.2.07-.31.09-2.13-.46-4.48-1.18-6.64-1.88-5.36-1.74-9.57-3.8-14.39-6.71-.1-.06-.18-.14-.26-.23s-.16-.19-.23-.29c.81-.87,1.64-1.74,2.48-2.59l.34-.09c6.65,4.1,14.28,7.19,22.01,8.42.29.1.32.25.11.47Z" fill="#f597b0"/>
  <path d="M38.7,51.56c0,.08,0,.17-.02.25-.06.31-1.41,2.04-1.75,2.44l-.41.21c-.18,0-.35,0-.53-.03s-.35-.04-.51-.1c-6.21-2.1-12.29-5.2-17.78-8.78-.14-.09-.27-.21-.39-.33s-.24-.26-.35-.39c.68-1.02,1.36-2,2.07-3l.5.16c5.99,3.73,12.43,7.01,19.05,9.1.25.07.29.23.11.48Z" fill="#f07399"/>
  <path d="M94.37.21c-.16.2-.48.01-.67.21-.09.09-.25.48-.38.66-8.13,11.06-20.15,16.8-33.98,16.12-2.93-.14-8-1.07-10.66-2.28-.17-.08-.29-.13-.36-.32.58-.36,1.18-.7,1.76-1.04,1.33.65,2.97,1.01,4.43,1.31,13.33,2.73,27.03-2.09,35.72-12.45.53-.63,1.07-1.29,1.45-2.02.9-.08,1.79-.15,2.69-.21Z" fill="#fad0db"/>
  <path d="M40.87,48.86c-.32.71-1.26,2.16-1.89,2.55-.09.06-.19.1-.28.14.01-.27-.15-.26-.33-.34-1.25-.55-2.82-.93-4.14-1.44-5.34-2.07-10.38-4.86-15.18-7.95.58-.81,1.16-1.59,1.76-2.38.31.08.62.16.89.32,6.06,3.55,11.96,6.9,18.77,8.84l.41.26Z" fill="#f27b9e"/>
  <path d="M28.66,68.43c.02.56-.57,2.31-.93,2.65-.06.06-.13.1-.2.15.06-.29-.15-.19-.31-.26-6.69-2.55-13-5.77-19.04-9.58.38-.9.73-1.79,1.14-2.69.21,0,.42.02.61.1,5.51,3.7,11.52,6.36,17.67,9,.38.16.73.39,1.06.63Z" fill="#ee337f"/>
  <path d="M24.21,35.2c.33.09.66.2.96.37,3.87,2.25,7.42,4.29,11.61,5.98,2.62,1.06,5.33,1.94,7.97,2.64.28.1.2.21.06.43-.45.9-1.19,1.68-2.07,2.17l-.28.12c-6.6-2.06-13.29-4.96-19.32-8.93-.13-.09-.25-.21-.36-.33s-.22-.25-.32-.39c.57-.71,1.18-1.39,1.76-2.07Z" fill="#f388a6"/>
  <path d="M60.43,32.4c-.93.94-2.27,1.74-3.52,2.17-8.43-.62-16.97-3.51-24.23-7.97,0-.11.04-.22.12-.31.55-.51,1.08-1.05,1.66-1.55.29.05.59.12.85.26,3.9,1.99,7.31,3.67,11.55,4.92,4.46,1.32,8.93,1.9,13.38,2.22l.18.27Z" fill="#f6a9bd"/>
  <path d="M42.74,46.79c-.32.83-1.08,1.65-1.86,2.07-7.17-1.98-13.85-5.42-20.07-9.42.55-.73,1.08-1.46,1.66-2.17,4.48,3.09,9.38,5.56,14.46,7.53l5.82,1.99Z" fill="#f280a1"/>
  <path d="M54.64,36.13c-.05.15-.11.32-.24.43-.68.6-1.63,1.36-2.45,1.64.01-.3-.15-.26-.35-.32-.59-.17-1.33-.2-1.95-.33-6.05-1.29-11.92-3.48-17.29-6.51-.95-.54-1.84-1.26-2.86-1.64.57-.57,1.18-1.1,1.76-1.66.15-.04.31-.05.46,0,6.76,4.16,14.38,6.87,22.27,8.04.24.08.46.19.65.35Z" fill="#f5a0b7"/>
  <path d="M32.8,60.25c-.11.85-.69,1.94-1.35,2.48-.19.13-.31-.02-.31-.21-6.67-2.34-12.98-5.8-18.81-9.52l-.13-.21c.43-.81.89-1.59,1.35-2.38.36.11.71.24,1.03.43,5.71,3.47,11.32,6.72,17.62,8.92.23.13.42.29.59.48Z" fill="#f0598c"/>
  <path d="M48.53,41.1c-.46.84-1.3,1.58-2.17,1.97-7.02-1.68-13.92-4.66-20.14-8.59-.15-.09-.27-.21-.4-.34s-.25-.26-.36-.4c.52-.59,1.02-1.19,1.55-1.76,1.78.98,3.47,2.11,5.27,3.06,5.39,2.84,10.05,4.15,15.84,5.79.17.05.34.07.41.26Z" fill="#f491ab"/>
  <path d="M36.53,54.46c-.21.85-.83,1.77-1.55,2.28l-.23.04c-6.3-2.25-12.65-5.32-18.33-9.1-.15-.1-.28-.23-.41-.35s-.25-.27-.37-.41c.44-.7.89-1.38,1.35-2.07,6.08,3.99,12.61,7.39,19.56,9.63Z" fill="#f16a94"/>
  <path d="M12.21,52.8c.21-.02.34.07.51.16,1.44.81,2.87,1.87,4.32,2.72,4.53,2.65,9.29,4.86,14.22,6.69l.2.37c-.02.72-.46,1.53-1.03,1.97-.2-.01-.39-.03-.59-.07s-.38-.07-.56-.14c-6.08-2.19-12.43-5.5-17.76-9.04-.18-.12-.32-.3-.44-.48.37-.73.75-1.45,1.14-2.17Z" fill="#ef4f88"/>
  <path d="M84.02,1.35c-.38.66-1.03,1.16-1.61,1.65-7,5.95-16.61,8.61-25.71,7.04,1.2-.58,2.28-1.12,3.52-1.66l.92-.15c6.54.25,13.26-1.86,18.39-5.85l.66-.32c1.27-.26,2.54-.52,3.83-.72Z" fill="#fce1e7"/>
  <path d="M34.98,56.73c-.07.7-.64,1.61-1.24,1.97-.19-.01-.37-.03-.56-.06s-.36-.07-.53-.13c-6.35-2.36-12.15-5.44-17.79-9.03-.09-.06-.17-.14-.25-.23s-.15-.18-.22-.28c.41-.7.81-1.38,1.24-2.07,5.08,3.4,10.52,6.32,16.22,8.57.83.33,1.68.59,2.5.91.21.08.52.14.63.36Z" fill="#f06591"/>
  <path d="M30.42,64.7c-.04.79-.45,1.64-1.03,2.17-.16,0-.31-.02-.46-.05s-.3-.06-.44-.11c-6.17-2.44-12.03-5.33-17.64-8.93-.15-.1-.29-.22-.42-.34s-.26-.26-.39-.4c.33-.69.69-1.38,1.03-2.07,1.63.89,3.18,1.97,4.79,2.92,4.63,2.7,9.51,4.99,14.56,6.81Z" fill="#ef4884"/>
  <path d="M70.57,27.33c-1.4.93-3.03,1.65-4.66,2.07-7.09.66-14.47-.4-21.23-2.83-1.47-.53-2.91-1.13-4.33-1.79-1.2-.55-2.54-1.17-3.52-2.01.45-.37.88-.77,1.35-1.14.07.18.23.22.38.3,8.76,4.68,18.28,6.62,28.23,5.71.97-.09,1.94-.34,2.9-.41.25-.02.68-.08.88.1Z" fill="#f7b2c4"/>
  <path d="M32.8,26.3c-.06.26.14.21.27.29,6.01,3.69,12.9,6.21,19.88,7.34,1.15.19,2.35.24,3.49.44.18.03.39-.05.46.21-.47.7-1.45,1.37-2.28,1.55-2.19-.47-4.42-.78-6.6-1.31-4.65-1.14-9.37-2.99-13.58-5.26-1.08-.58-2.09-1.29-3.21-1.81.52-.5,1.03-.97,1.55-1.45Z" fill="#f6a4b9"/>
  <path d="M63.02,30.85l-.22.36-1.95,1.18-.42.02c-1.04-.33-2.26-.21-3.36-.31-7.97-.73-15.75-3.3-22.61-7.35.41-.36.83-.69,1.24-1.04h.33c4.04,2.1,8.1,3.89,12.55,5.07,4.79,1.26,9.62,1.57,14.3,1.86l.13.22Z" fill="#f7adc0"/>
  <path d="M25.46,33.75c5.35,3.47,11.09,6.21,17.2,8.1,1.12.35,2.3.57,3.42.94.17.06.34.02.29.28-.24.67-.88,1.32-1.55,1.55.05-.26-.12-.22-.29-.28-.82-.29-1.74-.47-2.59-.73-6.28-1.96-12.21-4.84-17.72-8.41.42-.49.81-.97,1.24-1.45Z" fill="#f48ea9"/>
  <path d="M36.84,22.78c1.4.67,2.76,1.45,4.17,2.09,7.56,3.43,16.28,5.05,24.59,4.38.19-.02.36-.19.31.16-.75.72-1.87,1.26-2.9,1.45l-2.32-.21c-7.19-.06-14.51-1.82-20.99-4.88-1.36-.64-2.64-1.42-4-2.06.38-.32.77-.63,1.14-.93Z" fill="#f7b0c2"/>
  <path d="M29.39,66.88c.15.45-.29,1.36-.72,1.55-5.14-1.94-10.13-4.26-14.87-7.02-1.51-.88-2.95-1.88-4.48-2.71.25-.55.46-1.11.72-1.66,4.12,2.59,8.33,5.04,12.76,7.06,2.17.99,4.4,1.83,6.59,2.78Z" fill="#ee3e82"/>
  <path d="M33.73,58.7c.05.53-.44,1.35-.93,1.55-1.89-.85-3.86-1.53-5.76-2.36-4.71-2.07-9.21-4.62-13.48-7.47.27-.48.54-.97.83-1.45,1.73.97,3.38,2.12,5.1,3.12,4.54,2.63,9.34,4.76,14.25,6.61Z" fill="#f05f8e"/>
  <path d="M80.19,2.07l-1,.91c-5.47,3.84-12.26,5.94-18.97,5.4,6.47-2.83,13.04-4.92,19.97-6.32Z" fill="#fde6eb"/>
  <path d="M116.62,175.27c-22.18,6.14-43.82,8.54-66.89,7.25-1.56-.09-3.35-.4-4.87-.39-.17,0-.35.06-.46.19-2.95-2-5.46-3.94-8.17-6.21,0-.23.17-.3.52-.23,16.21,1.81,32.75,2.42,48.99.14h1.51c.37-.06.75-.09,1.13-.05,4.68.5,9.01.93,13.75.82s9.48-.74,14.12-1.57l.39.07Z" fill="#802e8c"/>
  <path d="M72.43,171.96c.35.02.7.06,1.03.16,4.39,1.41,8.75,2.76,13.29,3.64l.48.23c-16.74,2.53-33.47,1.95-50.24.11-.22-.02-.57-.07-.77,0-2.42-2.02-4.7-4.05-6.93-6.32-.15-.36.18-.47.99-.33,13.35,2.33,27.72,3.11,41.38,2.39l.78.11Z" fill="#852e8c"/>
  <path d="M41.29,150.11l.37.22c2.55,2.74,5.23,5.38,7.99,7.9l.22.37c-.27.04-.55.07-.82.09s-.55.03-.82.01c-10.89-.73-21.81-2.72-32.09-5.38-2.02-3.15-3.72-6.17-5.38-9.52-.1-.29.07-.35.34-.27,4.07,1.19,8.22,2.39,12.45,3.34,5.46,1.22,10.75,2.04,16.26,2.87.5.08.99.22,1.47.38Z" fill="#9b2c89"/>
  <path d="M35.8,142.97c.11.06.21.12.3.2s.18.15.25.24c1.54,2.04,3.08,4.05,4.65,6.06.07.09.12.19.17.3s.08.23.11.35c-7.97-.89-15.87-2.44-23.61-4.48-2.15-.57-4.29-1.3-6.43-1.85-.14-.03-.39-.17-.48.01-1.3-2.62-2.46-5.24-3.52-7.97.49.06.99.13,1.46.28,8.72,2.7,17.34,5.24,26.39,6.62l.71.25Z" fill="#a12c88"/>
  <path d="M49.88,158.6c.11.02.21.04.31.08s.19.07.27.13c1.99,1.54,3.98,3.06,5.99,4.57.08.06.14.14.2.22s.11.18.16.28l-.15.25c-6.64.16-13.87-.71-20.63-1.71-5.19-.77-10.54-1.7-15.54-2.88-1.57-2.08-2.93-4-4.35-6.21.1-.19.36-.09.52-.06,2.95.56,5.99,1.48,8.98,2.1,7.98,1.63,16.09,2.74,24.23,3.24Z" fill="#922c89"/>
  <path d="M56.81,163.88l.39.09c1.96,1.16,3.93,2.34,5.87,3.54l.26.3c.19.24-.02.31-.27.32-12.82.11-25.79-1.22-38.43-3.74l-.42-.2c-1.35-1.59-2.48-3-3.73-4.66.08-.18.34-.05.48-.02,11.3,2.26,22.23,4.1,33.82,4.47.64.02,1.41.06,2.02-.11Z" fill="#8d2d8a"/>
  <path d="M25.66,121.64c.09.11.17.21.24.33s.14.23.18.35c.5,1.47.99,2.95,1.46,4.43.08.26.08.53.08.8-.22,0-.44.01-.66,0s-.44-.03-.65-.07c-8.13-1.71-16.11-4.66-23.69-7.7l-.14-.2c-.42-2.09-.75-4.1-1.03-6.21l.17-.16c7.52,3.14,15.52,6.34,23.74,8.19l.31.25Z" fill="#b62b85"/>
  <path d="M32.6,137.79c.2.16.42.33.56.55.81,1.28,1.62,2.59,2.4,3.89.14.22.19.49.25.74-9.73-1.45-19.28-3.95-28.56-7.14-.72-1.86-1.36-3.69-1.97-5.59.51.08,1.02.17,1.51.33,8.28,2.76,16.47,5.35,25.08,6.95l.73.28Z" fill="#a72b87"/>
  <path d="M29.91,132.62c.21.22.43.44.57.71.63,1.18,1.26,2.39,1.86,3.58.14.28.21.58.26.88-9.31-1.7-18.45-4.28-27.32-7.56-.58-1.8-1.08-3.55-1.55-5.38.02-.26.19-.24.4-.16,7.82,3.26,16.01,5.4,24.34,7.41.5.12.97.31,1.44.51Z" fill="#ac2c86"/>
  <path d="M27.63,127.54c.17.17.35.34.45.56.59,1.25,1.17,2.53,1.72,3.8.05.11.07.22.09.34s.02.25.02.37c-6.43-1.31-12.79-3.05-18.99-5.17-2.23-.77-4.41-1.7-6.63-2.47-.19-.07-.35-.16-.56-.12-.46-1.77-.88-3.49-1.24-5.28.22-.04.37.05.55.12,2.19.83,4.33,1.78,6.53,2.58,5.89,2.14,11.92,3.99,18.06,5.28Z" fill="#b12986"/>
  <path d="M23.39,112.22c.07.07.13.14.18.22s.09.15.11.23c.3,1.32.58,2.67.84,4,.02.08,0,.17-.01.26s-.04.18-.08.27c-.41,0-.83,0-1.23-.11-7.63-1.84-15.28-5.05-22.26-8.28-.07-.88-.2-1.77-.21-2.69l-.1-.83c0-.34,0-.69,0-1.04,0-.24,0-.48,0-.72l.24.02c7.22,3.56,14.77,6.49,22.53,8.68Z" fill="#bf2882"/>
  <path d="M24.42,117.19c.08.11.16.22.22.34.33.59,1.02,3.04,1.04,3.7,0,.14,0,.27-.02.41-1.07-.11-2.18-.47-3.23-.75-4.38-1.2-8.69-2.65-12.94-4.24l-8.05-3.29c-.22-1.57-.39-2.96-.52-4.56.1-.21.32-.04.45.01,1.9.81,3.75,1.73,5.66,2.52,5.62,2.32,11.48,4.36,17.38,5.85Z" fill="#ba2b84"/>
  <path d="M63.33,167.82c.24.02.49.04.72.15,1.16.53,2.34,1.09,3.48,1.65.11.05.2.13.29.21s.18.17.27.27c0,.35-.76.39-1.07.4-13.52.42-26.32-.88-39.56-3.03-.24-.04-.45-.16-.65-.27-.9-.98-1.74-2.01-2.59-3,.07-.16.34-.02.46,0,12.34,2.47,25.49,3.86,38.08,3.73.17,0,.46.07.57-.11Z" fill="#892c8b"/>
  <path d="M68.09,170.09c.13,0,.26,0,.39.02.61.09,3.17,1.2,3.67,1.58.1.08.2.17.29.26l-1.71.21c-11.37.38-22.75,0-34.03-1.46-2.18-.28-4.9-.97-7-1.08-.19-.01-.3-.02-.41.16-.84-.85-1.67-1.7-2.48-2.59,2.48.22,4.94.76,7.42,1.12,10.36,1.5,22.12,2.47,32.58,1.99.37-.02.93-.1,1.29-.21Z" fill="#892d8b"/>
  <path d="M.73,106.11c-.18-.17-.1-.57-.1-.83.18.17.1.57.1.83Z" fill="#c52982"/>
  <path d="M98.2,21.53c.1,0,.21,0,.31,0,1.03-.09,2.07-.11,3.1,0,.94.02,1.86.06,2.79.1.56.02,1.1.07,1.66.1.21.01.41,0,.62,0l.62.1c.38.01.67.07,1.03.1.93.09,1.87.18,2.79.31.82.12,1.66.27,2.48.41,1.03.18,2.08.4,3.1.62s2.01.47,3,.72,2.01.53,3,.83c1.25.38,2.5.8,3.73,1.24.8.29,1.59.62,2.38.93.42.17.83.35,1.24.52.32.13.62.28.93.41.17.07.35.13.52.21.31.14.62.27.93.41.82.38,1.68.73,2.48,1.14.76.38,1.52.83,2.28,1.24.69.37,1.4.74,2.07,1.14.51.3,1.05.62,1.55.93.8.49,1.6,1.03,2.38,1.55,1.88,1.26,3.72,2.62,5.48,4.04,1,.8,2.04,1.63,3,2.48s2.1,1.9,3,2.8c1.08,1.07,2.29,2.38,3.31,3.52.8.9,1.62,1.86,2.38,2.8,1.15,1.41,2.38,2.97,3.41,4.45.67.95,1.34,2.02,1.97,3,.13.21.3.44.41.62.1.17.21.35.31.52.83,1.35,1.75,2.95,2.48,4.35,1.09,2.09,2.21,4.55,3.1,6.73s1.7,4.47,2.38,6.73,1.3,4.49,1.76,6.73c.5,2.4.88,5.11,1.14,7.56.21,2.04.36,4.16.41,6.21.07,2.69-.01,5.39-.21,8.08s-.55,5.4-1.03,8.08c-.37,2.04-.81,4.1-1.35,6.11-.4,1.49-.86,2.98-1.35,4.45.2.36.06.85-.31,1.04-.05.17-.26.37-.21.62-.87,1.98-1.59,4.03-2.48,6-1.38,3.04-3.09,6.18-4.86,9.01-3.2,5.11-7.05,9.8-11.28,14.08-.29.11-2.24,2.14-2.69,2.54-5.6,4.97-11.91,9.25-18.69,12.46-.97.46-2,.82-2.93,1.36-4.77,1.7-8.88,2.99-13.76,4.35-1.72.28-3.42.66-5.14.91-8.06,1.18-16.2,1.05-24.25-.19-5.03-.96-10.01-2.21-14.8-4.04-1.47-.56-2.91-1.22-4.35-1.86-1.62-.72-3.2-1.43-4.76-2.28-2.19-1.19-4.45-2.54-6.52-3.93-2.3-1.55-4.81-3.48-6.93-5.28-3.01-2.55-6.01-5.5-8.59-8.49-1.9-2.2-3.85-4.74-5.48-7.14-1.12-1.65-2.21-3.44-3.21-5.18s-1.87-3.44-2.69-5.18-1.61-3.36-2.28-5.07c-.75-1.92-1.38-3.94-1.97-5.9-.44-1.47-.89-2.96-1.24-4.45-.37-1.58-.77-3.38-1.03-4.97-.4-2.36-.66-4.96-.83-7.35-.13-1.79-.2-3.59-.21-5.38,0-2.03.06-4.09.21-6.11.1-1.34.25-2.71.41-4.04.28-2.23.66-4.53,1.14-6.73.34-1.57.8-3.32,1.24-4.87.6-2.1,1.39-4.49,2.17-6.52.35-.91.76-1.91,1.14-2.8.21-.48.5-1.05.72-1.55.33-.72.68-1.46,1.03-2.17.32-.65.69-1.32,1.03-1.97.43-.81.89-1.7,1.35-2.48.28-.49.63-1.05.93-1.55.39-.63.83-1.34,1.24-1.97.49-.75,1.03-1.54,1.55-2.28.66-.94,1.46-1.99,2.17-2.9s1.44-1.83,2.17-2.69c.59-.7,1.24-1.4,1.86-2.07.67-.73,1.37-1.46,2.07-2.17.5-.51,1.03-1.06,1.55-1.55.71-.68,1.45-1.32,2.17-1.97,1.09-.98,2.27-1.99,3.41-2.9.86-.69,1.8-1.43,2.69-2.07.72-.52,1.53-1.05,2.28-1.55,1.14-.76,2.36-1.48,3.52-2.17.83-.5,1.75-1.09,2.59-1.55.95-.52,1.93-.98,2.9-1.45,1.53-.74,3.09-1.42,4.66-2.07,3.02-1.24,6.16-2.35,9.31-3.21.75-.2,1.53-.45,2.28-.62,1.78-.41,3.68-.75,5.48-1.04s3.91-.57,5.79-.72c.32-.03.95-.1,1.19-.1h1.66c.54,0,1.3-.09,1.91-.1Z" fill="#fff"/>
  <path d="M173.84,123.82c7.44-5.7,14.43-12.01,20.9-18.79,1.53-1.61,2.97-3.31,4.5-4.92.14-.14.14-.47.36-.26-.05.33.07.82,0,1.12-.02.08-.31.2-.42.33-6.09,7.11-13.59,14.12-20.85,20.04-1.2.98-3.03,2.64-4.29,3.37-.18.11-.28.2-.52.15.11-.34.2-.69.31-1.04Z" fill="#8f2c8a"/>
  <path d="M87.13,19.88l4.65-3.27c.77-.56,1.39-1.25,2.07-1.86.12-.11.27-.19.42-.25.11.11-.32.48-.41.57-.69.65-1.63,1.37-2.39,1.95-.99.77-2.09,1.57-3.14,2.24-.36.22-.79.56-1.19.62Z" fill="#f8b7c7"/>
  <path d="M94.58,14.29c.11-.31,2.76-3.05,2.9-2.9.05.19-.11.25-.21.36-.55.66-1.67,1.78-2.33,2.33-.12.1-.17.25-.36.21Z" fill="#f8b7c7"/>
  <path d="M102.03,5.59l2.17-3.62c-.05.37-.34.82-.53,1.17-.46.82-1.04,1.74-1.64,2.45Z" fill="#f8b7c7"/>
  <path d="M97.68,11.08s.2-.36.25-.42c.29-.33.77-.73,1.05-1.07.7-.82,1.25-1.78,2-2.55.04.18-.08.27-.17.4-.47.74-1.32,1.75-1.91,2.44-.13.15-1.09,1.33-1.24,1.19Z" fill="#f8b7c7"/>
  <path d="M86.61,20.19c-.13.27-.43.43-.72.41l.72-.41Z" fill="#f8b7c7"/>
  <path d="M101.3,6.63c.01-.22.23-.51.41-.62,0,.24-.2.52-.41.62Z" fill="#f8b7c7"/>
  <path d="M100.99,21.43c.2,0,.51-.07.62.1-1.03-.02-2.07-.02-3.1,0,.76-.18,1.69-.11,2.48-.1Z" fill="#f6a9bd"/>
  <path d="M107.3,21.84c-.2,0-.51.07-.62-.1.2,0,.51-.07.62.1Z" fill="#f59bb2"/>
  <path d="M140,14.29v-.47s1.86-4.19,1.86-4.19c-.43,1.61-1.28,3.09-1.86,4.66Z" fill="#f05f8e"/>
  <path d="M170.01,122.16c-1.13,3.52-2.39,6.54-4.04,9.84-.54.22-1.08.51-1.62.88-25.2,17.17-55.45,27.54-86.02,30.38-4.04.38-7.89.5-11.79.58-.56.01-1.01.05-1.45.14-3.15-1.71-6.12-3.54-9-5.69-.19-.24.02-.31.27-.32,8.08.1,16.24-.03,24.4-.88,31.99-3.36,62.79-15.54,88.47-34.65.25-.13.51-.22.79-.27Z" fill="#932c89"/>
  <path d="M131.52,135.52l.25.13c.19.39.51,1.51.26,1.83.1.67.13,1.43,0,2.07l-.68.44c-23.51,10.32-49.13,14.91-74.58,14.25-.13,0-.26-.03-.4-.07s-.27-.08-.4-.13l-.08-.23,1.38-1.7c.02-.07-.43-.41-.47-.4-.22.11-1.65,1.88-1.56,2.22l-.21.15c-1.42.08-2.84.03-4.24-.15-2.77-2.49-5.09-5.01-7.45-7.87l.12-.24c18.39,1.88,37.32.97,55.49-3.12,5.8-1.31,11.24-3,16.89-4.79.51-.16,1.05-.25,1.58-.33l.33-.1c1.62.37,3.4.84,4.91,1.52,1.03,1.22,1.93,1.21,3.42,1.03l.59-2.32.27-.13c-.16-.23-.16-.36,0-.4l4.36-1.81.19.14Z" fill="#9e2b89"/>
  <path d="M117.86,123.51c.39.12.51.94.53,1.35.03.57.07,4.27-.05,4.46-.14.24-2.15,1.78-2.59,2.1-.14.1-.31.14-.48.17-18.07,6.54-38.01,9.52-57.5,9-6.51-.17-12.77-.83-19.23-1.59-.15-.02-.32-.09-.46-.17-1.6-2.5-2.83-4.67-4.14-7.35-.13-.3.04-.33.32-.32l2.53.38.26.25c.18-.03.3.06.38.25.28-.18.5-.19.66-.05.51-.02,1.03-.03,1.54.03,6.39.79,12.48,1.47,18.94,1.62,19.95.44,40.06-3.1,58.53-10.13.25-.11.52-.1.78,0Z" fill="#ae2b86"/>
  <path d="M115.27,131.58l-.05.34-1.09,1.21,3.4,4.23-.08.23c-23.44,8.33-48.44,11-73.21,8.49-.24-.02-.66-.09-.88,0-2-2.42-3.58-4.59-5.28-7.25.1-.2.35-.05.5-.03,24.39,3.35,48.34,1.63,71.81-5.74,1.48-.46,2.94-1.03,4.42-1.48.14-.04.38-.2.47,0Z" fill="#a62b87"/>
  <path d="M29.49,107.15c.29.11.62.12.98.02l.15.19c14.97,3.51,30.78,4.68,46.23,2.9,4.92-.57,9.48-1.53,14.29-2.58.41-.09.83-.11,1.25-.11,0-.21.12-.26.3-.24,2.1.27,4.24.35,6.41.26.43.06,1.36,2.39,1.53,2.92l2.06.86.05.24-.62.34c-23.91,7.68-49.85,7.73-74.05,1.88l-.14-.15c-.37-1.87-1.17-5.01-1.03-6.83-.05-.17-.04-.33.02-.48.09-.09,2.32.45,2.42.53.09.06.13.16.14.26Z" fill="#c42982"/>
  <path d="M116,118.33c.23-.13.88.41.93.55.47,1.42.87,3.15.93,4.62-1.6.42-3.14,1.11-4.71,1.66-23.91,8.36-50,10.87-75.07,6.83-.09-.17,0-.32.25-.45l1.27-.59c.06-.07-.27-.59-.3-.59-.12,0-2.1,1.06-2.17,1.16.06.1-.02.19-.09.27l-2.56-.39c-.16-.02-.44-.11-.54.08-1.04-2.13-1.85-3.99-2.69-6.21v-.25c27.82,5.68,57.58,3.55,84.01-6.69.24-.11.49-.09.73,0Z" fill="#b42a85"/>
  <path d="M111.13,115.02c-.21.13-.42.26-.63.37s-.43.22-.66.31c-20.4,7.28-42.86,9.66-64.39,7.21-3.06-.35-6.12-.84-9.13-1.33-1-.16-2.11-.34-3.08-.63-.08-.02-.16-.08-.23-.13s-.15-.13-.21-.2l.17-.27,1.81-.61c.06-.04-.04-.57-.06-.58-.11-.06-2.27.59-2.37.67.1.29.08.52-.06.69-.04.08-.09.19-.15.18-.4-.04-2.09-.31-2.39-.44-.13-.06-.17-.13-.25-.26-.64-2.2-1.11-4.06-1.55-6.32.09-.12.4,0,.54.03,15.26,3.51,29.77,4.93,45.46,3.59,9.73-.83,19.54-2.74,28.82-5.69l.31-.02c2.59.86,5.2,1.79,7.67,2.99.08.04.15.11.22.19s.13.17.18.26Z" fill="#bf2882"/>
  <path d="M171.46,117.19c-.43,1.67-.92,3.33-1.45,4.97-2.14,1.38-4.17,2.98-6.28,4.43-26.91,18.52-58.88,29.6-91.65,31.39-5.14.28-10.27.15-15.42.2-.17,0-.46-.07-.57.11-1.82-1.36-3.59-2.83-5.28-4.35.11-.2.22-.14.39-.14,1.35.02,2.7.2,4.06.14.16-.07.4-.04.72.1,2.5-.05,5,.13,7.51.11,10.65-.09,21.49-1.23,31.94-3.25,12.58-2.43,24.86-6.3,36.61-11.36,0,.7.04,1.42.1,2.17l.23-.05c.23.22.48.44.78.55.8-.62,1.46-1.09,2.44-1.47l2.55-.88c1.86-.72,2.03-.97,2.26-3.05l.22-.17c.38-.3.76-.58,1.19-.81,4.66-2.46,9.12-4.85,13.59-7.66,5.65-3.55,10.78-7.28,15.83-11.09l.22.09Z" fill="#992c8a"/>
  <path d="M165.97,132c-1.38,2.78-2.83,5.3-4.55,7.87-25.75,16.06-56.05,25.7-86.65,27.85-.55-.03-1.11-.04-1.62.11-2.83-1.12-5.41-2.39-8.07-3.83-.09-.28.53-.3.67-.31,1.7-.12,3.55-.02,5.27-.11,31.03-1.57,61.68-11.1,88-27.39,2.07-1.28,4.33-3.05,6.39-4.16.18-.1.44-.36.55-.02Z" fill="#8d2d8a"/>
  <path d="M116,118.33c-1.49.4-2.93,1.04-4.4,1.55-25.91,9.1-52.94,10.76-79.89,5.38-.13-.03-.39-.16-.46,0-.67-1.79-1.23-3.45-1.76-5.28l2.79.52c.17-.12.44-.13.52.1,1.41.41,2.88.65,4.33.9,16.37,2.84,33.23,2.83,49.6,0,8.31-1.43,16.48-3.64,24.4-6.49l.33-.05c1.56.9,3.06,1.91,4.46,3.03l.07.33Z" fill="#b82a83"/>
  <path d="M161.42,139.86c-2.28,3.41-4.46,6.21-7.24,9.21l-.69.52c-6.75,3.66-13.74,6.93-20.92,9.65l-.85.18h-.24c-.19-.81-1.16-.5-.65.21l-.14.2-.31.24c-3.28,1.32-6.59,2.49-9.91,3.51l-.33-.14c-.01.2-.22.27-.61.21l-.43.1c-.05.13-.13.24-.24.32-3.49,1.16-7.1,2.05-10.77,2.88l-.68.02c-.23-.08-.34-.31-.32-.7l-.53.05c.06.39,0,.71-.19.96-.24.11-.47.21-.72.3s-.48.17-.73.23c-6.69,1.47-13.64,2.76-20.28,3.41-3.97-.85-7.71-1.93-11.49-3.42.09-.51,1.18-.28,1.6-.31,28.14-2.06,55.04-9.95,79.59-23.69,2.22-1.24,4.43-2.74,6.64-3.91.12-.06.33-.28.43-.04Z" fill="#892d8b"/>
  <path d="M140.83,37.99c1.92,1.28,3.69,2.59,5.48,4.04,0,.09,0,.18-.01.27-.07.39-1.75,2.56-2.12,2.74-.08.04-.16.07-.25.09-.22,0-.46-.13-.71-.38-.56.61-1.09,1.25-1.6,1.91.37.21.52.42.44.64-.09.19-.18.37-.29.55s-.21.35-.35.5c-3.35,3.91-7.12,7.6-11.03,10.94s-7.62,5.88-11.69,8.67c-.86.59-1.89,1.21-2.82,1.6,0,.09-.04.16-.12.2l-1.2.02c-.23.34-.49.64-.78.9l-4.67.54c-1.58-.23-3.15-.39-4.73-.47l-.98.37c-.54.15-3.06-.74-3.32-1.08-.13-.17-.22-.31-.04-.48.3-.24.61-.47.96-.63,4.72-2.21,9.07-4.31,13.5-7.12,10-6.33,18.83-14.49,25.86-23.83.09-.12.24-.12.44,0Z" fill="#e9257d"/>
  <path d="M26.49,100.94l.68.04c14.64,3.84,29.83,5.72,44.89,4.3.15.05.28.05.37,0,.42-.03,1.06-.02,1.24.41l.22-.18c3.82-.19,7.67-.69,11.56-1.5l.53.03h.25c1.41,1.04,2.84,2.05,4.27,3.01.68.08,1.3.2,1.88.35v.15c-19.15,5.09-41.55,4.79-60.83.16-.29-.07-.76-.09-.93-.36l.21-.23,1.31-.17s-.02-.53-.07-.55c-.11-.05-2.32.2-2.43.25.11.29.06.45-.15.5-.09-.1-2.21-.39-2.53-.62-.1,0-.05.21-.05.31-.21-.7-.15-1.51-.2-2.23,0-.13-.11-.27-.11-.31v-1.66c0-.47-.09-1.16-.1-1.71Z" fill="#cc2981"/>
  <path d="M154.18,149.08c-17.81,19.28-43.63,27.7-69.53,22.15.07-.26.28-.18.46-.21,2.09-.31,4.2-.52,6.3-.84,5.03-.78,10-1.81,14.97-2.88l.21.08.15,1.45s.68-.02.62-.17c-.15-.62-.13-1.17.05-1.67,1.95-.45,3.89-.95,5.82-1.48,1.8-.5,4.2-1.04,5.88-1.73l.23.08c.2.78.45,1.54.78,2.27l.47-.2-.61-2.26.16-.2c1.59-.34,3.74-1.2,5.33-1.76,1.75-.61,3.46-1.3,5.22-1.87l.3.14c.23.49.51.94.83,1.36l.47-.26-.62-1.31.06-.35c7.69-3.01,15.16-6.51,22.45-10.35Z" fill="#852e8c"/>
  <path d="M173.63,95.76l-.16.39c-7.47,7.15-15.96,13.6-24.82,19.24-3.04,1.94-6.25,3.95-9.37,5.53-.2.07-.45.03-.73-.11-.48.04-.94,0-1.38-.11-.22-1.99-.45-4.02-.4-6.03l.13-.38.09-.23c10.69-5.53,20.44-13.32,29.63-21.29.1-.09.26-.18.39-.22l.21-.22,2.05-.22c-.02-.3.06-.49.22-.6-.04-.19-.11-.29-.31-.21-.14.3-.37.28-.52,0l-.08-.21,3.88-3.88.23.06c.47,2.84.79,5.61.93,8.49Z" fill="#ae2b86"/>
  <path d="M168.97,73.4l-.2.39c-1.51,1.77-3.1,3.44-4.77,4.99.08.2,0,.29-.21.21l-.04.23c-7.28,7.25-15.3,13.96-24.04,19.51-.19.12-.4.21-.62.31s-.43.17-.66.25c-.13-.09-.26-.18-.39-.28s-.24-.2-.33-.32c-.92-1.2-1.83-2.42-2.72-3.64-.09-.12-.16-.26-.22-.4s-.12-.29-.17-.44l-.09-.25c11.44-7.32,22.14-16.41,30.95-26.85.18-.15.38-.27.6-.34,1.12,2.27,2.01,4.24,2.9,6.63Z" fill="#c12983"/>
  <path d="M171.25,80.54l-.05.22c-7.91,8.43-17.13,16.35-26.75,22.55-.24.28-1.21.21-1.6.14-1.66-.31-3.54-2.46-4.42-3.85v-.33c9.14-5.65,17.5-12.52,25.05-20.14.11-.11.29-.13.31-.15.19.03.31.23.36.62.12.03,2.3-.65,2.39-.74.06-.05-.13-.53-.15-.54l-2.2.62-.2-.16s.02-.18.1-.26c1.64-1.69,3.19-3.47,4.87-5.12.9,2.39,1.63,4.68,2.28,7.14Z" fill="#ba2b84"/>
  <path d="M157.9,53.73c1.16,1.47,2.17,2.91,3.21,4.45-.18.4-.38.79-.65,1.15-1.66,2.21-3.66,4.37-5.54,6.4-4.88,5.25-10.22,10.07-15.94,14.4-2.97,2.26-6.41,4.85-9.66,6.64-.39.21-.79.38-1.22.5-.13-.03-.28-.08-.38-.18-.42-.45-2.99-3.69-3.03-3.93-.01-.08-.01-.15,0-.23.13-.18.27-.37.46-.49,3.13-1.96,6.13-3.87,9.15-6.12,8.7-6.48,16.56-14.11,23.15-22.58.15-.2.27-.17.44,0Z" fill="#d12580"/>
  <path d="M70.16,100.32l.31.06c1.2,1.37,1.79,2.98,2.11,4.73l-.15.18c.06.33-.16.18-.36.2-7.08.7-14.85.55-21.94-.1-8.01-.74-15.91-2.35-23.64-4.45-.03-1.41-.01-2.84,0-4.24l.1-.72c0-.17,0-.35,0-.52h.51c8.62,2.34,17.36,4.05,26.34,4.68,5.22.36,10.15.24,15.36.07.45-.01.9.04,1.35.12Z" fill="#d12580"/>
  <path d="M173.53,103.84c0,.24,0,.48,0,.72l-.1.72c-.04,2.01-.39,4.13-.72,6.11-.35.4-.81.79-1.38,1.14-9.56,8.02-20.63,15.06-31.63,20.6-.04.03-.08.05-.12.07-.12.03-1.47-1.34-1.58-1.58-.19-.41-.24-2.33-.13-2.8.08-.32.99-2.81,1.13-2.87,1.51,0,3.01-.14,4.48-.43-.18-.39-.2-.69-.06-.88l-.05-.36c7.94-4.71,16.19-9.84,23.26-15.9.62-.7,1.23-1.01,1.83-.93.11-.2.37-.28.79-.22-.05-.4.03-.63.25-.71-.21-.07-.26-.18-.1-.34l3.86-3.36c.08-.05.18-.1.26-.06.15.08.06.88.02,1.07Z" fill="#a12c88"/>
  <path d="M171.25,80.54c.61,2.3,1.06,4.37,1.45,6.73l-4.04,4.04-.29.24-1.62.21c-.01.31.07.57.25.79,0,.23-.14.28-.28.4-8.88,7.89-18.11,14.94-28.52,20.74-.4.22-.86.53-1.31.6-.2-.09-.2-.22,0-.31l-.1-.72c-.26-.28-.26-.54,0-.83l-.1-.72c-.3-.17-.29-.55,0-.72-.07-.15-.07-.3-.03-.47,2.02-1.14,4.05-2.28,6.08-3.42l.37-.04.2-.09c.58.61,2.27,1.28,3.04.92.11-.05,1.29-1.85,1.28-1.96-.64-.22-.87-.48-.87-1.18-.12-.37-1.73-1.09-2.18-1.2l-.13-.22c-.01-.24.16-.27.3-.38,1.5-1.13,3.17-2.15,4.7-3.27,7.6-5.53,14.82-11.76,21.18-18.67.17-.18.36-.43.62-.46Z" fill="#b42a85"/>
  <path d="M173.53,103.84c0-.3.05-.64-.05-.93l-3.96,3.44c-.05.06-.01.13-.02.18l-.12.2-2.5-.27c-.1.04-.17.55-.09.57l1.55.14c.18.02.19.12.13.3-.28-.07-.28.01-.45.13-1.36.96-2.76,2.28-4.11,3.33-4.61,3.55-9.43,6.87-14.38,9.94-1.87,1.16-3.99,2.22-5.79,3.42-.15.1-.32.11-.31.36l-.25-.09c-.43-1.64-1.43-2.4-2.99-2.86-.52-.16-.81-.42-.89-.77-.06-.26.14-.21.27-.29,11.36-6.52,21.48-13.39,31.18-22.23.96-.88,1.86-1.88,2.9-2.64.02.36.1.92.1,1.19v4.56s-.1.17-.11.31c-.03.65.11,1.41-.1,2.02Z" fill="#a62b87"/>
  <path d="M152.31,47.42c1.1,1.11,2.1,2.26,3.1,3.42-.03.12-.07.23-.12.34s-.1.21-.17.3c-9,11.36-19.47,20.72-31.82,28.33-.1.06-.21.1-.33.14s-.24.06-.36.08c-1.06-1.03-1.92-2.43-2.38-3.83-.11-.21-.1-.35.01-.43,12.12-7.27,23.18-17.15,31.78-28.49l.28.14Z" fill="#da277e"/>
  <path d="M163.8,62.43c.83,1.43,1.55,2.86,2.28,4.35-1.2,1.26-2.28,2.65-3.46,3.94-6.5,7.08-13.91,13.67-21.75,19.24-1.93,1.37-3.98,2.58-5.9,3.93-.13.09-.27.17-.34.33l-.39-.15c-.85-1.02-1.87-1.89-2.88-2.76l-.14-.4.09-.36c9.75-6.26,19.36-13.85,27.07-22.43.19-.25.42-.35.67-.3.21.02.39.22.54.58.12,0,2.12-1.04,2.2-1.14.02-.03-.23-.56-.3-.57l-1.81.93-.22-.11c-.25.14-.32.06-.28-.21,1.42-1.74,2.89-3.42,4.42-5.03l.2.17Z" fill="#c82a82"/>
  <path d="M152.31,47.42c-.22-.05-.22.13-.31.25-8.03,10.5-17.91,19.51-29.02,26.67-.79.51-1.66.97-2.44,1.5-.15.1-.32.11-.31.36l-.3-.1c-.73-1.07-1.33-2.21-1.78-3.43l.11-.3.18-.31c8.57-5.09,16.71-11.77,23.6-19.2,2.38-2.57,4.45-5.18,6.58-7.88.16-.2.37-.34.58-.47,1.06.95,2.1,1.88,3.1,2.9Z" fill="#df287e"/>
  <path d="M157.9,53.73c-.23,0-.28.14-.39.28-1.44,1.63-2.76,3.46-4.21,5.11-7.01,7.98-15.36,15.25-24.21,21.12-1.43.95-2.89,1.89-4.4,2.69l-.33-.09c-.62-.81-1.22-1.62-1.77-2.48l.03-.34c1.52-1.06,3.14-1.99,4.69-3.02,9.05-6.03,17.39-13.44,24.44-21.72,1.25-1.46,2.39-3.03,3.67-4.45.84.97,1.69,1.89,2.48,2.9Z" fill="#d52880"/>
  <path d="M29.39,92.14c.16-.25.42-.2.41.1l2.72.52c9.05,2.3,18.53,3.78,27.77,3.76l1.69.27.2-.19c1.28.06,5.58,1.19,6.67,1.91.19.13.36.29.51.46.3.32.88.94.79,1.34-12,.89-24.18-.15-35.89-2.87-2.58-.6-5.11-1.35-7.68-2,.02-1.36.17-2.69.31-4.04l.34-.09,1.92.53.22.28Z" fill="#d52880"/>
  <path d="M114.34,27.02c.81.16,1.58.33,2.38.52-14.28,16.38-36.06,25.53-57.88,24.6-2.86-.12-5.59-.46-8.42-.85-.93-.13-4.28-.64-4.81-1.08-.07-.06-.13-.13-.19-.2.55-.6,1.09-1.18,1.66-1.76l.27-.11c23.8,5.27,50.01-3.02,66.47-21.05l.52-.06Z" fill="#f280a1"/>
  <path d="M146.31,42.03c1.01.82,1.94,1.62,2.9,2.48-.74,1.09-1.55,2.13-2.38,3.16-7.43,9.15-16.3,16.99-26.23,23.35-.74.47-1.53,1.01-2.33,1.34l-.24-.07c-.13-.77-.31-1.34-.84-1.91l-.14-.5-1.06-.1-.11-.21c.85-.73,1.9-1.25,2.85-1.86,8.88-5.72,16.49-12.38,23.33-20.4.33-.87,1.06-1.7,1.86-2.17.82-1.01,1.67-2.01,2.38-3.11Z" fill="#e3267e"/>
  <path d="M126.24,30.44c.7.27,1.38.54,2.07.83,0,.09,0,.18-.01.27-.11.67-2.68,3.44-3.24,4.04-1.48,1.59-2.97,3.17-4.54,4.67-12.47,11.87-28.75,19.93-45.6,22.39-1.56-.25-3.13-.9-4.45-1.76-.34-.15-.16-.35.14-.46,21.43-2.17,41.81-13.26,55.21-30.06l.42.08Z" fill="#f06591"/>
  <path d="M140.83,37.99c-.23,0-.28.14-.39.28-1.23,1.4-2.36,3.04-3.59,4.49-9.93,11.62-22.65,20.96-36.79,26.81-.07.05-.19.1-.23.05-.6-.7-1.67-1.95-.8-2.74.29-.23.6-.46.94-.62,4.61-2.15,8.84-4.2,13.15-6.95,4.96-3.16,9.63-6.79,13.92-10.81,3.87-3.62,7.02-7.35,10.37-11.41.24-.29.54-.53.83-.75.89.54,1.73,1.08,2.59,1.66Z" fill="#ee337f"/>
  <path d="M126.24,30.44c-.3-.07-.26.06-.38.19-1.06,1.13-2.03,2.48-3.09,3.64-11.49,12.65-27.25,21.64-44.03,25.11-2.6.54-5.18.83-7.8,1.2-.16.02-.55.02-.48.3l-.32.03c-1.42-.5-2.84-1.01-4.27-1.53l-.48-.36c-.16-.23,0-.38.48-.45,14.57-.96,28.52-5.26,40.65-13.56,4.39-3,8.04-6.27,11.95-9.83.18-.16.42-.34.63-.18.19-.16.48-.12.86.12.24-.76.46-1.53.66-2.31l.24-.09c.88-1.05,1.78-2.09,2.72-3.1h.28c.83.28,1.56.52,2.38.83Z" fill="#f16a94"/>
  <path d="M104.3,25.78c1-.12,2.11.11,3.1.21.17.22.07.48-.3.78-13.07,12.56-31.1,18.72-49.18,17.81-1.73-.09-3.99-.2-5.64-.61-.17-.04-.31-.16-.44-.27.92-.8,1.84-1.53,2.79-2.28l.4-.09c17.53,2.2,35.59-3.91,48.82-15.54h.45Z" fill="#f493ad"/>
  <path d="M163.08,61.18c-.03.16-.07.34-.17.47-2.55,3.24-5.69,6.54-8.67,9.52-7.13,7.11-14.86,13.21-23.32,18.54-.11.07-.23.11-.35.15s-.26.07-.39.1c-.63.11-1.21-.64-1.52-1.16-.23-.37-.68-1.18-.55-1.53,12.6-7.64,23.89-17.52,33.01-29.09.67,1,1.34,1.97,1.97,3Z" fill="#cc2981"/>
  <path d="M172.7,111.39c-.33,1.96-.75,3.88-1.24,5.8l-8.25,6.09c-7.21,4.97-14.69,9.59-22.59,13.37l-.13-.05c0-1.29,0-2.18-.9-3.25l.1-.22c-.01-.25.15-.27.31-.37,1.3-.8,2.85-1.46,4.21-2.2,7.94-4.32,15.61-9.28,22.79-14.78,1.68-1.29,3.31-2.77,4.99-4.02.21-.16.44-.33.72-.37Z" fill="#9b2c89"/>
  <path d="M54.84,76.82l-.06.26c-.48.16-.91.4-1.29.7.16.69.22,1.37.17,2.05-.85.67-1.66,1.37-2.42,2.1.23.24.29.43.18.59l-.49.1c-5.24-.3-10.46-1.41-15.53-2.75l-.43-.25c-.15-.09-.18-.3-.09-.63-.13-.11-2.28-.77-2.38-.69-.03.44-.17.64-.43.6l-.21.08c-.7-.29-1.42-.54-2.19-.74l-.09-.27c.6-1.99,1.3-3.97,2.07-5.9.36.01.72.04,1.07.14,3.97,1.12,7.66,2.14,11.74,2.86,3.25.58,6.65,1.07,9.86,1.28.29.06.68.16.51.48Z" fill="#ea277d"/>
  <path d="M134.62,34.27c.05.07.13.17.09.22-.29.44-1.94,2.7-2.21,2.89h-.26c-.1.11-.24.12-.42.02-.45.7-.8,1.47-1.13,2.23l-.21.12c-9.68,10.72-22.03,19.5-35.49,24.54-1.24-.2-2.52-.78-3.52-1.55-.31-.13-.23-.28.05-.43,15.73-5.56,30.24-15.93,40.35-29.21l.27-.08c.84.41,1.66.81,2.48,1.24Z" fill="#ef5088"/>
  <path d="M55.26,92.04l.27.11c.31,1.36.99,2.38,2.04,3.07l4.36,1.35.05.23c-1.66-.13-3.46-.02-5.13-.1-9.25-.47-18.17-1.95-27.05-4.46l.14-.19,2.15.27s.07-.6.05-.62c-.1-.08-2.34-.3-2.46-.26,0,.38-.09.62-.3.7-.83-.24-1.69-.38-2.48-.72.16-1.5.37-2.96.62-4.45h.49c8.64,2.44,17.54,4.23,26.57,4.89l.66.18Z" fill="#da277e"/>
  <path d="M116.72,27.54c.56.13,1.1.27,1.66.41-.07.16-.14.32-.22.47s-.17.3-.28.42c-7.3,8.54-17.76,15.55-28.16,19.69-14.56,5.79-29.63,6.75-44.85,3.39-.14-.03-.27-.09-.4-.15s-.26-.14-.38-.22c.45-.53.88-1.04,1.35-1.55,1.44.46,3.03.75,4.53,1,24.04,4.03,48.43-4.36,65.11-21.86.43-.45.83-.97,1.28-1.42.12-.12.07-.27.38-.19Z" fill="#f27b9e"/>
  <path d="M132.14,33.03c-.26.57-.74,1.11-1.14,1.6-9.47,11.64-21.6,20.67-35.49,26.4-1.22.5-2.56.9-3.75,1.43-.15.07-.34.01-.28.28l-.35.08c-1.05-.46-2.11-.91-3.24-1.16l-.24-.26c-.4-.15-.33-.28,0-.48,4.66-1.55,9.27-3.35,13.78-5.69,10.84-5.62,20.82-13.67,28.11-23.24l.23-.1c.83.37,1.57.75,2.38,1.14Z" fill="#f05a8d"/>
  <path d="M122,28.99c-1.03,1.47-2.32,2.82-3.58,4.13-13.35,13.86-31.74,22.62-50.98,23.81-2.21.05-4.37.16-6.49.32l-.17.15-1.66-.85c-.21.34-.43.5-.66.5l-.22.18-12.32-1.54-.71-.3c-.2.23-.43.08-.41-.21l-.32.1c-.32-.06-2.39-.56-2.49-.64-.09-.07-.16-.17-.19-.28.32-.41.61-.84.93-1.24.32-.02.64-.04.95.02,4.33.9,8.3,1.7,12.75,2.02,19.62,1.41,38.79-4.76,54.04-17.14,3.49-2.84,6.24-5.74,9.21-9.05.18-.2.42-.35.66-.48.56.16,1.1.35,1.66.52Z" fill="#f07399"/>
  <path d="M32.08,78.89l.32-.03c.86.25,1.72.5,2.57.75,5.41,1.31,10.88,2.51,16.45,2.9.3-.11.45.18.58.42-.02,1.75.47,3.06,1.32,4.57l-.14.19c-.16.05-.33.09-.49.11s-.33.05-.49.04c-7.61-.53-15.42-2.2-22.73-4.46-.2-.06-.38-.15-.57-.25s-.37-.2-.55-.31c.37-1.64.76-3.25,1.24-4.87.66.34,1.59.42,2.24.72.16.08.23.21.25.21Z" fill="#e3267e"/>
  <path d="M120.34,28.47c-2.28,2.89-4.99,5.59-7.76,8.02-17.53,15.38-41.31,22.02-64.38,17.82-1.84-.33-3.66-.75-5.46-1.21.34-.42.69-.83,1.03-1.24l.48-.05c22.49,5.66,46.98.01,65.06-14.63,3.43-2.78,6.07-5.52,8.99-8.72.16-.18.38-.29.59-.4.48.13.97.28,1.45.41Z" fill="#f2789c"/>
  <path d="M136.9,35.51c-9.66,13.3-23.99,23.74-38.64,30.13l-.26-.1-.24.1c-.88-.4-1.77-.76-2.68-1.09l-.08-.26c-.05-.24.12-.22.27-.29,1.91-.89,3.94-1.6,5.87-2.52,10.95-5.19,20.96-12.68,28.98-21.74.15-.16.25-.02.37.01.16-.15.4-.12.74.07.21-.16,1.15-2.08,1.02-2.45l2.38-3.11c.77.41,1.52.81,2.28,1.24Z" fill="#ef4884"/>
  <path d="M114.34,27.02c-.2,0-.29.13-.42.26-.99.96-1.89,2.05-2.89,3.01-16.43,15.6-39.57,22.58-62,18.45-.64-.12-1.36-.22-1.95-.49.41-.43.82-.83,1.24-1.24l.44-.06c20.07,3.8,41.32-1.48,57.13-14.51.21-.15.44-.09.69.18.07-.3.28-.28.41,0,.25.09.36.06.41-.21-.28-.13-.28-.29,0-.41l.1-.52c-.21-.02-.2-.13,0-.21.05-.14.15-.24.31-.31.07-.14.14-.28.22-.4s.17-.25.27-.35c1.05-1.02,2.12-2.03,3.19-3.02.11-.1.23-.18.36-.26s.27-.15.41-.21c.69.11,1.4.18,2.07.31Z" fill="#f385a4"/>
  <path d="M53.19,87.69c.73.83,1.29,2.06,1.75,3.11.27.41.37.82.32,1.24-6.72-.41-13.41-1.39-19.95-2.97-2.61-.63-5.18-1.44-7.78-2.1.24-1.44.5-2.72.83-4.14,4.51,1.41,9.1,2.61,13.76,3.47,3.65.67,7.37,1.21,11.07,1.4Z" fill="#df287e"/>
  <path d="M109.89,26.3c-.83,1.28-2.09,2.5-3.38,3.35-.01.09-.03.17-.08.21-13.46,11.62-31.24,17.64-49.11,16.42l-.31-.07-1.29-1.52c-.53.17-.52.49.04.96l-.09.21c-.07.05-.14.1-.22.14-.42.19-4.89-.3-5.14-.61l-.02-.25c.53-.49.99-.96,1.55-1.45.95.12,1.9.31,2.85.41,18.67,2,38.13-4.15,51.79-17.03.32-.3.78-.68.93-1.09.84.08,1.67.2,2.48.31Z" fill="#f48ea9"/>
  <path d="M123.86,29.61l-2.76,3.09c-.07.02-.16.04-.24.02l-.21.13c-.47-.36-.72-.3-.76.17l-.49,1.85c-.03.15-.15.16-.3.13-.08.1-.38.23-.52.36-14.96,14.47-31.24,21.73-52.1,23.35-.28.02-.94.06-1.09.31l-.29.13c-1.26-.34-2.47-.79-3.63-1.39l-.12-.29c-.24-.14-.27-.29,0-.31,22.94.29,45.56-10.08,60.43-27.75l.41-.3c.55.17,1.1.33,1.66.52Z" fill="#f17197"/>
  <path d="M102.44,25.67c.59,0,1.31-.09,1.86.1-.13.02-.26-.01-.36.1-12.77,11.59-31.16,17.72-48.42,15.74-.29-.03-.61-.1-.88-.21.68-.53,1.37-1.04,2.07-1.55.29-.09.61-.09.94-.01,3.01.24,6.08.07,9.19-.11.25-.01.5.05.74.12.2,0,.27.16.13.1s.61-.52.69-.21c.08-.04.1-.12.1-.22,2.82-.04,5.97-.77,8.79-1.5,4.87-1.26,9.45-3.13,13.76-5.38.32-.18.6-.2.84-.04.02-.19.2-.27.52-.25l-.17-1.39.16-.33.13-.55c2.11-1.27,4.15-2.67,6.14-4.21l.56-.21h3.21Z" fill="#f597b0"/>
  <path d="M97.68,25.67h1.55c-1.06.93-2.22,1.77-3.38,2.57-.92.63-2.41,1.36-3.18,2-.14.12-.16.27-.27.4-.2-.07-.29-.31-.26-.72-.25,0-.4-.07-.46-.21-.31.02-.44.11-.31.41.3.07.27.28,0,.41v.1c-.11.12-.22.23-.34.34s-.24.2-.37.27c-7.02,3.79-14.72,6.16-22.56,7.03l-.22-.08c-.31-.04-.55-.3-.73-.77-.32.05-.61.11-.37.48l-.14.19-.14.26c-2.42.33-4.86.33-7.3.02l-.22-.17c1.67-1.12,3.33-2.12,5.07-3.11,4.47-.26,9.17-1.04,13.62-2.19l.45.02.23.04.71,2.18.54-.17c-.21-.4-.22-.7-.03-.9v-.23c5.32-1.95,10.78-4.27,15.48-7.8l.66-.25s.07,0,.1,0c.2-.07.4-.11.62-.1.41-.01.83,0,1.24,0Z" fill="#f6a1b7"/>
  <path d="M136.9,35.51c.46.27.89.55,1.35.83-10.08,13.38-23.71,24.13-39.22,30.54-.21,0-.4-.18-.57-.53-.32-.28-.48-.55-.47-.81l7.45-3.57c10.5-5.56,19.99-13.04,27.73-22.06,1.13-1.31,2.18-2.88,3.32-4.14.12-.13.21-.26.41-.26Z" fill="#ee3e82"/>
  <path d="M109.89,26.3c.46.06.89.14,1.35.21.05.1.06.21.04.32-.06.27-3.08,3.2-3.35,3.15-.09-.02-.15-.09-.2-.16-.13.02-.3-.02-.52-.1-.13.28-.29.29-.41,0-.13.06-.19.17-.21.31.29.04.29.34,0,.41l-.1.52c.35.14.33,1.02-.1.93l-.2-.11c-15.45,12.93-36.96,18.78-56.69,14.89-.23-.05-.53-.11-.43-.4.41-.4.84-.76,1.24-1.14.28.18.6.22.91.28,1.43.25,3.03.46,4.47.44l.24-.03.92,1.15.52-.29c-.1-.14-.16-.23-.02-.41.09-.27.22-.17.41-.16,16.3.8,31.57-3.57,44.63-13.31,2.19-1.63,5.49-4.19,7.18-6.28.09-.11-.04-.31.34-.22Z" fill="#f48ba7"/>
  <path d="M92.61,25.99c-.07.4-.36.72-.87.98-3.87,2.46-8.29,4.18-12.58,5.75-.36-.18-.69-.05-1.03.21-4.25,1.21-8.65,2.06-13.08,2.28-.32.02-.7.04-.99-.11,8.78-4.97,18.46-8.15,28.56-9.11Z" fill="#f6a9bd"/>
  <path d="M57.43,74.23c.47.7-.4,1.6-1.01,2.02-.37.25-1.21.75-1.58.57-.41-.43-1-.26-1.5-.31-7.39-.83-14.63-2.04-21.68-4.45.29-.74.61-1.45.93-2.17.12-.23.26-.32.42-.27,7.55,2.38,15.74,3.86,23.81,4.44l.61.17Z" fill="#ee3580"/>
  <path d="M37.05,66.88c.07.04.14.1.14.18-.01.2,2.09,1.3,2.2,1.22.09-.35.25-.51.46-.48-.1-.24-.05-.38.15-.39,5.57,1.25,11.4,2.41,17.02,2.48l.22.19c.62.23.53,2.42-.21,2.38-.18.05-.36.09-.54.12s-.36.05-.54.04c-7.3-.37-14.63-1.84-21.64-3.9-.17-.05-.33-.13-.49-.22s-.32-.18-.47-.29c.32-.7.69-1.38,1.03-2.07.23-.22.56-.24.99-.06.52.11,1.46.36,1.7.79Z" fill="#ef4884"/>
  <path d="M129.24,31.68c-.04.12-.08.23-.13.35s-.11.21-.18.3c-1.92,2.29-3.84,4.58-5.96,6.71-6.41,6.42-13.64,11.75-21.7,15.93-4.98,2.58-10.14,4.47-15.18,6.12l-.03.14c-.63.1-1.27.22-1.92.34-.14.18-.28.22-.43.14-2.4.53-4.81,1.05-7.24,1.55-.5.16-1.27-.17-1.55-.62.1-.18.29-.17.46-.21,1.14-.27,2.34-.41,3.49-.65,18.52-3.85,35.2-13.62,47.47-27.97.69-.81,1.39-1.64,1.97-2.53.31.13.62.28.93.41Z" fill="#f05f8e"/>
  <path d="M39.43,57.56l.58.02c5.24,1.32,10.56,2.38,15.97,2.74.29.03.52.07.56.19.06.16.04,1.2.03,1.49,0,.21-.02.43-.07.64.31.11.22.79-.1.83-.18.04-.36.08-.54.1s-.36.04-.53.02c-5.28-.37-11.58-1.41-16.61-3.03-.34-.11-.65-.31-.95-.5.53-.84,1.09-1.67,1.66-2.48Z" fill="#f06591"/>
  <path d="M51.43,67.09l.21-.09c.68.38,1.25.87,1.8,1.43,1.06,0,2.12,0,3.18.03.18.13.84,1.39.61,1.63-.52.06-1.18.03-1.71,0-5.23-.36-10.43-1.24-15.51-2.48-.05,0-.13.15-.17.21-.83-.3-1.63-.69-2.39-1.17-.09.22-.23.3-.4.24-.85-.27-1.81-.72-2.69-.72.4-.78.83-1.52,1.24-2.28h.53c5.04,1.35,10.3,2.49,15.3,3.21Z" fill="#ef5188"/>
  <path d="M49.05,46.28c.15.1.3.16.48.2,6.78,1.46,15.46,1.4,22.32.41,12.63-1.82,24.61-7.26,34.37-15.41.25-.07.14.26.15.41.2.1.26.34.21.72-.2-.01-.39-.14-.57-.01-13.77,11.33-31.81,16.97-49.66,15.54-2.69-.22-5.37-.66-8.02-1.14.24-.24.48-.48.72-.72Z" fill="#f388a6"/>
  <path d="M118.89,28.06c-1.56,1.96-3.39,3.87-5.22,5.59-17.53,16.5-42.01,23.69-65.78,19.22-1.37-.26-2.81-.53-4.12-1,.11-.14.23-.22.31-.31,2.33.45,4.65.98,7,1.33,17.88,2.64,36.28-1.41,51.41-11.16,5.91-3.8,11.31-8.45,15.88-13.77.15.04.32.05.52.1Z" fill="#f2789c"/>
  <path d="M57.02,72.47c.1.08.15.23.15.44.45.25.75,1.01.27,1.32-6.79-.37-13.53-1.4-20.1-3.14-1.37-.36-2.9-.97-4.24-1.25-.18-.04-.33-.1-.5.04.24-.55.47-1.11.72-1.66,7.69,2.3,15.64,3.95,23.7,4.24Z" fill="#ee3e82"/>
  <path d="M56.39,63.46c.24.4.04,1.56-.19,1.96-.11.19-3.14.12-3.58.06-.15-.53-1.42-.69-1.57-.28l-.25.12c-.21-.18-.42-.27-.72-.32-4.08-.45-8.37-1.42-12.45-2.58-.18-.05-.35-.14-.52-.22s-.33-.19-.49-.29c.37-.62.75-1.25,1.14-1.86,6.04,1.88,12.32,2.92,18.63,3.42Z" fill="#f05e8e"/>
  <path d="M129.76,31.89c0,.19-.1.32-.21.46-.89,1.23-2.14,2.63-3.15,3.78-9.07,10.28-21.02,18.41-33.84,23.29-1.49.57-3.37,1.02-4.77,1.65-.19.08-.33.1-.15.32-.28.26-1.35,0-1.55-.31-.01-.27.15-.26.33-.34,1.68-.74,3.98-1.27,5.8-1.96,12.33-4.67,23.82-12.4,32.72-22.13,1.48-1.61,2.81-3.38,4.29-4.97.17.08.36.14.52.21Z" fill="#f05f8e"/>
  <path d="M45.22,56.73c.09-.11.19-.18.3-.1l.92.76c.19-.17.37-.26.53-.25l.1-.2,10.36,1.42.1.22.12.21c-.71.98-1.06,1.71-.82,2.96.07.51-.04.8-.33.87.04-.68-.03-1.38,0-2.07-5.78-.38-11.52-1.39-17.07-3,.44-.63.89-1.24,1.35-1.86,1.01.06,2.02.26,3.03.6.53.03,1,.17,1.42.44Z" fill="#f16c95"/>
  <path d="M163.39,61.81c.02.07.03.14.03.21,0,.5-2.84,3.59-3.21,3.99-8.61,9.31-17.91,17.77-28.88,24.24l-.64.23c-.27.16-.68-.25-.52-.52,1.55-1.07,3.17-2.03,4.73-3.08,9.18-6.2,17.8-13.86,25.12-22.18,1.02-1.16,1.95-2.44,3.05-3.52.1.16.2.43.31.62Z" fill="#c82a82"/>
  <path d="M50.81,65.33l.17.19c-.12.53.07.97.47,1.32l-.03.26c-.19.07-.33.09-.53.08-.85-.06-1.94-.27-2.81-.41-4.23-.66-8.37-1.73-12.49-2.88.35-.65.66-1.33,1.03-1.97,3.55,1.09,7.18,1.92,10.84,2.56.83.15,2.37.2,3.07.45.26.09.29.13.26.41Z" fill="#f0588c"/>
  <path d="M95.71,25.78c-3.19,2.54-6.9,4.4-10.59,6.13l-5.55,2.16c-.36-.1-.65-1.06-.41-1.35-.05-.26.12-.22.28-.28,3.76-1.51,7.05-2.65,10.61-4.71.86-.5,1.87-1.03,2.56-1.74,1.04-.1,2.06-.16,3.1-.21Z" fill="#f6a1b7"/>
  <path d="M163.8,62.43c-.2,0-.29.13-.41.26-1.31,1.45-2.5,3.01-3.83,4.45-.08.08-.35.28-.1.36.06.31-.14.46-.41.31-1.3,1-2.72,2.89-3.93,4.09-6.36,6.3-13.37,12.01-20.85,16.93-1.01.67-2.19,1.26-3.05,2.07-.3.14-.59-.09-.52-.41,11.64-7.13,22.25-16.21,31.1-26.6.55-.65,1.15-1.35,1.6-2.07.11.18.28.39.41.62Z" fill="#cc2981"/>
  <path d="M122.2,29.09c-12.57,15.16-30.95,25.21-50.56,27.63-3.41.42-6.53.4-9.92.53-.2,0-.42-.11-.36.21-.22.11-.37.04-.41-.21-.06-.31.16-.2.36-.21,3.22-.13,6.41-.17,9.61-.53,16.8-1.91,32.83-9.5,45.03-21.1,2.13-2.03,4.06-4.26,6.05-6.42.09.03.16.09.21.1Z" fill="#f17298"/>
  <path d="M66.64,38.1c.47.28,1.05,1.22.93,1.76-2.6.33-5.38.41-8.02.31-.22,0-.42-.1-.62-.11-.75-.04-1.51.09-2.22-.21.75-.55,1.48-1.12,2.28-1.66,1.45.24,2.93.26,4.4.21.24,0,.47-.1.72-.11.86-.04,1.7.1,2.54-.2Z" fill="#f59ab2"/>
  <path d="M44.81,55.18c.15.14.08.39-.2.75.48.24.69.5.61.8-.45-.11-1.05-.13-1.55-.26-.97-.24-1.94-.49-2.9-.78.34-.46.69-.9,1.03-1.35.97.35,2.05.43,3,.83Z" fill="#f17298"/>
  <path d="M112.27,26.71c-1.44,1.46-2.98,2.83-4.45,4.24-.14.15-.24.19-.31.1-.28-.29-.23-.8.1-1.04-.02-.22.02-.29.1-.21.28.01,1.56-1.21,1.86-1.5.57-.54,1.24-1.16,1.65-1.81.39.06.73.16,1.03.21Z" fill="#f388a6"/>
  <path d="M102.44,25.67c-1.07,0-2.14-.01-3.21,0-.52,0-1.04-.01-1.55,0h4.76Z" fill="#f6a1b7"/>
  <path d="M173.42,105.29c0-.23-.08-.58.1-.72,0,.23.08.58-.1.72Z" fill="#a62b87"/>
  <path d="M26.49,96.69c0-.23-.08-.58.1-.72,0,.23.08.58-.1.72Z" fill="#d52880"/>
  <path d="M96.44,25.67c-.1,0-.38.09-.62.1.12-.18.43-.09.62-.1Z" fill="#f6a1b7"/>
  <path d="M68.5,159.02l-1.24,2.59c-.37-.15-1-.23-.85-.69.07-.22,1.05-2.2,1.16-2.27.23-.15.65.41.93.37Z" fill="#be8ebb"/>
  <path d="M159.5,130.14c.14-.01,2.42,1.21,2.49,1.33.04.07-.29.74-.37.79-.13.08-.18,0-.28-.04-.23-.07-2.2-1.05-2.26-1.16-.1-.15.34-.92.42-.92Z" fill="#be8ebb"/>
  <path d="M60.95,57.25c.14.07.28.14.41.21,1.68.84,2.22,1.04,4.04,1.55s3.39,1.21,5.07,1.86c1.49.57,2.96,1.19,4.45,1.76.52.2,1.03.44,1.55.62.64-.03,1.28-.03,1.94,0,1.12.47,2.26.38,3.44.22.59-.59,1.17-1.19,1.72-1.8l.14.03c.09-.1.24-.29.35-.33.34-.13,1.65-.31,2.03-.29.46.02,1.08.21,1.55.31,1.52.31,2.43.76,3.83,1.35,1.18.5,2.35,1.04,3.52,1.55.85.37,2.28.81,3,1.24.23.14,1.03,1.13,1.03,1.35,0,.3-.21.64-.06,1.14.1.32.84,1.24,1.09,1.55.14.17.09.34.38.5.17.1,2.44.91,2.58.93.35.03,1.12-.46,1.53-.47,1.35-.04,3.16.47,4.56.5l4.63-.52c.22-.17.54-.84.77-.91.26-.08,1.05-.03,1.38-.02.2,0,1.29.06,1.34.11.02.02.04.37.12.56.14.32.42.48.56.79.16.37.23.96.36,1.35.58,1.75,1.07,2.32,1.97,3.83.78,1.3,1.56,2.56,2.38,3.83.75,1.15,1.24,1.82,2.07,2.9,1.06,1.38,2.49,2.96,3.41,4.35.35.52.67,1.48,1.03,1.92.25.31.79.56,1.04.77.16.14.31.34.52.52.17.15.35.27.52.41,1.27,1.1,2.36,1.99,3.41,3.31,1.31,1.65,2.54,3.4,3.83,5.07,1.08,1.4,1.61,2.37,3.17,3.4,1.27.84,1.47.52,2.83.64.2.02.28.02.49.08.17.06,1.82.93,1.89,1.01.22.23.12.75.26.98.13.21.81.27.76.55-.02.13-1.28,2.08-1.4,2.12-.19.07-1.47.04-1.72,0-.23-.05-1.52-.84-1.63-1.01h-.23s-1.06-2.67-1.06-2.67c-.61.21-1.18.51-1.75.81.09.76.18,2.42-.49,2.93l-.25-.04c-.02.08-.05.2-.12.21-.42.05-2.19.07-2.58,0l-.15-.21.15.19c.15.93.17,1.83.05,2.7.01.24,0,.48,0,.72l.1.72c0,.28,0,.55,0,.83l.1.72c0,.1,0,.21,0,.31.05,2.11.29,4.21.41,6.32.8.05,1.3-.2,1.97.31.93.72,1.58.73,2.52,1.25s1.27,1.55,1.62,2.47c.06.15.35.98.31,1.03-1.55.4-3.05.47-4.65.43-.11.88-.87,1.94-1.02,2.76-.09.48-.05,2.29.13,2.72.1.23,1.24,1.21,1.5,1.55.1.14.89,1.44.91,1.52.09.41.05,1.53.02,2-.04.63-.3,2.29-.79,2.68-.35.28-1.59.73-2.08.92-.97.38-2.02.6-2.96,1.08-.41.21-1.41,1.06-1.59,1.11-.24.06-.93-.53-1.06-.71-.03-1.42-.06-2.84-.1-4.24-.12-.58-.35-1.39-.52-1.97l-.24-.1c-.32-1.44-.83-2.56-2.49-2.17-.54-.03-1.59-.32-1.71-.84l-.36.03-1.59-1.07c-.5-.41-1.12-.35-1.71-.27-1.06.13-1.4.22-1.5,1.39.21.08.43.17.6.31.36.28,1.06.84.94,1.27h.25c.45.62,1.09,1.08,1.93,1.36.59.34,1.15,1.31,1.41,1.93-.09.07-.12.15-.07.23-.34.79-.38,1.83-.72,2.65-.1.07-1.87.08-2.13.05-.62-.06-1.11-.9-1.7-1.2-1.41-.71-3.47-.94-4.97-1.5l-3.62-4.5c.52-.46.95-1.02,1.44-1.5.9-.87,1.91-1.6,2.9-2.35-.1-1.46.13-3.09,0-4.53-.04-.41-.22-.8-.31-1.19-.34-1.51-.76-3.01-1.11-4.53-.26-.2-.51-.44-.76-.65-1.29-1.09-3.39-2.51-4.86-3.31-2.63-1.44-5.61-2.29-8.38-3.42-.31-.13-2.17-.87-2.25-.96-.15-.16-.47-1.27-.63-1.6-.08-.17-.74-1.26-.82-1.28-1.47-.05-2.96.07-4.43,0-.57-.02-1.74-.34-2.22-.21-.52-.24-1.34-.09-1.86-.26-.3-.1-1.73-1.14-2.11-1.41-.83-.59-1.6-1.28-2.45-1.84l-.19-.17c-.17-1.14-.19-2.26,1.04-2.78.74-.7.77-.79.26-1.71l.13-.21-.29-.1c-1.31-1.69-2.88-3.14-4.72-4.36l-.06-.31-.44-.08c-.88-.59-4.65-3.65-4.82-4.44-.02-.08-.02-.16-.02-.24l-.29-.06c-1.03-.96-2.3-1.43-3.83-1.42-2.43-.49-2.81-1.26-3.07-3.59-.35-.11-.79-.03-1.1.17-.29.18,1.57,4.86,2.03,5.36l.05.48.26.04c.42.88.81,1.51,1.81,1.78,1.55.62,3.12,1.21,4.71,1.77.61.2,1,.52,1.18.96.43,0,.78.24.93.65.08.23.06,2.83-.03,3.06-.23.6-1.22,1.14-1.79,1.37-.19.29-.41.49-.66.61l.15.18c-.43,1.45-1.07,2.25-2.46,2.87-.65.38-.88.96-.88,1.69l-.22.12c-.47-.07-.29-.1-.59-.19-.28-.08-.48.12-.65-.23-.21-.42-.29-1.33-.47-1.86-.46-1.34-.98-2.04-1.81-3.11-1.11-1.43-1.14-1.72-2.96-2.27-1.33-.4-3.91-1.14-5.22-1.25l-4.55-1.4c-1.46-.85-1.61-1.96-2.18-3.36-.6-1.48-1.41-2.88-2.07-4.35-.3-.67-1.1-2.16-1.22-2.77-.1-.54-.03-1.31-.13-1.84-.04-.24-.29-.38-.41-.57s-.48-.49-.37-.72c.28-.57,2.33-1.77,2.42-2.04.17-.49-.28-1.9-.17-2.09.48-.47.98-.58,1.53-.85,1.23-.61,2.46-.95,2.59-2.59.02-.21.03-.57-.02-.76-.11-.39-.7-.3-.39-1,.06-.14.24-.25.29-.49.14-.68.16-1.26-.08-1.89-.19-.48-.5-.93-.63-1.44-.25-.16-2.66.13-3.22-.03-.2-.06-.63-.63-.85-.8-.31-.24-.82-.49-1.08-.73-.63-.56-.79-.95-.62-1.76.04-.19.15-.41.16-.62.58.21,1.61-.09,1.76.63l3.35-.02c.1-.61.25-1.23.32-1.85.03-.29.09-.51.1-.83.3-.72-.06-1.8.13-2.51.04-.16.75-1.26.91-1.53-.14-.43.47-1.44.93-1.55.11-.17.5-.72.65-.71.18.02,1.52.76,1.83.92Z" fill="#fefefe"/>
  <path d="M131.52,135.52l-4.53,1.89c-.06.05,0,.15-.02.18-.42-.43-.64-1.3-1.04-1.7-.38-.38-1.37-.69-1.85-1.05-.35-.26-.41-.51-.63-.77-.03-.07-.07-.19-.02-.22.43-.24,3.01-1.47,3.32-1.51l.32.07c.23.12,1.14.56,1.32.6.52.11,1.48-.11,1.89.08.11.05.7.82.78.98.22.42.32.99.46,1.45Z" fill="#a12c88"/>
  <path d="M55.98,154.05c-.06.07-.1.21-.17.21-.1,0-.48-.24-.56-.32-.05-.05-.18-.22-.18-.27-.04-.33,1.37-1.7,1.58-2.11.15-.26.9.42.88.56-.02.12-1.35,1.72-1.55,1.93Z" fill="#c38fba"/>
  <path d="M132.14,141.73c-.2-.27-.1-1.71-.1-2.17v-2.07s.09.1.11.25c.15,1.23-.12,2.74,0,4Z" fill="#a12c88"/>
  <path d="M37.05,131.79c-.04-.09-.22-.39-.21-.41.47-.04,2.25-1.3,2.52-1.24.13.03.57.77.47.91-.04.06-1.1.51-1.3.61-.18.09-.32.26-.45.33-.1.05-.79.34-.83.31-.01-.2-.14-.35-.21-.52Z" fill="#cf92b8"/>
  <path d="M46.56,141c-.03.25.58.61.47.83-.16.32-1.88,1.32-2.18,1.76l-.67-.77,2.38-1.81Z" fill="#c990b9"/>
  <path d="M29.49,107.15c.07-.24-.21-.64.07-.71.38.04,2.59-.36,2.73-.22.03.03.06.78.11.93-.59,0-1.18.15-1.76.21-.2.02-1,.13-1.09.11-.12-.03-.02-.28-.05-.32Z" fill="#e097b7"/>
  <path d="M32.29,120.51c-.08-.2-.11-.59-.21-.83l2.79-.83.2,1.03c-.79.13-1.52.5-2.27.73-.12.04-.29,0-.41.1.02-.1-.09-.16-.11-.2Z" fill="#d795b8"/>
  <path d="M151.81,141.92c0-.32.36-.9.71-.77.18.07,1.97,1.5,2.02,1.62.11.25-.41.83-.58.78-.46-.12-1.56-1.46-2.15-1.63Z" fill="#ba8dbb"/>
  <path d="M79.78,163.57l-.83,2.8c-.3-.12-.96-.12-.91-.54.08-.68.72-1.68.71-2.46l1.03.2Z" fill="#ba8cbb"/>
  <path d="M106.37,167.3c-.03-.38-.03-.76-.1-1.14l1.03-.1c-.04.32.06.62.1.93.08.65.1,1.32.21,1.97l-1.02.09c-.1-.06-.2-1.48-.22-1.75Z" fill="#b68abb"/>
  <polygon points="92.61 166.16 92.3 169.06 91.26 168.96 91.58 166.06 92.61 166.16" fill="#b88cbc"/>
  <path d="M141.24,152.18c-.06-.07,0-.14.07-.21.1-.1.69-.53.8-.5.17.04,1.48,2,1.82,2.22-.24.12-.62.64-.86.56-.12-.04-1.35-1.69-1.58-1.96-.08-.09-.24-.1-.25-.11Z" fill="#b78cbc"/>
  <path d="M120.13,163.47l.72,2.69c-.25-.09-.73.23-.87.2s-.82-2.24-.89-2.58c.01,0-.04-.14.07-.21.32-.18.81-.07.96-.1Z" fill="#b58abb"/>
  <path d="M131.72,159.43c.29.55.51,1.16.82,1.7-.02.11-.66.43-.79.46-.2.05-.11-.03-.16-.12-.3-.51-.66-1.09-.91-1.63-.06-.12-.34-.79-.31-.83.91-.39.88-.47,1.35.41Z" fill="#b68bbb"/>
  <path d="M143.93,45.14c-.6.74-1.24,1.45-1.86,2.17-.2-.3-.58-.28-.7-.67.32-.26,1.6-2.15,1.87-2.11.14.02.61.43.69.61Z" fill="#f19db6"/>
  <path d="M85.99,104.04c-2.34.52-4.73.91-7.1,1.23-1.48.2-3.84.62-5.21.43.08-.88.04-1.22.73-1.8.47-.4,1.53-.83,1.86-1.25.28-.35.6-1.34.83-1.81l.38-.17c3.13-.41,6.25-.92,9.35-1.54l.41.05c.08.15.51,1.11.5,1.18-.01.06-.66.81-.76.9-.23.21-.84.51-.93.72-.2.44.04,1.54-.05,2.07Z" fill="#d02580"/>
  <path d="M169.18,91.31c.23-.12.27-.02.31.21.02.22.07.73-.17.81-.77-.03-1.56.19-2.31.22-.14,0-.28,0-.41,0,.08-.21-.14-.91,0-.99.7-.04,1.39-.18,2.08-.26.17-.02.35.02.52,0Z" fill="#cf91b8"/>
  <path d="M169.18,91.31s.16-.17.31-.1c0,.1,0,.21,0,.31-.1-.12-.13-.25-.31-.21Z" fill="#b42a85"/>
  <path d="M164.01,78.78l2.59-.73c-.04.28.31.73.16.94-.08.12-2.55.86-2.69.83-.11-.02-.27-.68-.27-.84.07-.07.14-.14.21-.21Z" fill="#d796b8"/>
  <path d="M169.49,106.53c-.05.32.01.7-.1,1.04-.3-.18-.62-.07-.93-.1-.02,0-.08-.09-.16-.1-.56-.06-1.14-.07-1.7-.16-.18-.11.1-.73,0-.99l2.9.31Z" fill="#c890b9"/>
  <path d="M136.69,110.98s-.1-.12-.11-.25c-.05-.88-.02-1.77-.1-2.65h2.85s.34-.45.38-.55c.33-.73.18-1.67.13-2.46.28-.17,1.96-1.03,2.12-.92l1.15,2.89c-2.1,1.13-4.07,2.49-6.19,3.59-.18.1-.29-.04-.22.34Z" fill="#b42a85"/>
  <path d="M136.9,113.98c-.18-.14-.1-.5-.1-.72.18.14.1.5.1.72Z" fill="#b42a85"/>
  <path d="M136.79,112.43c-.18-.14-.1-.5-.1-.72.18.14.1.5.1.72Z" fill="#b42a85"/>
  <path d="M159.45,67.5c.24-.16,1.87-1.04,2.02-1.04.26,0,.5.68.56.93-.46.03-2.31,1.25-2.54,1.23-.08,0-.43-.67-.46-.82.13-.1.27-.22.41-.31Z" fill="#e097b8"/>
  <path d="M154.17,55.18c-.02.25.53.62.51.78-.01.13-1.94,1.59-2.07,1.65-.33.15-.77-.48-.67-.78l2.23-1.65Z" fill="#e89bb7"/>
  <path d="M29.39,92.14l.1-.93,2.9.31-.1,1.03-2.48-.31c-.13-.04-.26-.06-.41-.1Z" fill="#ea9bb6"/>
  <path d="M120.86,32.71l-.73,2.69-1.03-.41c.29-.36.51-2.14.78-2.49.24-.31.81.17.98.21Z" fill="#f7b4c5"/>
  <path d="M166.59,120.71l-2.69-.78c-.15-.11-.1-1.02.34-.97.74.09,1.68.65,2.46.76.24.16-.2.69-.11.98Z" fill="#c28fba"/>
  <path d="M34.98,79.61s-.12.11-.11.2c-.94-.26-1.87-.59-2.79-.93.33-.37,0-.89.65-.81.18.02,2.26.69,2.36.76s-.06.67-.11.77Z" fill="#f39db6"/>
  <path d="M132.24,37.37c.1.05.2.08.3.11.09.14-.98,2.24-1.18,2.48-.17.2-.58-.13-.88-.21-.02-.2.08-.35.15-.52.18-.4.8-1.7,1.04-1.97.17-.19.37,0,.57.11Z" fill="#f6a7bb"/>
  <path d="M58.46,57.04c-.28.42-.65,1.09-.93,1.55l-10.55-1.45c-.54-.57-1.13-1.08-1.78-1.52l.02-.24,13.24,1.66Z" fill="#f17298"/>
  <path d="M45.22,55.39c.24.15,1.81,1.39,1.84,1.52.02.1-.04.17-.08.24-.66,1.15-1.02-.24-1.76-.41-.23-.29-.6-.6-.93-.73l.52-.82c.17.07.25.11.41.21Z" fill="#f8b5c5"/>
  <path d="M107.2,29.71c.37.05.51.16.41.31-.04.34-.08.7-.1,1.04.16.02.11.1,0,.21,0,.07,0,.14,0,.21l-.1.52c0,.14,0,.28,0,.41-.03.3-.15.31-.41.21-.13-.02-.28.01-.41,0-.32-.13-.19-.43-.21-.72.2-.21.08-.63.1-.93l.1-.52c.02-.13-.03-.31,0-.41.01-.23.08-.33.21-.31.13.02.28-.01.41,0Z" fill="#f9c2cf"/>
  <path d="M107.41,32.4c0,.1,0,.21,0,.31-.18.08-.35-.1-.41-.1.21.04.32-.02.41-.21Z" fill="#f388a6"/>
  <path d="M107.82,30.95c-.09.09-.14.27-.31.31,0-.07,0-.14,0-.21l.31-.1Z" fill="#f388a6"/>
  <path d="M107.41,31.99c0-.17-.06-.43.1-.52,0,.17.06.43-.1.52Z" fill="#f388a6"/>
  <path d="M55.67,45.86c-.56-.73-1-.92.15-1.46.42.66,1.08,1.24,1.51,1.87.09.13.29.34.19.5-.02.04-.64.46-.75.42-.08-.03-.96-1.16-1.1-1.34Z" fill="#f9c5d1"/>
  <path d="M91.37,30.64c.07.11.11.24.1.41l.22.12c0,.5.06.98.2,1.44-1.29.27-2.94,1.37-4.21,1.95-5.76,2.64-11.9,4.37-18.2,5.19-.34.04-.77-.06-1.09,0-.23-.42-.44-.86-.63-1.32l.11-.23c.12-.14.3-.17.48-.2,2.08-.28,4.12-.54,6.17-.97,5.95-1.27,11.51-3.53,16.85-6.39Z" fill="#f59ab2"/>
  <path d="M67.88,38.2c.15.28.38.8.51,1.1.07.17.16.27.01.45-.24.04-.52.38-.83.31-.02-.06.02-.16,0-.21-.26-.59-.66-1.15-.93-1.76-.38-.87-.09-.53.62-1.04.06.45.43.78.62,1.14Z" fill="#facdd7"/>
  <path d="M91.68,29.71c.89-.15.63.28.72.93.08.59.2,1.19.21,1.79-.05.2-.58.14-.73.17-.47-.07-.36-1.16-.41-1.55l-.1-.52c-.02-.13.02-.28,0-.41-.15-.33-.01-.4.31-.41Z" fill="#faccd7"/>
  <path d="M78.12,32.92c-.03-.11-.06-.21-.1-.31.54,0,.91-.55,1.14.1.14.39.3.94.41,1.35.09.32.11.69.3.99,0,.11-.88.34-.93.32-.13-.08-.73-2.11-.82-2.44Z" fill="#fad0da"/>
  <path d="M91.68,29.71c-.21.04-.39.18-.31.41,0-.06-.19-.24-.1-.41h.41Z" fill="#f6a1b7"/>
  <path d="M91.47,31.06c-.01-.09-.08-.21-.1-.41,0-.03,0-.07,0-.1.17.09.1.35.1.52Z" fill="#f6a1b7"/>
  <path d="M107.72,29.82c0,.08-.1.18-.1.21.08-.34-.25-.11-.41-.31.18.02.46.1.52.1Z" fill="#f48ea9"/>
  <path d="M106.79,29.71c-.05.09-.19.23-.21.31v-.41c.13-.05.2.1.21.1Z" fill="#f48ea9"/>
  <path d="M106.48,30.95c.02-.25.08-.39.1-.52,0,.17.06.43-.1.52Z" fill="#f48ea9"/>
  <path d="M37.05,66.88c.03-.07.33-.51.36-.52.67.48,1.44.77,2.16,1.16.14.08.33.04.27.29-.1.15-.36.82-.47.83-.41-.5-2.01-.94-2.33-1.29-.21-.23-.08-.29,0-.47Z" fill="#f6a7bb"/>
  <path d="M83.71,61.7c-.31.35-1.48,1.9-1.81,1.96-.6.11-1.88.17-2.48.11-.4-.04-.69-.29-1.03-.32-.92-.08-.81.18-1.91-.2.2-.22.56-.28.84-.35,1.83-.43,4.04-.97,5.86-1.29.16-.03.44-.1.54.08Z" fill="#f05f8e"/>
  <path d="M82.16,94.42c1.57,1.25,4.2,3.03,5.07,4.76-3.33.75-6.74,1.42-10.14,1.66.54-1.14.69-.69,1.55-1.3.14-.1.67-.61.71-.74.07-.23.08-2.7.02-2.98-.04-.2-.53-.52-.73-.67,0-.08,0-.2.05-.22.44-.14,2.69-.64,3.04-.63l.43.12Z" fill="#d52880"/>
  <path d="M82.16,94.42l-3.52.72c-1.36-1.07-2.81-1.27-4.37-1.89-.55-.22-2.28-.89-2.66-1.17-.27-.21-.73-1.16-.94-1.49l.06-.22c1.95-.29,3.9-.59,5.85-.88l.3.16c1.65,2.05,3.26,3.16,5.28,4.76Z" fill="#dd277e"/>
  <path d="M70.67,90.59c-.85-1.38-1.44-2.77-1.94-4.33-.08-.25-.41-1.26-.4-1.42.02-.52,1.28-.59,1.5-.45.17.11.18,2.17.85,2.72,1.98,1.63,4.26.13,6.2,2.54l-6.21.93Z" fill="#e1277e"/>
  <path d="M127.07,132.41l-3.62,1.66c-.56-.65-.96-1.25-1.86-1.45.08-.22.38-1.28.48-1.35.43-.33,2.02-.5,2.55-.38.43.1,1.91,1.25,2.45,1.53Z" fill="#a62b87"/>
</svg>